<svg width="73" height="33" viewBox="0 0 73 33" fill="none" xmlns="http://www.w3.org/2000/svg">
<path d="M5.8156 21.736V0.303998H8.0956V21.736H5.8156ZM6.6364 19.2736C5.3596 19.2736 4.136 19.1064 2.9656 18.772C1.7952 18.4224 0.8528 17.974 0.1384 17.4268L1.3924 14.6452C2.0764 15.1316 2.882 15.5344 3.8092 15.8536C4.7516 16.1576 5.7016 16.3096 6.6592 16.3096C7.3888 16.3096 7.974 16.2412 8.4148 16.1044C8.8708 15.9524 9.2052 15.7472 9.418 15.4888C9.6308 15.2304 9.7372 14.934 9.7372 14.5996C9.7372 14.174 9.57 13.8396 9.2356 13.5964C8.9012 13.338 8.4604 13.1328 7.9132 12.9808C7.366 12.8136 6.758 12.6616 6.0892 12.5248C5.4356 12.3728 4.7744 12.1904 4.1056 11.9776C3.452 11.7648 2.8516 11.4912 2.3044 11.1568C1.7572 10.8224 1.3088 10.3816 0.9592 9.8344C0.6248 9.2872 0.4576 8.588 0.4576 7.7368C0.4576 6.8248 0.7008 5.9964 1.1872 5.2516C1.6888 4.4916 2.4336 3.8912 3.4216 3.4504C4.4248 2.9944 5.6788 2.7664 7.1836 2.7664C8.1868 2.7664 9.1748 2.888 10.1476 3.1312C11.1204 3.3592 11.9792 3.7088 12.724 4.18L11.584 6.9844C10.8392 6.5588 10.0944 6.2472 9.3496 6.0496C8.6048 5.8368 7.8752 5.7304 7.1608 5.7304C6.4464 5.7304 5.8612 5.814 5.4052 5.9812C4.9492 6.1484 4.6224 6.3688 4.4248 6.6424C4.2272 6.9008 4.1284 7.2048 4.1284 7.5544C4.1284 7.9648 4.2956 8.2992 4.63 8.5576C4.9644 8.8008 5.4052 8.9984 5.9524 9.1504C6.4996 9.3024 7.1 9.4544 7.7536 9.6064C8.4224 9.7584 9.0836 9.9332 9.7372 10.1308C10.406 10.3284 11.014 10.5944 11.5612 10.9288C12.1084 11.2632 12.5492 11.704 12.8836 12.2512C13.2332 12.7984 13.408 13.49 13.408 14.326C13.408 15.2228 13.1572 16.0436 12.6556 16.7884C12.154 17.5332 11.4016 18.1336 10.3984 18.5896C9.4104 19.0456 8.1564 19.2736 6.6364 19.2736ZM19.5115 32V7.3L21.6775 9.542H13.8875V5.4H24.4515V32H19.5115ZM39.6461 32.38C37.4421 32.38 35.5294 32.0507 33.9081 31.392C32.2868 30.7333 31.0328 29.8087 30.1461 28.618C29.2594 27.402 28.8161 25.9833 28.8161 24.362C28.8161 22.7407 29.2468 21.3727 30.1081 20.258C30.9694 19.1433 32.2108 18.2947 33.8321 17.712C35.4534 17.1293 37.3914 16.838 39.6461 16.838C41.9008 16.838 43.8388 17.1293 45.4601 17.712C47.1068 18.2947 48.3608 19.156 49.2221 20.296C50.1088 21.4107 50.5521 22.766 50.5521 24.362C50.5521 25.9833 50.0961 27.402 49.1841 28.618C48.2974 29.8087 47.0308 30.7333 45.3841 31.392C43.7628 32.0507 41.8501 32.38 39.6461 32.38ZM39.6461 28.504C41.4701 28.504 42.9141 28.124 43.9781 27.364C45.0421 26.604 45.5741 25.5527 45.5741 24.21C45.5741 22.8927 45.0421 21.854 43.9781 21.094C42.9141 20.334 41.4701 19.954 39.6461 19.954C37.8221 19.954 36.3908 20.334 35.3521 21.094C34.3134 21.854 33.7941 22.8927 33.7941 24.21C33.7941 25.5527 34.3134 26.604 35.3521 27.364C36.3908 28.124 37.8221 28.504 39.6461 28.504ZM39.6461 19.422C37.5941 19.422 35.8334 19.156 34.3641 18.624C32.8948 18.0667 31.7548 17.2687 30.9441 16.23C30.1588 15.166 29.7661 13.8993 29.7661 12.43C29.7661 10.91 30.1714 9.60533 30.9821 8.516C31.8181 7.40133 32.9834 6.54 34.4781 5.932C35.9728 5.324 37.6954 5.02 39.6461 5.02C41.6221 5.02 43.3574 5.324 44.8521 5.932C46.3468 6.54 47.5121 7.40133 48.3481 8.516C49.1841 9.60533 49.6021 10.91 49.6021 12.43C49.6021 13.8993 49.1968 15.166 48.3861 16.23C47.6008 17.2687 46.4608 18.0667 44.9661 18.624C43.4714 19.156 41.6981 19.422 39.6461 19.422ZM39.6461 16.382C41.2168 16.382 42.4581 16.0527 43.3701 15.394C44.2821 14.71 44.7381 13.798 44.7381 12.658C44.7381 11.4673 44.2694 10.5427 43.3321 9.884C42.3948 9.22533 41.1661 8.896 39.6461 8.896C38.1261 8.896 36.9101 9.22533 35.9981 9.884C35.0861 10.5427 34.6301 11.4673 34.6301 12.658C34.6301 13.798 35.0734 14.71 35.9601 15.394C36.8721 16.0527 38.1008 16.382 39.6461 16.382ZM61.8132 32.38C59.9385 32.38 58.1018 32.114 56.3032 31.582C54.5298 31.0247 53.0352 30.2647 51.8192 29.302L53.9092 25.464C54.8718 26.2493 56.0372 26.8827 57.4052 27.364C58.7985 27.8453 60.2425 28.086 61.7372 28.086C63.4852 28.086 64.8532 27.7187 65.8412 26.984C66.8545 26.2493 67.3612 25.2613 67.3612 24.02C67.3612 23.184 67.1458 22.4493 66.7152 21.816C66.3098 21.1827 65.5752 20.7013 64.5112 20.372C63.4725 20.0427 62.0412 19.878 60.2172 19.878H53.7952L55.1632 5.4H70.7812V9.542H56.9872L59.5712 7.186L58.5452 18.016L55.9612 15.698H61.3192C63.9538 15.698 66.0692 16.0527 67.6652 16.762C69.2865 17.446 70.4645 18.4087 71.1992 19.65C71.9592 20.866 72.3392 22.2593 72.3392 23.83C72.3392 25.3753 71.9592 26.794 71.1992 28.086C70.4392 29.378 69.2738 30.4167 67.7032 31.202C66.1578 31.9873 64.1945 32.38 61.8132 32.38Z" fill="#003A4D"/>
</svg>
