<svg width="282" height="56" viewBox="0 0 282 56" fill="none" xmlns="http://www.w3.org/2000/svg">
<g clip-path="url(#clip0_21381_103584)">
<path d="M55.9905 25.3957V28.013C55.9905 43.4836 43.3985 56.0518 27.9305 56.0259C12.5661 55.9741 0.0517344 43.4317 -8.47762e-05 28.0648C-0.051904 12.5942 12.5402 0 28.0082 0C35.1851 0 42.0253 2.72096 47.2331 7.64461C47.9586 8.31837 48.6322 9.04396 49.2799 9.79547C49.4095 9.92503 49.4613 10.1064 49.4613 10.2619C49.4613 10.4692 49.3836 10.6765 49.2022 10.832L44.8235 14.5636C44.5126 14.8228 44.0462 14.7969 43.7871 14.4859C43.3207 13.9417 42.8026 13.3975 42.2844 12.9051C38.4238 9.25127 33.3456 7.22999 28.0341 7.22999C16.5821 7.22999 7.2546 16.559 7.2546 28.013C7.2546 39.4669 16.5821 48.7959 28.0341 48.7959C38.1129 48.7959 46.7667 41.4882 48.4768 31.6409H43.5798C43.8389 30.4748 43.9944 29.2568 43.9944 28.0389C43.9944 26.8209 43.8648 25.577 43.5798 24.4109H55.0319C55.5501 24.385 55.9905 24.8255 55.9905 25.3957Z" fill="url(#paint0_linear_21381_103584)"/>
<path d="M34.3042 34.0509C32.7237 35.7094 30.4696 36.7459 28.0082 36.7459C25.1581 36.7459 22.619 35.3725 21.0126 33.2475C20.6498 32.7552 20.313 32.211 20.0539 31.6409H18.1625C16.2452 31.6409 14.7166 33.1957 14.7166 35.0874V36.8496C14.7684 36.9273 14.8202 37.031 14.8979 37.1087C17.7739 41.2809 22.5931 44.0018 28.0341 44.0018C32.0242 44.0018 35.6515 42.5247 38.4497 40.1147C41.8439 37.1865 43.9944 32.8588 43.9944 28.0388C43.9944 19.2281 36.8433 12.0759 28.0341 12.0759C25.7281 12.0759 23.474 12.5682 21.4012 13.5011C20.9349 13.7084 20.7794 14.2786 21.0644 14.6932L24.329 19.4354C24.5363 19.7205 24.899 19.85 25.2358 19.7464C26.1168 19.4613 27.0495 19.3059 28.0082 19.3059C32.8274 19.3059 36.7397 23.2189 36.7397 28.0388C36.7397 30.3452 35.807 32.4701 34.3042 34.0509Z" fill="url(#paint1_linear_21381_103584)"/>
<path d="M15.6493 24.385H25.9613C26.2722 24.385 26.5572 24.5405 26.7127 24.7996L30.3659 30.1897C30.7805 30.8117 30.34 31.6409 29.6146 31.6409H20.0539H18.1625C16.2452 31.6409 14.7165 33.1957 14.7165 35.0875V36.8496C13.0324 34.31 12.0479 31.2781 12.0479 28.013C12.0479 25.9917 13.6542 24.385 15.6493 24.385Z" fill="#FC9D74"/>
<path d="M74.0496 27.987C74.0496 32.5479 77.7806 36.2795 82.3407 36.2795H90.6318V31.3559H82.3407V26.7432H95.2437V40.8922H82.3407C75.2415 40.8922 69.4377 35.1134 69.4377 27.987C69.4377 20.8607 75.2156 15.0819 82.3407 15.0819H95.2437V19.6946H82.3407C77.7547 19.6946 74.0496 23.4262 74.0496 27.987ZM120.143 36.3054V40.9181H107.058C105.763 40.9181 104.545 40.633 103.457 40.0629C101.825 39.2596 100.503 37.938 99.7261 36.3054C99.182 35.1911 98.871 33.9732 98.871 32.7034V15.1337H103.483V33.1439C103.716 34.7765 104.986 36.0463 106.618 36.2795L120.143 36.3054ZM174.475 32.6775C174.475 37.2124 170.796 40.8922 166.262 40.8922H148.695V15.0819H164.941C168.775 15.0819 171.91 18.2175 171.91 22.0528C171.91 23.4521 171.496 24.7478 170.796 25.8103C172.998 27.2874 174.475 29.801 174.475 32.6775ZM153.307 24.4109H164.992C166.288 24.4109 167.35 23.3485 167.35 22.0528C167.35 20.7571 166.288 19.6946 164.992 19.6946H153.307V24.4109ZM166.262 36.2795C168.257 36.2795 169.863 34.621 169.863 32.6256C169.863 30.6303 168.231 29.0236 166.262 29.0236H153.307V36.2795H166.262ZM202.069 40.8922H196.913L194.555 36.2795L188.907 25.2402L183.285 36.2795L180.927 40.8922H175.771L178.129 36.2795L188.907 15.1078L199.711 36.2795L202.069 40.8922ZM224.559 36.3054V40.9181H211.474C210.179 40.9181 208.961 40.633 207.873 40.0629C206.24 39.2596 204.919 37.938 204.142 36.3054C203.598 35.1911 203.287 33.9732 203.287 32.7034V15.1337H207.899V33.1439C208.132 34.7765 209.401 36.0463 211.034 36.2795L224.559 36.3054Z" fill="url(#paint2_linear_21381_103584)"/>
<path d="M132.994 15.0819C125.869 15.0819 120.091 20.8607 120.091 27.987C120.091 35.1134 125.869 40.8922 132.994 40.8922C140.119 40.8922 145.897 35.1134 145.897 27.987C145.897 20.8607 140.119 15.0819 132.994 15.0819ZM132.994 39.4151C126.698 39.4151 121.594 34.31 121.594 28.013C121.594 21.7159 126.698 16.6108 132.994 16.6108C139.29 16.6108 144.394 21.7159 144.394 28.013C144.394 34.31 139.29 39.4151 132.994 39.4151Z" fill="url(#paint3_linear_21381_103584)"/>
<path d="M132.994 18.1138C127.527 18.1138 123.096 22.5451 123.096 28.0129C123.096 33.4808 127.527 37.9121 132.994 37.9121C138.461 37.9121 142.891 33.4808 142.891 28.0129C142.891 22.5451 138.461 18.1138 132.994 18.1138ZM132.994 35.3207C128.952 35.3207 125.687 32.0555 125.687 28.0129C125.687 23.9704 128.952 20.7052 132.994 20.7052C137.036 20.7052 140.3 23.9704 140.3 28.0129C140.3 32.0555 137.036 35.3207 132.994 35.3207Z" fill="#FC9D74"/>
<path d="M188.881 40.9181C190.383 40.9181 191.601 39.6999 191.601 38.1972C191.601 36.6944 190.383 35.4762 188.881 35.4762C187.378 35.4762 186.16 36.6944 186.16 38.1972C186.16 39.6999 187.378 40.9181 188.881 40.9181Z" fill="url(#paint4_linear_21381_103584)"/>
<path d="M256.065 16.4035C256.065 16.6627 255.987 16.8959 255.857 17.1291L252.36 22.4156C250.002 22.9598 247.981 24.385 246.659 26.3286L253.655 15.6779C254.044 15.0819 254.873 14.9005 255.469 15.3152C255.857 15.5743 256.065 15.9889 256.065 16.4035Z" fill="#FC9D74"/>
<path d="M267.62 21.3531C266.895 21.7418 266.247 22.2083 265.625 22.7265V16.4035C265.625 15.7816 266.066 15.2374 266.662 15.1338C266.739 15.1078 266.843 15.1078 266.921 15.1078H280.679C281.404 15.1078 281.974 15.7039 281.974 16.4035C281.974 17.1291 281.378 17.6992 280.679 17.6992H268.242V21.0421C268.035 21.1458 267.828 21.2495 267.62 21.3531ZM272.854 22.2083C272.776 22.2083 272.699 22.2083 272.647 22.2083C271.092 22.2083 269.589 22.597 268.268 23.2967C267.465 23.7372 266.713 24.2814 266.04 24.9551C265.781 25.2143 265.651 25.5253 265.651 25.8621C265.651 26.0694 265.703 26.2768 265.807 26.4841C266.04 26.8987 266.48 27.1837 266.947 27.1837C267.284 27.1837 267.62 27.0542 267.879 26.795C268.009 26.6655 268.139 26.5618 268.268 26.4322C269.486 25.3698 271.04 24.7997 272.673 24.7997C276.404 24.7997 279.435 27.8316 279.435 31.5632C279.435 35.2948 276.404 38.3267 272.673 38.3267C270.289 38.3267 268.035 37.031 266.843 34.9838L262.879 27.5465C262.775 27.3392 262.205 26.3804 262.205 26.3545C260.443 23.7631 257.567 22.2083 254.458 22.2083C249.302 22.2083 245.105 26.4063 245.105 31.5632C245.105 31.6409 245.105 31.7187 245.105 31.7964C245.234 36.7978 249.224 40.8145 254.251 40.9181C254.329 40.9181 254.406 40.9181 254.458 40.9181C256.946 40.9181 259.303 39.9334 261.065 38.1713C261.48 37.7566 261.557 37.1606 261.298 36.6423C261.065 36.2277 260.625 35.9427 260.158 35.9427C259.822 35.9427 259.485 36.0722 259.226 36.3314C258.578 36.9792 257.852 37.4716 257.023 37.8085C256.22 38.1453 255.339 38.3267 254.432 38.3267C252.619 38.3267 250.909 37.6271 249.639 36.3573C248.369 35.0875 247.67 33.3772 247.67 31.5632C247.67 27.8316 250.701 24.7997 254.432 24.7997C256.816 24.7997 259.07 26.0954 260.262 28.1426L264.226 35.5799C264.33 35.7872 264.9 36.746 264.9 36.7719C266.662 39.3633 269.538 40.9181 272.647 40.9181C277.803 40.9181 282 36.7201 282 31.5632C282 31.4855 282 31.4077 282 31.33C281.871 26.3286 277.881 22.3119 272.854 22.2083ZM236.27 23.2967L241.478 17.777C241.763 17.4919 241.918 17.1032 241.918 16.6886C241.918 15.8075 241.193 15.1078 240.338 15.1078H229.766C229.093 15.1078 228.523 15.652 228.523 16.3517C228.523 17.0514 229.067 17.5956 229.766 17.5956H230.595H230.673H238.291L233.212 22.9598C232.927 23.2707 232.772 23.6594 232.772 24.1C232.772 25.007 233.497 25.7326 234.404 25.7326H234.637C236.451 25.7326 237.98 26.3027 239.249 27.4947C240.519 28.6868 241.141 30.1379 241.141 31.9519C241.141 33.7918 240.519 35.2948 239.249 36.5646C238.006 37.8085 236.451 38.4563 234.637 38.4563C232.539 38.4563 230.544 37.3938 229.3 35.6317C229.041 35.2689 228.652 35.0616 228.238 35.0616C227.979 35.0616 227.72 35.1393 227.512 35.2948C227.227 35.5021 227.046 35.7872 226.968 36.124C226.916 36.4609 226.968 36.8237 227.175 37.1088C228.86 39.5447 231.658 40.97 234.637 40.97C237.151 40.97 239.301 40.063 241.063 38.3008C242.825 36.5646 243.732 34.4396 243.732 31.926C243.732 29.5937 242.928 27.5725 241.374 25.9399C239.975 24.4628 238.265 23.6076 236.27 23.2967Z" fill="url(#paint5_linear_21381_103584)"/>
</g>
<defs>
<linearGradient id="paint0_linear_21381_103584" x1="27.9951" y1="0" x2="27.9951" y2="56.026" gradientUnits="userSpaceOnUse">
<stop stop-color="#014860"/>
<stop offset="1" stop-color="#001E25"/>
</linearGradient>
<linearGradient id="paint1_linear_21381_103584" x1="16.2619" y1="25.9347" x2="43.7212" y2="30.7757" gradientUnits="userSpaceOnUse">
<stop stop-color="#DB5A00"/>
<stop offset="0.1201" stop-color="#FF9966"/>
</linearGradient>
<linearGradient id="paint2_linear_21381_103584" x1="146.998" y1="15.0819" x2="146.998" y2="40.9181" gradientUnits="userSpaceOnUse">
<stop stop-color="#014860"/>
<stop offset="1" stop-color="#001E25"/>
</linearGradient>
<linearGradient id="paint3_linear_21381_103584" x1="132.994" y1="15.0819" x2="132.994" y2="40.8922" gradientUnits="userSpaceOnUse">
<stop stop-color="#014860"/>
<stop offset="1" stop-color="#001E25"/>
</linearGradient>
<linearGradient id="paint4_linear_21381_103584" x1="188.837" y1="42.4884" x2="188.838" y2="37.5006" gradientUnits="userSpaceOnUse">
<stop stop-color="#DB6A42"/>
<stop offset="1" stop-color="#FF9966"/>
</linearGradient>
<linearGradient id="paint5_linear_21381_103584" x1="254.475" y1="15.1078" x2="254.475" y2="40.97" gradientUnits="userSpaceOnUse">
<stop stop-color="#014860"/>
<stop offset="1" stop-color="#001E25"/>
</linearGradient>
<clipPath id="clip0_21381_103584">
<rect width="282" height="56" fill="white"/>
</clipPath>
</defs>
</svg>
