<svg width="14" height="14" viewBox="0 0 14 14" fill="none" xmlns="http://www.w3.org/2000/svg">
<rect width="14" height="14" rx="7" fill="#C0C0C0"/>
<g clip-path="url(#clip0_17718_99634)">
<path d="M9.0729 3.07296C9.09613 3.04968 9.12371 3.03121 9.15409 3.0186C9.18446 3.006 9.21702 2.99951 9.2499 2.99951C9.28279 2.99951 9.31535 3.006 9.34572 3.0186C9.37609 3.03121 9.40368 3.04968 9.4269 3.07296L10.9269 4.57296C10.9502 4.59618 10.9687 4.62377 10.9813 4.65414C10.9939 4.68451 11.0003 4.71707 11.0003 4.74996C11.0003 4.78284 10.9939 4.8154 10.9813 4.84578C10.9687 4.87615 10.9502 4.90374 10.9269 4.92696L5.9269 9.92696C5.90291 9.95078 5.87433 9.96949 5.8429 9.98196L3.3429 10.982C3.29747 11.0001 3.2477 11.0046 3.19976 10.9948C3.15182 10.9849 3.10783 10.9612 3.07322 10.9266C3.03862 10.892 3.01493 10.848 3.0051 10.8001C2.99527 10.7522 2.99972 10.7024 3.0179 10.657L4.0179 8.15696C4.03037 8.12553 4.04908 8.09695 4.0729 8.07296L9.0729 3.07296ZM8.6034 4.24996L9.7499 5.39646L10.3964 4.74996L9.2499 3.60346L8.6034 4.24996ZM9.3964 5.74996L8.2499 4.60346L4.9999 7.85346V7.99996H5.2499C5.31621 7.99996 5.3798 8.0263 5.42668 8.07318C5.47356 8.12007 5.4999 8.18365 5.4999 8.24996V8.49996H5.7499C5.81621 8.49996 5.8798 8.5263 5.92668 8.57318C5.97356 8.62007 5.9999 8.68365 5.9999 8.74996V8.99996H6.1464L9.3964 5.74996ZM4.5159 8.33746L4.4629 8.39046L3.6989 10.301L5.6094 9.53696L5.6624 9.48396C5.61471 9.46614 5.5736 9.43419 5.54456 9.39237C5.51552 9.35055 5.49994 9.30087 5.4999 9.24996V8.99996H5.2499C5.1836 8.99996 5.12001 8.97362 5.07313 8.92674C5.02624 8.87985 4.9999 8.81626 4.9999 8.74996V8.49996H4.7499C4.69899 8.49992 4.64931 8.48434 4.60749 8.4553C4.56568 8.42626 4.53372 8.38515 4.5159 8.33746Z" fill="white"/>
</g>
<defs>
<clipPath id="clip0_17718_99634">
<rect width="8" height="8" fill="white" transform="translate(3 3)"/>
</clipPath>
</defs>
</svg>
