<svg width="101" height="42" viewBox="0 0 101 42" fill="none" xmlns="http://www.w3.org/2000/svg">
<path d="M7.81 28.6V0.399997H10.81V28.6H7.81ZM8.89 25.36C7.21 25.36 5.6 25.14 4.06 24.7C2.52 24.24 1.28 23.65 0.34 22.93L1.99 19.27C2.89 19.91 3.95 20.44 5.17 20.86C6.41 21.26 7.66 21.46 8.92 21.46C9.88 21.46 10.65 21.37 11.23 21.19C11.83 20.99 12.27 20.72 12.55 20.38C12.83 20.04 12.97 19.65 12.97 19.21C12.97 18.65 12.75 18.21 12.31 17.89C11.87 17.55 11.29 17.28 10.57 17.08C9.85 16.86 9.05 16.66 8.17 16.48C7.31 16.28 6.44 16.04 5.56 15.76C4.7 15.48 3.91 15.12 3.19 14.68C2.47 14.24 1.88 13.66 1.42 12.94C0.98 12.22 0.76 11.3 0.76 10.18C0.76 8.98 1.08 7.89 1.72 6.91C2.38 5.91 3.36 5.12 4.66 4.54C5.98 3.94 7.63 3.64 9.61 3.64C10.93 3.64 12.23 3.8 13.51 4.12C14.79 4.42 15.92 4.88 16.9 5.5L15.4 9.19C14.42 8.63 13.44 8.22 12.46 7.96C11.48 7.68 10.52 7.54 9.58 7.54C8.64 7.54 7.87 7.65 7.27 7.87C6.67 8.09 6.24 8.38 5.98 8.74C5.72 9.08 5.59 9.48 5.59 9.94C5.59 10.48 5.81 10.92 6.25 11.26C6.69 11.58 7.27 11.84 7.99 12.04C8.71 12.24 9.5 12.44 10.36 12.64C11.24 12.84 12.11 13.07 12.97 13.33C13.85 13.59 14.65 13.94 15.37 14.38C16.09 14.82 16.67 15.4 17.11 16.12C17.57 16.84 17.8 17.75 17.8 18.85C17.8 20.03 17.47 21.11 16.81 22.09C16.15 23.07 15.16 23.86 13.84 24.46C12.54 25.06 10.89 25.36 8.89 25.36ZM25.8309 41V8.5L28.6809 11.45H18.4309V6H32.3309V41H25.8309ZM52.8738 41.5C50.1072 41.5 47.6072 40.8 45.3738 39.4C43.1738 38 41.4405 35.9667 40.1738 33.3C38.9072 30.6 38.2738 27.3333 38.2738 23.5C38.2738 19.6667 38.9072 16.4167 40.1738 13.75C41.4405 11.05 43.1738 9 45.3738 7.6C47.6072 6.2 50.1072 5.5 52.8738 5.5C55.6738 5.5 58.1738 6.2 60.3738 7.6C62.5738 9 64.3072 11.05 65.5738 13.75C66.8738 16.4167 67.5238 19.6667 67.5238 23.5C67.5238 27.3333 66.8738 30.6 65.5738 33.3C64.3072 35.9667 62.5738 38 60.3738 39.4C58.1738 40.8 55.6738 41.5 52.8738 41.5ZM52.8738 35.85C54.5072 35.85 55.9238 35.4167 57.1238 34.55C58.3238 33.65 59.2572 32.2833 59.9238 30.45C60.6238 28.6167 60.9738 26.3 60.9738 23.5C60.9738 20.6667 60.6238 18.35 59.9238 16.55C59.2572 14.7167 58.3238 13.3667 57.1238 12.5C55.9238 11.6 54.5072 11.15 52.8738 11.15C51.3072 11.15 49.9072 11.6 48.6738 12.5C47.4738 13.3667 46.5238 14.7167 45.8238 16.55C45.1572 18.35 44.8238 20.6667 44.8238 23.5C44.8238 26.3 45.1572 28.6167 45.8238 30.45C46.5238 32.2833 47.4738 33.65 48.6738 34.55C49.9072 35.4167 51.3072 35.85 52.8738 35.85ZM85.5164 41.5C82.7497 41.5 80.2497 40.8 78.0164 39.4C75.8164 38 74.0831 35.9667 72.8164 33.3C71.5497 30.6 70.9164 27.3333 70.9164 23.5C70.9164 19.6667 71.5497 16.4167 72.8164 13.75C74.0831 11.05 75.8164 9 78.0164 7.6C80.2497 6.2 82.7497 5.5 85.5164 5.5C88.3164 5.5 90.8164 6.2 93.0164 7.6C95.2164 9 96.9497 11.05 98.2164 13.75C99.5164 16.4167 100.166 19.6667 100.166 23.5C100.166 27.3333 99.5164 30.6 98.2164 33.3C96.9497 35.9667 95.2164 38 93.0164 39.4C90.8164 40.8 88.3164 41.5 85.5164 41.5ZM85.5164 35.85C87.1497 35.85 88.5664 35.4167 89.7664 34.55C90.9664 33.65 91.8997 32.2833 92.5664 30.45C93.2664 28.6167 93.6164 26.3 93.6164 23.5C93.6164 20.6667 93.2664 18.35 92.5664 16.55C91.8997 14.7167 90.9664 13.3667 89.7664 12.5C88.5664 11.6 87.1497 11.15 85.5164 11.15C83.9497 11.15 82.5497 11.6 81.3164 12.5C80.1164 13.3667 79.1664 14.7167 78.4664 16.55C77.7997 18.35 77.4664 20.6667 77.4664 23.5C77.4664 26.3 77.7997 28.6167 78.4664 30.45C79.1664 32.2833 80.1164 33.65 81.3164 34.55C82.5497 35.4167 83.9497 35.85 85.5164 35.85Z" fill="#003A4D"/>
</svg>
