<svg width="25" height="25" viewBox="0 0 25 25" fill="none" xmlns="http://www.w3.org/2000/svg">
<g opacity="0.35">
<path d="M15.5818 12.0123L7.28003 10.5498V21.3566C7.27993 21.474 7.30302 21.5903 7.34797 21.6989C7.39291 21.8074 7.45884 21.9059 7.54197 21.9889C7.62509 22.0719 7.72378 22.1377 7.83237 22.1824C7.94096 22.2272 8.05732 22.2501 8.17478 22.2498H22.4998C22.6174 22.2503 22.7339 22.2276 22.8426 22.1829C22.9514 22.1382 23.0503 22.0725 23.1336 21.9895C23.2168 21.9065 23.2829 21.8078 23.328 21.6992C23.373 21.5906 23.3961 21.4741 23.396 21.3566V17.3748L15.5818 12.0123Z" fill="#185C37"/>
<path d="M15.5818 2.75H8.17478C8.05732 2.74971 7.94096 2.7726 7.83237 2.81736C7.72378 2.86213 7.62509 2.92789 7.54197 3.01088C7.45884 3.09386 7.39291 3.19244 7.34797 3.30096C7.30302 3.40947 7.27993 3.5258 7.28003 3.64325V7.625L15.5818 12.5L19.9775 13.9625L23.396 12.5V7.625L15.5818 2.75Z" fill="#21A366"/>
<path d="M7.28003 7.625H15.5818V12.5H7.28003V7.625Z" fill="#107C41"/>
<path opacity="0.1" d="M13.2215 6.6499H7.28003V18.8374H13.2215C13.4583 18.8362 13.685 18.7418 13.8526 18.5746C14.0203 18.4074 14.1153 18.1809 14.117 17.9442V7.54315C14.1153 7.30641 14.0203 7.07989 13.8526 6.9127C13.685 6.7455 13.4583 6.65108 13.2215 6.6499Z" fill="black"/>
<path opacity="0.2" d="M12.7333 7.1377H7.28003V19.3252H12.7333C12.97 19.324 13.1968 19.2296 13.3644 19.0624C13.532 18.8952 13.627 18.6687 13.6288 18.4319V8.03095C13.627 7.7942 13.532 7.56769 13.3644 7.40049C13.1968 7.23329 12.97 7.13887 12.7333 7.1377Z" fill="black"/>
<path opacity="0.2" d="M12.7333 7.1377H7.28003V18.3502H12.7333C12.97 18.349 13.1968 18.2546 13.3644 18.0874C13.532 17.9202 13.627 17.6937 13.6288 17.4569V8.03095C13.627 7.7942 13.532 7.56769 13.3644 7.40049C13.1968 7.23329 12.97 7.13887 12.7333 7.1377Z" fill="black"/>
<path opacity="0.2" d="M12.245 7.1377H7.28003V18.3502H12.245C12.4818 18.349 12.7085 18.2546 12.8761 18.0874C13.0438 17.9202 13.1388 17.6937 13.1405 17.4569V8.03095C13.1388 7.7942 13.0438 7.56769 12.8761 7.40049C12.7085 7.23329 12.4818 7.13887 12.245 7.1377Z" fill="black"/>
<path d="M3.2915 7.1377H12.245C12.4822 7.1375 12.7097 7.23148 12.8776 7.39897C13.0456 7.56647 13.1401 7.79378 13.1405 8.03095V16.9695C13.1401 17.2066 13.0456 17.4339 12.8776 17.6014C12.7097 17.7689 12.4822 17.8629 12.245 17.8627H3.2915C3.17398 17.8631 3.05754 17.8403 2.94886 17.7956C2.84018 17.7508 2.7414 17.6851 2.6582 17.6021C2.57499 17.5191 2.509 17.4205 2.464 17.3119C2.41901 17.2034 2.3959 17.087 2.396 16.9695V8.03095C2.3959 7.91343 2.41901 7.79705 2.464 7.68848C2.509 7.57991 2.57499 7.4813 2.6582 7.39831C2.7414 7.31531 2.84018 7.24957 2.94886 7.20485C3.05754 7.16012 3.17398 7.13731 3.2915 7.1377Z" fill="url(#paint0_linear_21381_104239)"/>
<path d="M5.1709 15.4047L7.05415 12.4917L5.32915 9.59521H6.7144L7.65565 11.45C7.74265 11.6255 7.80565 11.756 7.83415 11.843H7.8469C7.9084 11.7025 7.9734 11.566 8.0419 11.4335L9.0484 9.59821H10.3234L8.55415 12.4782L10.3684 15.407H9.01165L7.92415 13.3737C7.8738 13.2862 7.8309 13.1946 7.7959 13.1H7.7779C7.74611 13.1922 7.70384 13.2806 7.6519 13.3632L6.53215 15.4047H5.1709Z" fill="white"/>
<path d="M22.5005 2.75001H15.5818V7.625H23.396V3.64325C23.3961 3.52573 23.373 3.40935 23.328 3.30079C23.283 3.19222 23.217 3.09361 23.1338 3.01061C23.0506 2.92762 22.9519 2.86187 22.8432 2.81715C22.7345 2.77243 22.6181 2.74961 22.5005 2.75001Z" fill="#33C481"/>
<path d="M15.5818 12.5H23.396V17.375H15.5818V12.5Z" fill="#107C41"/>
</g>
<defs>
<linearGradient id="paint0_linear_21381_104239" x1="4.2665" y1="6.4357" x2="11.27" y2="18.5647" gradientUnits="userSpaceOnUse">
<stop stop-color="#18884F"/>
<stop offset="0.5" stop-color="#117E43"/>
<stop offset="1" stop-color="#0B6631"/>
</linearGradient>
</defs>
</svg>
