<svg width="507" height="100" viewBox="0 0 507 100" fill="none" xmlns="http://www.w3.org/2000/svg">
<g clip-path="url(#clip0_2033_46)">
<path d="M182.837 72.9852C185.524 72.9852 187.703 70.8081 187.703 68.1226C187.703 65.4371 185.524 63.26 182.837 63.26C180.15 63.26 177.972 65.4371 177.972 68.1226C177.972 70.8081 180.15 72.9852 182.837 72.9852Z" fill="url(#paint0_linear_2033_46)"/>
<path d="M161.977 30.6976C164.213 32.9323 165.597 36.0229 165.597 39.4466C165.597 44.4433 162.635 48.7877 158.357 50.7587C157.237 51.2861 156.052 51.6146 154.802 51.7441C154.672 51.7441 154.538 51.7441 154.408 51.7441V51.8089H132.363V72.985H124.137V26.95H153.158C156.579 26.95 159.672 28.3288 161.912 30.5681L161.977 30.6976ZM154.936 43.2589C156.45 42.6019 157.436 41.089 157.436 39.4419C157.436 37.929 156.644 36.8788 156.186 36.4161C155.658 35.8887 154.672 35.2317 153.223 35.2317H132.363V43.7216H153.223C153.816 43.7216 154.408 43.592 154.936 43.3283V43.2589ZM206.331 72.985H197.119L192.906 64.7635L182.837 45.0309L172.768 64.7635L168.556 72.985H159.343L163.556 64.7635L182.837 26.9454L202.119 64.7635L206.331 72.985ZM200.146 72.985H200.276L200.146 73.1145V72.985ZM246.209 26.8853L228.376 49.9675L227.39 51.2167V72.9202H219.164V51.3463L218.044 49.9675L200.211 26.8853H210.609L223.242 43.2635L235.876 26.8853H246.209ZM246.144 72.985H246.209V73.1145L246.144 72.985ZM298.923 26.95V72.985H290.697V43.6522L282.6 49.8333L275.888 55.0291L269.175 49.8333L261.078 43.6522V72.985H252.857V26.95L261.083 33.2654L275.888 44.6423L290.692 33.2654L298.923 26.95ZM313.728 39.3772V43.6522H343.342V51.8737H313.728V60.5532C313.728 62.8573 315.635 64.7635 317.941 64.7635H351.569V72.985H317.941C311.099 72.985 305.571 67.396 305.571 60.5532V39.3772C305.571 32.539 311.099 26.9454 317.941 26.9454H351.569V35.1669H317.941C315.635 35.1716 313.728 37.0777 313.728 39.3772ZM404.214 27.0148V73.0544L395.988 66.7391L366.373 43.9159V73.0498H358.147V27.1443L366.373 33.4597L395.988 56.2829V26.95L404.214 27.0148ZM456.79 27.0148V35.2363H437.902V73.0544H429.676V35.2363H410.788V27.0148H456.79ZM498.774 39.7056V39.4419C498.774 37.1425 496.866 35.2317 494.561 35.2317H475.872C473.571 35.2317 471.659 37.1379 471.659 39.4419V39.7056C471.659 42.0051 473.567 43.9159 475.872 43.9159H492.454C496.732 43.9159 500.547 45.7573 503.181 48.6489C503.38 48.8479 503.509 49.0422 503.708 49.2411C505.75 51.7395 507 54.9643 507 58.4481C507 66.4707 500.486 72.985 492.454 72.985H478.043C470.016 72.985 463.498 66.4753 463.498 58.4481H471.724C471.724 61.932 474.553 64.7635 478.043 64.7635H492.454C495.94 64.7635 498.838 61.9366 498.838 58.4481C498.838 54.9643 495.945 52.1328 492.454 52.1328H475.872C472.516 52.1328 469.488 50.8188 467.252 48.6489C466.66 48.0567 466.132 47.3997 465.674 46.678C464.289 44.707 463.502 42.2734 463.502 39.6409V39.3772C463.502 32.539 469.03 26.9454 475.872 26.9454H494.561C501.403 26.9454 507 32.5344 507 39.3772V39.6409L498.774 39.7056Z" fill="#003A4D"/>
<path d="M99.9539 45.3284V50C99.9539 77.6133 77.4747 100.046 49.8615 99.9999C22.4332 99.9074 0.0927913 77.5208 0.000284495 50.0925C-0.0922223 22.4792 22.3869 0 50.0002 0C62.8124 0 75.0233 4.85661 84.3202 13.6448C85.6153 14.8474 86.8179 16.1424 87.9743 17.4838C88.2055 17.7151 88.298 18.0388 88.298 18.3164C88.298 18.6864 88.1593 19.0564 87.8355 19.3339L80.0187 25.9944C79.4636 26.457 78.6311 26.4107 78.1685 25.8557C77.336 24.8843 76.4109 23.913 75.4858 23.0342C68.5941 16.5125 59.5284 12.9047 50.0465 12.9047C29.6025 12.9047 12.9512 29.5559 12.9512 50C12.9512 70.444 29.6025 87.0952 50.0465 87.0952C68.039 87.0952 83.4877 74.0518 86.5404 56.4754H77.7985C78.261 54.394 78.5386 52.2201 78.5386 50.0462C78.5386 47.8723 78.3073 45.6521 77.7985 43.5707H98.2425C99.1676 43.5245 99.9539 44.3108 99.9539 45.3284Z" fill="#003A4D"/>
<path d="M61.241 60.7749C58.4196 63.7351 54.3955 65.5853 50.0014 65.5853C44.9136 65.5853 40.3807 63.1338 37.513 59.3411C36.8655 58.4622 36.2642 57.4909 35.8016 56.4733H32.4251C29.0024 56.4733 26.2734 59.2485 26.2734 62.625V65.7703C26.3659 65.909 26.4585 66.094 26.5972 66.2328C31.7313 73.6796 40.3345 78.5362 50.0477 78.5362C57.1707 78.5362 63.6462 75.8998 68.6416 71.5982C74.7008 66.3716 78.5398 58.6472 78.5398 50.0441C78.5398 34.3179 65.7739 21.552 50.0477 21.552C45.9311 21.552 41.9071 22.4308 38.2068 24.0959C37.3743 24.466 37.0967 25.4835 37.6055 26.2236L43.4335 34.688C43.8035 35.1968 44.451 35.428 45.0523 35.243C46.6249 34.7342 48.2901 34.4567 50.0014 34.4567C58.6046 34.4567 65.5888 41.441 65.5888 50.0441C65.5888 54.1607 63.9237 57.9534 61.241 60.7749Z" fill="url(#paint1_linear_2033_46)"/>
<path d="M27.937 43.5261H46.3459C46.9009 43.5261 47.4097 43.8036 47.6873 44.2662L54.209 53.8869C54.949 54.997 54.1627 56.4771 52.8676 56.4771H35.8001H32.4236C29.0009 56.4771 26.2719 59.2523 26.2719 62.6288V65.774C23.2654 61.2412 21.5078 55.8295 21.5078 50.0016C21.5078 46.3938 24.3755 43.5261 27.937 43.5261Z" fill="#FC9D74"/>
</g>
<defs>
<linearGradient id="paint0_linear_2033_46" x1="182.837" y1="63.26" x2="182.837" y2="72.9852" gradientUnits="userSpaceOnUse">
<stop stop-color="#FC9D74"/>
<stop offset="1" stop-color="#FE7940"/>
</linearGradient>
<linearGradient id="paint1_linear_2033_46" x1="29.0321" y1="46.2885" x2="78.0516" y2="54.9319" gradientUnits="userSpaceOnUse">
<stop stop-color="#DB5A00"/>
<stop offset="0.1201" stop-color="#FC9D74"/>
</linearGradient>
<clipPath id="clip0_2033_46">
<rect width="507" height="100" fill="white"/>
</clipPath>
</defs>
</svg>
