<svg width="50" height="51" viewBox="0 0 50 51" fill="none" xmlns="http://www.w3.org/2000/svg">
<g id="Group">
<path id="Vector" d="M50.0001 22.6747V25.0116C50.0001 38.8246 38.7553 50.0463 24.9423 50.0231C11.2218 49.9769 0.0464172 38.7783 0.000142313 25.0578C-0.0461326 11.2448 11.1987 0 25.0117 0C31.4208 0 37.5291 2.42943 42.1797 6.82554C42.8275 7.42712 43.4291 8.07496 44.0075 8.74595C44.1232 8.86164 44.1695 9.0236 44.1695 9.16242C44.1695 9.34752 44.1001 9.53262 43.9381 9.67145L40.0279 13.0032C39.7503 13.2346 39.3338 13.2115 39.1024 12.9338C38.6859 12.4479 38.2232 11.9621 37.7604 11.5224C34.313 8.26006 29.778 6.45534 25.0348 6.45534C14.8081 6.45534 6.47862 14.7848 6.47862 25.0116C6.47862 35.2383 14.8081 43.5678 25.0348 43.5678C34.0353 43.5678 41.7632 37.043 43.2903 28.2508H38.9173C39.1487 27.2096 39.2875 26.1222 39.2875 25.0347C39.2875 23.9472 39.1718 22.8366 38.9173 21.7955H49.1441C49.6068 21.7723 50.0001 22.1657 50.0001 22.6747Z" fill="#003A4D"/>
<path id="Vector_2" d="M30.634 30.4028C29.2226 31.8836 27.2097 32.8091 25.0116 32.8091C22.4665 32.8091 20.199 31.5828 18.7645 29.6855C18.4406 29.2459 18.1398 28.76 17.9084 28.251H16.2194C14.5072 28.251 13.1421 29.6392 13.1421 31.3283V32.9016C13.1884 32.971 13.2346 33.0636 13.3041 33.133C15.8723 36.8581 20.1759 39.2875 25.0347 39.2875C28.5979 39.2875 31.8371 37.9687 34.336 35.8169C37.367 33.2024 39.2874 29.3384 39.2874 25.0349C39.2874 17.1682 32.9015 10.7822 25.0347 10.7822C22.9755 10.7822 20.9625 11.2218 19.1115 12.0548C18.6951 12.2399 18.5563 12.7489 18.8108 13.1191L21.7261 17.3533C21.9112 17.6078 22.2351 17.7235 22.5359 17.6309C23.3226 17.3764 24.1555 17.2376 25.0116 17.2376C29.3152 17.2376 32.8089 20.7313 32.8089 25.0349C32.8089 27.0941 31.976 28.9914 30.634 30.4028Z" fill="url(#paint0_linear_23272_50945)"/>
<path id="Vector_3" d="M13.9751 21.7725H23.1838C23.4615 21.7725 23.716 21.9113 23.8548 22.1427L27.1172 26.9552C27.4874 27.5105 27.0941 28.2509 26.4462 28.2509H17.9085H16.2195C14.5073 28.2509 13.1422 29.6392 13.1422 31.3282V32.9016C11.6383 30.6341 10.759 27.927 10.759 25.0117C10.759 23.207 12.1936 21.7725 13.9751 21.7725Z" fill="#FC9D74"/>
</g>
<defs>
<linearGradient id="paint0_linear_23272_50945" x1="14.5221" y1="23.1562" x2="39.0432" y2="27.4799" gradientUnits="userSpaceOnUse">
<stop stop-color="#DB5A00"/>
<stop offset="0.1201" stop-color="#FF9966"/>
</linearGradient>
</defs>
</svg>
