<svg width="30" height="31" viewBox="0 0 30 31" fill="none" xmlns="http://www.w3.org/2000/svg">
<path d="M30.0001 13.6048V15.0069C30.0001 23.2948 23.2532 30.0278 14.9654 30.0139C6.73308 29.9861 0.0278503 23.267 8.53881e-05 15.0347C-0.0276795 6.74688 6.71919 0 15.007 0C18.8525 0 22.5174 1.45766 25.3078 4.09533C25.6965 4.45627 26.0575 4.84498 26.4045 5.24757C26.4739 5.31698 26.5017 5.41416 26.5017 5.49746C26.5017 5.60851 26.46 5.71957 26.3629 5.80287L24.0167 7.80194C23.8501 7.94077 23.6003 7.92689 23.4614 7.7603C23.2115 7.46877 22.9339 7.17723 22.6563 6.91347C20.5878 4.95604 17.8668 3.87321 15.0209 3.87321C8.88486 3.87321 3.88717 8.87089 3.88717 15.0069C3.88717 21.143 8.88486 26.1407 15.0209 26.1407C20.4212 26.1407 25.0579 22.2258 25.9742 16.9505H23.3504C23.4892 16.3258 23.5725 15.6733 23.5725 15.0208C23.5725 14.3683 23.5031 13.702 23.3504 13.0773H29.4864C29.7641 13.0634 30.0001 13.2994 30.0001 13.6048Z" fill="white"/>
<path d="M18.3809 18.2411C17.534 19.1296 16.3263 19.6849 15.0074 19.6849C13.4804 19.6849 12.1199 18.9491 11.2592 17.8107C11.0648 17.547 10.8844 17.2554 10.7455 16.95H9.73211C8.70481 16.95 7.88574 17.783 7.88574 18.7964V19.7404C7.91351 19.782 7.94127 19.8376 7.98292 19.8792C9.52387 22.1143 12.106 23.5719 15.0213 23.5719C17.1592 23.5719 19.1028 22.7806 20.6021 21.4896C22.4207 19.9209 23.5729 17.6025 23.5729 15.0203C23.5729 10.3003 19.7414 6.46875 15.0213 6.46875C13.7858 6.46875 12.578 6.73252 11.4674 7.23229C11.2175 7.34335 11.1342 7.64876 11.2869 7.87088L13.0361 10.4114C13.1472 10.5641 13.3415 10.6335 13.522 10.578C13.994 10.4253 14.4938 10.342 15.0074 10.342C17.5896 10.342 19.6858 12.4382 19.6858 15.0203C19.6858 16.2559 19.1861 17.3942 18.3809 18.2411Z" fill="url(#paint0_linear_23277_107963)"/>
<path d="M8.38474 13.0635H13.91C14.0765 13.0635 14.2293 13.1468 14.3126 13.2856L16.27 16.1731C16.4921 16.5063 16.2561 16.9506 15.8674 16.9506H10.7448H9.73134C8.70404 16.9506 7.88497 17.7835 7.88497 18.7969V19.7409C6.98261 18.3805 6.45508 16.7562 6.45508 15.007C6.45508 13.9242 7.31579 13.0635 8.38474 13.0635Z" fill="#FC9D74"/>
<defs>
<linearGradient id="paint0_linear_23277_107963" x1="8.71373" y1="13.8931" x2="23.4264" y2="16.4874" gradientUnits="userSpaceOnUse">
<stop stop-color="#DB5A00"/>
<stop offset="0.1201" stop-color="#FF9966"/>
</linearGradient>
</defs>
</svg>
