<svg width="88" height="23" viewBox="0 0 88 23" fill="none" xmlns="http://www.w3.org/2000/svg">
<path d="M50.8079 8.62527C50.3812 8.62527 49.9865 8.55594 49.6239 8.41727C49.2665 8.27327 48.9545 8.07327 48.6879 7.81727C48.4265 7.56127 48.2212 7.25994 48.0719 6.91327C47.9279 6.5666 47.8559 6.18794 47.8559 5.77727C47.8559 5.3666 47.9279 4.98794 48.0719 4.64127C48.2212 4.2946 48.4292 3.99327 48.6959 3.73727C48.9625 3.48127 49.2745 3.28394 49.6319 3.14527C49.9945 3.00127 50.3892 2.92927 50.8159 2.92927C51.2425 2.92927 51.6319 2.99594 51.9839 3.12927C52.3412 3.2626 52.6452 3.46527 52.8959 3.73727L52.5279 4.11327C52.2932 3.8786 52.0345 3.7106 51.7519 3.60927C51.4692 3.50794 51.1652 3.45727 50.8399 3.45727C50.4932 3.45727 50.1732 3.51594 49.8799 3.63327C49.5919 3.74527 49.3385 3.90794 49.1199 4.12127C48.9065 4.32927 48.7385 4.5746 48.6159 4.85727C48.4985 5.1346 48.4399 5.44127 48.4399 5.77727C48.4399 6.10794 48.4985 6.4146 48.6159 6.69727C48.7385 6.97994 48.9065 7.22794 49.1199 7.44127C49.3385 7.64927 49.5919 7.81194 49.8799 7.92927C50.1732 8.04127 50.4905 8.09727 50.8319 8.09727C51.1519 8.09727 51.4532 8.04927 51.7359 7.95327C52.0239 7.85727 52.2879 7.6946 52.5279 7.46527L52.8639 7.91327C52.5972 8.14794 52.2852 8.3266 51.9279 8.44927C51.5705 8.5666 51.1972 8.62527 50.8079 8.62527ZM52.2959 7.84127V5.77727H52.8639V7.91327L52.2959 7.84127ZM54.4194 8.57727V2.64127H54.9874V8.57727H54.4194ZM58.2798 8.61727C57.8745 8.61727 57.5092 8.5266 57.1838 8.34527C56.8638 8.1586 56.6105 7.90527 56.4238 7.58527C56.2372 7.25994 56.1438 6.88927 56.1438 6.47327C56.1438 6.05194 56.2372 5.68127 56.4238 5.36127C56.6105 5.04127 56.8638 4.7906 57.1838 4.60927C57.5038 4.42794 57.8692 4.33727 58.2798 4.33727C58.6958 4.33727 59.0638 4.42794 59.3838 4.60927C59.7092 4.7906 59.9625 5.04127 60.1438 5.36127C60.3305 5.68127 60.4238 6.05194 60.4238 6.47327C60.4238 6.88927 60.3305 7.25994 60.1438 7.58527C59.9625 7.90527 59.7092 8.1586 59.3838 8.34527C59.0585 8.5266 58.6905 8.61727 58.2798 8.61727ZM58.2798 8.11327C58.5838 8.11327 58.8532 8.0466 59.0878 7.91327C59.3225 7.7746 59.5065 7.5826 59.6398 7.33727C59.7785 7.0866 59.8478 6.7986 59.8478 6.47327C59.8478 6.1426 59.7785 5.8546 59.6398 5.60927C59.5065 5.36394 59.3225 5.1746 59.0878 5.04127C58.8532 4.9026 58.5865 4.83327 58.2878 4.83327C57.9892 4.83327 57.7225 4.9026 57.4878 5.04127C57.2532 5.1746 57.0665 5.36394 56.9278 5.60927C56.7892 5.8546 56.7198 6.1426 56.7198 6.47327C56.7198 6.7986 56.7892 7.0866 56.9278 7.33727C57.0665 7.5826 57.2532 7.7746 57.4878 7.91327C57.7225 8.0466 57.9865 8.11327 58.2798 8.11327ZM63.7514 8.61727C63.3834 8.61727 63.0528 8.5346 62.7594 8.36927C62.4661 8.1986 62.2341 7.95327 62.0634 7.63327C61.8928 7.31327 61.8074 6.9266 61.8074 6.47327C61.8074 6.0146 61.8928 5.62794 62.0634 5.31327C62.2394 4.99327 62.4741 4.7506 62.7674 4.58527C63.0608 4.41994 63.3888 4.33727 63.7514 4.33727C64.1514 4.33727 64.5088 4.42794 64.8234 4.60927C65.1434 4.78527 65.3941 5.03327 65.5754 5.35327C65.7568 5.67327 65.8474 6.0466 65.8474 6.47327C65.8474 6.8946 65.7568 7.26794 65.5754 7.59327C65.3941 7.91327 65.1434 8.16394 64.8234 8.34527C64.5088 8.5266 64.1514 8.61727 63.7514 8.61727ZM61.5834 8.57727V2.64127H62.1514V5.61727L62.0714 6.46527L62.1274 7.31327V8.57727H61.5834ZM63.7114 8.11327C64.0101 8.11327 64.2768 8.0466 64.5114 7.91327C64.7461 7.7746 64.9328 7.5826 65.0714 7.33727C65.2101 7.0866 65.2794 6.7986 65.2794 6.47327C65.2794 6.1426 65.2101 5.8546 65.0714 5.60927C64.9328 5.36394 64.7461 5.1746 64.5114 5.04127C64.2768 4.9026 64.0101 4.83327 63.7114 4.83327C63.4128 4.83327 63.1434 4.9026 62.9034 5.04127C62.6688 5.1746 62.4821 5.36394 62.3434 5.60927C62.2101 5.8546 62.1434 6.1426 62.1434 6.47327C62.1434 6.7986 62.2101 7.0866 62.3434 7.33727C62.4821 7.5826 62.6688 7.7746 62.9034 7.91327C63.1434 8.0466 63.4128 8.11327 63.7114 8.11327ZM69.6139 8.57727V7.64927L69.5899 7.49727V5.94527C69.5899 5.58794 69.4885 5.31327 69.2859 5.12127C69.0885 4.92927 68.7925 4.83327 68.3979 4.83327C68.1259 4.83327 67.8672 4.8786 67.6219 4.96927C67.3765 5.05994 67.1685 5.17994 66.9979 5.32927L66.7419 4.90527C66.9552 4.72394 67.2112 4.58527 67.5099 4.48927C67.8085 4.38794 68.1232 4.33727 68.4539 4.33727C68.9979 4.33727 69.4165 4.47327 69.7099 4.74527C70.0085 5.01194 70.1579 5.41994 70.1579 5.96927V8.57727H69.6139ZM68.1659 8.61727C67.8512 8.61727 67.5765 8.5666 67.3419 8.46527C67.1125 8.3586 66.9365 8.2146 66.8139 8.03327C66.6912 7.8466 66.6299 7.63327 66.6299 7.39327C66.6299 7.1746 66.6805 6.97727 66.7819 6.80127C66.8885 6.61994 67.0592 6.47594 67.2939 6.36927C67.5339 6.25727 67.8539 6.20127 68.2539 6.20127H69.7019V6.62527H68.2699C67.8645 6.62527 67.5819 6.69727 67.4219 6.84127C67.2672 6.98527 67.1899 7.16394 67.1899 7.37727C67.1899 7.61727 67.2832 7.80927 67.4699 7.95327C67.6565 8.09727 67.9179 8.16927 68.2539 8.16927C68.5739 8.16927 68.8485 8.09727 69.0779 7.95327C69.3125 7.80394 69.4832 7.5906 69.5899 7.31327L69.7179 7.70527C69.6112 7.9826 69.4245 8.20394 69.1579 8.36927C68.8965 8.5346 68.5659 8.61727 68.1659 8.61727ZM71.7006 8.57727V2.64127H72.2686V8.57727H71.7006ZM75.1451 8.62527C74.7397 8.62527 74.3557 8.56127 73.9931 8.43327C73.6357 8.29994 73.3477 8.12394 73.1291 7.90527L73.4091 7.44927C73.5904 7.63594 73.8331 7.7906 74.1371 7.91327C74.4464 8.03594 74.7824 8.09727 75.1451 8.09727C75.6091 8.09727 75.9637 7.99594 76.2091 7.79327C76.4597 7.5906 76.5851 7.3186 76.5851 6.97727C76.5851 6.63594 76.4624 6.36394 76.2171 6.16127C75.9771 5.9586 75.5957 5.85727 75.0731 5.85727H74.6731V5.43327L76.4011 3.26527L76.4811 3.48927H73.3611V2.97727H76.9611V3.38527L75.2331 5.55327L74.9531 5.36927H75.1691C75.8411 5.36927 76.3424 5.5186 76.6731 5.81727C77.0091 6.11594 77.1771 6.49994 77.1771 6.96927C77.1771 7.28394 77.1024 7.5666 76.9531 7.81727C76.8037 8.06794 76.5771 8.26527 76.2731 8.40927C75.9744 8.55327 75.5984 8.62527 75.1451 8.62527ZM80.2847 8.62527C79.7887 8.62527 79.37 8.51594 79.0287 8.29727C78.6874 8.07327 78.4287 7.75327 78.2527 7.33727C78.0767 6.91594 77.9887 6.41194 77.9887 5.82527C77.9887 5.1906 78.0954 4.65994 78.3087 4.23327C78.5274 3.80127 78.8287 3.47594 79.2127 3.25727C79.5967 3.0386 80.042 2.92927 80.5487 2.92927C80.7994 2.92927 81.0394 2.95327 81.2687 3.00127C81.498 3.04927 81.7007 3.1266 81.8767 3.23327L81.6447 3.69727C81.5007 3.60127 81.3354 3.5346 81.1487 3.49727C80.962 3.4546 80.7647 3.43327 80.5567 3.43327C79.954 3.43327 79.4714 3.62527 79.1087 4.00927C78.7514 4.39327 78.5727 4.9666 78.5727 5.72927C78.5727 5.8466 78.578 5.99327 78.5887 6.16927C78.6047 6.33994 78.6367 6.5106 78.6847 6.68127L78.4847 6.52927C78.5434 6.25194 78.658 6.01727 78.8287 5.82527C78.9994 5.62794 79.2127 5.4786 79.4687 5.37727C79.7247 5.27594 80.0047 5.22527 80.3087 5.22527C80.682 5.22527 81.01 5.2946 81.2927 5.43327C81.5754 5.57194 81.7967 5.7666 81.9567 6.01727C82.1167 6.26794 82.1967 6.56394 82.1967 6.90527C82.1967 7.25194 82.114 7.55594 81.9487 7.81727C81.7834 8.07327 81.554 8.27327 81.2607 8.41727C80.9727 8.55594 80.6474 8.62527 80.2847 8.62527ZM80.2607 8.13727C80.5274 8.13727 80.762 8.08927 80.9647 7.99327C81.1727 7.89194 81.3354 7.7506 81.4527 7.56927C81.57 7.3826 81.6287 7.1666 81.6287 6.92127C81.6287 6.55327 81.5007 6.25994 81.2447 6.04127C80.994 5.8226 80.6527 5.71327 80.2207 5.71327C79.9327 5.71327 79.682 5.7666 79.4687 5.87327C79.2554 5.97994 79.0874 6.1266 78.9647 6.31327C78.842 6.4946 78.7807 6.7026 78.7807 6.93727C78.7807 7.13994 78.8367 7.3346 78.9487 7.52127C79.0607 7.7026 79.226 7.85194 79.4447 7.96927C79.6687 8.08127 79.9407 8.13727 80.2607 8.13727ZM84.6317 8.62527C84.2317 8.62527 83.8504 8.56127 83.4877 8.43327C83.125 8.29994 82.837 8.12394 82.6237 7.90527L82.9037 7.44927C83.0797 7.63594 83.3197 7.7906 83.6237 7.91327C83.933 8.03594 84.2664 8.09727 84.6237 8.09727C85.0984 8.09727 85.4584 7.99327 85.7037 7.78527C85.9544 7.57194 86.0797 7.2946 86.0797 6.95327C86.0797 6.71327 86.021 6.50794 85.9037 6.33727C85.7917 6.16127 85.5997 6.02527 85.3277 5.92927C85.0557 5.83327 84.6824 5.78527 84.2077 5.78527H83.0157L83.3037 2.97727H86.3677V3.48927H83.5357L83.8317 3.20927L83.5837 5.56127L83.2877 5.27327H84.3357C84.901 5.27327 85.3544 5.3426 85.6957 5.48127C86.037 5.61994 86.2824 5.8146 86.4317 6.06527C86.5864 6.3106 86.6637 6.5986 86.6637 6.92927C86.6637 7.24394 86.589 7.53194 86.4397 7.79327C86.2904 8.04927 86.0664 8.25194 85.7677 8.40127C85.469 8.5506 85.0904 8.62527 84.6317 8.62527Z" fill="#FC9D74"/>
<path d="M2.13989 20.5773L0.571886 16.3053H1.51589L2.85989 20.0733H2.41189L3.81989 16.3053H4.65989L6.02789 20.0733H5.58789L6.97189 16.3053H7.85989L6.28389 20.5773H5.32389L4.07589 17.2413H4.37189L3.09989 20.5773H2.13989ZM9.41332 20.5773L7.84532 16.3053H8.78932L10.1333 20.0733H9.68532L11.0933 16.3053H11.9333L13.3013 20.0733H12.8613L14.2453 16.3053H15.1333L13.5573 20.5773H12.5973L11.3493 17.2413H11.6453L10.3733 20.5773H9.41332ZM16.6868 20.5773L15.1188 16.3053H16.0628L17.4068 20.0733H16.9588L18.3668 16.3053H19.2068L20.5748 20.0733H20.1348L21.5188 16.3053H22.4068L20.8308 20.5773H19.8708L18.6228 17.2413H18.9188L17.6468 20.5773H16.6868ZM23.1487 20.6333C22.9674 20.6333 22.8127 20.5719 22.6847 20.4493C22.5567 20.3213 22.4927 20.1613 22.4927 19.9693C22.4927 19.7666 22.5567 19.6066 22.6847 19.4893C22.8127 19.3666 22.9674 19.3053 23.1487 19.3053C23.33 19.3053 23.4847 19.3666 23.6127 19.4893C23.7407 19.6066 23.8047 19.7666 23.8047 19.9693C23.8047 20.1613 23.7407 20.3213 23.6127 20.4493C23.4847 20.5719 23.33 20.6333 23.1487 20.6333ZM26.6397 22.1853C26.245 22.1853 25.8584 22.1319 25.4797 22.0253C25.1064 21.9239 24.7997 21.7746 24.5597 21.5773L25.0077 20.8253C25.1944 20.9799 25.429 21.1026 25.7117 21.1933C25.9997 21.2893 26.2904 21.3373 26.5837 21.3373C27.053 21.3373 27.397 21.2279 27.6157 21.0093C27.8344 20.7959 27.9437 20.4733 27.9437 20.0413V19.2813L28.0237 18.3133L27.9917 17.3453V16.3053H28.9437V19.9293C28.9437 20.7026 28.7464 21.2706 28.3517 21.6333C27.957 22.0013 27.3864 22.1853 26.6397 22.1853ZM26.5117 20.3853C26.1064 20.3853 25.7384 20.2999 25.4077 20.1293C25.0824 19.9533 24.8237 19.7106 24.6317 19.4013C24.445 19.0919 24.3517 18.7293 24.3517 18.3133C24.3517 17.9026 24.445 17.5426 24.6317 17.2333C24.8237 16.9239 25.0824 16.6839 25.4077 16.5133C25.7384 16.3426 26.1064 16.2573 26.5117 16.2573C26.8744 16.2573 27.1997 16.3293 27.4877 16.4733C27.7757 16.6173 28.005 16.8413 28.1757 17.1453C28.3517 17.4493 28.4397 17.8386 28.4397 18.3133C28.4397 18.7879 28.3517 19.1799 28.1757 19.4893C28.005 19.7933 27.7757 20.0199 27.4877 20.1693C27.1997 20.3133 26.8744 20.3853 26.5117 20.3853ZM26.6637 19.5373C26.9144 19.5373 27.1384 19.4866 27.3357 19.3853C27.533 19.2786 27.685 19.1346 27.7917 18.9533C27.9037 18.7666 27.9597 18.5533 27.9597 18.3133C27.9597 18.0733 27.9037 17.8626 27.7917 17.6813C27.685 17.4946 27.533 17.3533 27.3357 17.2573C27.1384 17.1559 26.9144 17.1053 26.6637 17.1053C26.413 17.1053 26.1864 17.1559 25.9837 17.2573C25.7864 17.3533 25.6317 17.4946 25.5197 17.6813C25.413 17.8626 25.3597 18.0733 25.3597 18.3133C25.3597 18.5533 25.413 18.7666 25.5197 18.9533C25.6317 19.1346 25.7864 19.2786 25.9837 19.3853C26.1864 19.4866 26.413 19.5373 26.6637 19.5373ZM30.2584 20.5773V14.6413H31.2584V20.5773H30.2584ZM34.4909 20.6333C34.0536 20.6333 33.6642 20.5399 33.3229 20.3533C32.9816 20.1613 32.7122 19.8999 32.5149 19.5693C32.3176 19.2386 32.2189 18.8626 32.2189 18.4413C32.2189 18.0146 32.3176 17.6386 32.5149 17.3133C32.7122 16.9826 32.9816 16.7239 33.3229 16.5373C33.6642 16.3506 34.0536 16.2573 34.4909 16.2573C34.9336 16.2573 35.3256 16.3506 35.6669 16.5373C36.0136 16.7239 36.2829 16.9799 36.4749 17.3053C36.6722 17.6306 36.7709 18.0093 36.7709 18.4413C36.7709 18.8626 36.6722 19.2386 36.4749 19.5693C36.2829 19.8999 36.0136 20.1613 35.6669 20.3533C35.3256 20.5399 34.9336 20.6333 34.4909 20.6333ZM34.4909 19.7773C34.7362 19.7773 34.9549 19.7239 35.1469 19.6173C35.3389 19.5106 35.4882 19.3559 35.5949 19.1533C35.7069 18.9506 35.7629 18.7133 35.7629 18.4413C35.7629 18.1639 35.7069 17.9266 35.5949 17.7293C35.4882 17.5266 35.3389 17.3719 35.1469 17.2653C34.9549 17.1586 34.7389 17.1053 34.4989 17.1053C34.2536 17.1053 34.0349 17.1586 33.8429 17.2653C33.6562 17.3719 33.5069 17.5266 33.3949 17.7293C33.2829 17.9266 33.2269 18.1639 33.2269 18.4413C33.2269 18.7133 33.2829 18.9506 33.3949 19.1533C33.5069 19.3559 33.6562 19.5106 33.8429 19.6173C34.0349 19.7239 34.2509 19.7773 34.4909 19.7773ZM40.0951 20.6333C39.7325 20.6333 39.4098 20.5533 39.1271 20.3933C38.8445 20.2333 38.6205 19.9933 38.4551 19.6733C38.2951 19.3479 38.2151 18.9373 38.2151 18.4413C38.2151 17.9399 38.2978 17.5293 38.4631 17.2093C38.6338 16.8893 38.8605 16.6519 39.1431 16.4973C39.4311 16.3373 39.7485 16.2573 40.0951 16.2573C40.5165 16.2573 40.8871 16.3479 41.2071 16.5293C41.5325 16.7106 41.7885 16.9639 41.9751 17.2893C42.1671 17.6146 42.2631 17.9986 42.2631 18.4413C42.2631 18.8839 42.1671 19.2679 41.9751 19.5933C41.7885 19.9186 41.5325 20.1746 41.2071 20.3613C40.8871 20.5426 40.5165 20.6333 40.0951 20.6333ZM37.7271 20.5773V14.6413H38.7271V17.2973L38.6471 18.4333L38.6791 19.5693V20.5773H37.7271ZM39.9831 19.7773C40.2231 19.7773 40.4365 19.7239 40.6231 19.6173C40.8151 19.5106 40.9671 19.3559 41.0791 19.1533C41.1911 18.9506 41.2471 18.7133 41.2471 18.4413C41.2471 18.1639 41.1911 17.9266 41.0791 17.7293C40.9671 17.5266 40.8151 17.3719 40.6231 17.2653C40.4365 17.1586 40.2231 17.1053 39.9831 17.1053C39.7431 17.1053 39.5271 17.1586 39.3351 17.2653C39.1431 17.3719 38.9911 17.5266 38.8791 17.7293C38.7671 17.9266 38.7111 18.1639 38.7111 18.4413C38.7111 18.7133 38.7671 18.9506 38.8791 19.1533C38.9911 19.3559 39.1431 19.5106 39.3351 19.6173C39.5271 19.7239 39.7431 19.7773 39.9831 19.7773ZM45.7888 20.5773V19.7133L45.7328 19.5293V18.0173C45.7328 17.7239 45.6448 17.4973 45.4688 17.3373C45.2928 17.1719 45.0262 17.0893 44.6688 17.0893C44.4288 17.0893 44.1915 17.1266 43.9568 17.2013C43.7275 17.2759 43.5328 17.3799 43.3728 17.5133L42.9808 16.7853C43.2102 16.6093 43.4822 16.4786 43.7968 16.3933C44.1168 16.3026 44.4475 16.2573 44.7888 16.2573C45.4075 16.2573 45.8848 16.4066 46.2208 16.7053C46.5622 16.9986 46.7328 17.4546 46.7328 18.0733V20.5773H45.7888ZM44.4448 20.6333C44.1248 20.6333 43.8448 20.5799 43.6048 20.4733C43.3648 20.3613 43.1782 20.2093 43.0448 20.0173C42.9168 19.8199 42.8528 19.5986 42.8528 19.3533C42.8528 19.1133 42.9088 18.8973 43.0208 18.7053C43.1382 18.5133 43.3275 18.3613 43.5888 18.2493C43.8502 18.1373 44.1968 18.0813 44.6288 18.0813H45.8688V18.7453H44.7008C44.3595 18.7453 44.1302 18.8013 44.0128 18.9133C43.8955 19.0199 43.8368 19.1533 43.8368 19.3133C43.8368 19.4946 43.9088 19.6386 44.0528 19.7453C44.1968 19.8519 44.3968 19.9053 44.6528 19.9053C44.8982 19.9053 45.1168 19.8493 45.3088 19.7373C45.5062 19.6253 45.6475 19.4599 45.7328 19.2413L45.9008 19.8413C45.8048 20.0919 45.6315 20.2866 45.3808 20.4253C45.1355 20.5639 44.8235 20.6333 44.4448 20.6333ZM48.0162 20.5773V14.6413H49.0162V20.5773H48.0162ZM52.2647 22.1853C51.87 22.1853 51.4834 22.1319 51.1047 22.0253C50.7314 21.9239 50.4247 21.7746 50.1847 21.5773L50.6327 20.8253C50.8194 20.9799 51.054 21.1026 51.3367 21.1933C51.6247 21.2893 51.9154 21.3373 52.2087 21.3373C52.678 21.3373 53.022 21.2279 53.2407 21.0093C53.4594 20.7959 53.5687 20.4733 53.5687 20.0413V19.2813L53.6487 18.3133L53.6167 17.3453V16.3053H54.5687V19.9293C54.5687 20.7026 54.3714 21.2706 53.9767 21.6333C53.582 22.0013 53.0114 22.1853 52.2647 22.1853ZM52.1367 20.3853C51.7314 20.3853 51.3634 20.2999 51.0327 20.1293C50.7074 19.9533 50.4487 19.7106 50.2567 19.4013C50.07 19.0919 49.9767 18.7293 49.9767 18.3133C49.9767 17.9026 50.07 17.5426 50.2567 17.2333C50.4487 16.9239 50.7074 16.6839 51.0327 16.5133C51.3634 16.3426 51.7314 16.2573 52.1367 16.2573C52.4994 16.2573 52.8247 16.3293 53.1127 16.4733C53.4007 16.6173 53.63 16.8413 53.8007 17.1453C53.9767 17.4493 54.0647 17.8386 54.0647 18.3133C54.0647 18.7879 53.9767 19.1799 53.8007 19.4893C53.63 19.7933 53.4007 20.0199 53.1127 20.1693C52.8247 20.3133 52.4994 20.3853 52.1367 20.3853ZM52.2887 19.5373C52.5394 19.5373 52.7634 19.4866 52.9607 19.3853C53.158 19.2786 53.31 19.1346 53.4167 18.9533C53.5287 18.7666 53.5847 18.5533 53.5847 18.3133C53.5847 18.0733 53.5287 17.8626 53.4167 17.6813C53.31 17.4946 53.158 17.3533 52.9607 17.2573C52.7634 17.1559 52.5394 17.1053 52.2887 17.1053C52.038 17.1053 51.8114 17.1559 51.6087 17.2573C51.4114 17.3533 51.2567 17.4946 51.1447 17.6813C51.038 17.8626 50.9847 18.0733 50.9847 18.3133C50.9847 18.5533 51.038 18.7666 51.1447 18.9533C51.2567 19.1346 51.4114 19.2786 51.6087 19.3853C51.8114 19.4866 52.038 19.5373 52.2887 19.5373ZM55.8834 20.5773V16.3053H56.8354V17.4813L56.7234 17.1373C56.8514 16.8493 57.0514 16.6306 57.3234 16.4813C57.6007 16.3319 57.9447 16.2573 58.3554 16.2573V17.2093C58.3127 17.1986 58.2727 17.1933 58.2354 17.1933C58.1981 17.1879 58.1607 17.1853 58.1234 17.1853C57.7447 17.1853 57.4434 17.2973 57.2194 17.5213C56.9954 17.7399 56.8834 18.0679 56.8834 18.5053V20.5773H55.8834ZM61.0846 20.6333C60.6473 20.6333 60.258 20.5399 59.9166 20.3533C59.5753 20.1613 59.306 19.8999 59.1086 19.5693C58.9113 19.2386 58.8126 18.8626 58.8126 18.4413C58.8126 18.0146 58.9113 17.6386 59.1086 17.3133C59.306 16.9826 59.5753 16.7239 59.9166 16.5373C60.258 16.3506 60.6473 16.2573 61.0846 16.2573C61.5273 16.2573 61.9193 16.3506 62.2606 16.5373C62.6073 16.7239 62.8766 16.9799 63.0686 17.3053C63.266 17.6306 63.3646 18.0093 63.3646 18.4413C63.3646 18.8626 63.266 19.2386 63.0686 19.5693C62.8766 19.8999 62.6073 20.1613 62.2606 20.3533C61.9193 20.5399 61.5273 20.6333 61.0846 20.6333ZM61.0846 19.7773C61.33 19.7773 61.5486 19.7239 61.7406 19.6173C61.9326 19.5106 62.082 19.3559 62.1886 19.1533C62.3006 18.9506 62.3566 18.7133 62.3566 18.4413C62.3566 18.1639 62.3006 17.9266 62.1886 17.7293C62.082 17.5266 61.9326 17.3719 61.7406 17.2653C61.5486 17.1586 61.3326 17.1053 61.0926 17.1053C60.8473 17.1053 60.6286 17.1586 60.4366 17.2653C60.25 17.3719 60.1006 17.5266 59.9886 17.7293C59.8766 17.9266 59.8206 18.1639 59.8206 18.4413C59.8206 18.7133 59.8766 18.9506 59.9886 19.1533C60.1006 19.3559 60.25 19.5106 60.4366 19.6173C60.6286 19.7239 60.8446 19.7773 61.0846 19.7773ZM66.1289 20.6333C65.7662 20.6333 65.4462 20.5666 65.1689 20.4333C64.8916 20.2946 64.6756 20.0866 64.5209 19.8093C64.3662 19.5266 64.2889 19.1719 64.2889 18.7453V16.3053H65.2889V18.6093C65.2889 18.9933 65.3742 19.2813 65.5449 19.4733C65.7209 19.6599 65.9689 19.7533 66.2889 19.7533C66.5236 19.7533 66.7262 19.7053 66.8969 19.6093C67.0729 19.5133 67.2089 19.3693 67.3049 19.1773C67.4062 18.9853 67.4569 18.7479 67.4569 18.4653V16.3053H68.4569V20.5773H67.5049V19.4253L67.6729 19.7773C67.5289 20.0546 67.3182 20.2679 67.0409 20.4173C66.7636 20.5613 66.4596 20.6333 66.1289 20.6333ZM72.1342 20.6333C71.7875 20.6333 71.4702 20.5533 71.1822 20.3933C70.8995 20.2333 70.6729 19.9933 70.5022 19.6733C70.3369 19.3479 70.2542 18.9373 70.2542 18.4413C70.2542 17.9399 70.3342 17.5293 70.4942 17.2093C70.6595 16.8893 70.8835 16.6519 71.1662 16.4973C71.4489 16.3373 71.7715 16.2573 72.1342 16.2573C72.5555 16.2573 72.9262 16.3479 73.2462 16.5293C73.5715 16.7106 73.8275 16.9639 74.0142 17.2893C74.2062 17.6146 74.3022 17.9986 74.3022 18.4413C74.3022 18.8839 74.2062 19.2706 74.0142 19.6013C73.8275 19.9266 73.5715 20.1799 73.2462 20.3613C72.9262 20.5426 72.5555 20.6333 72.1342 20.6333ZM69.7662 22.1293V16.3053H70.7182V17.3133L70.6862 18.4493L70.7662 19.5853V22.1293H69.7662ZM72.0222 19.7773C72.2622 19.7773 72.4755 19.7239 72.6622 19.6173C72.8542 19.5106 73.0062 19.3559 73.1182 19.1533C73.2302 18.9506 73.2862 18.7133 73.2862 18.4413C73.2862 18.1639 73.2302 17.9266 73.1182 17.7293C73.0062 17.5266 72.8542 17.3719 72.6622 17.2653C72.4755 17.1586 72.2622 17.1053 72.0222 17.1053C71.7822 17.1053 71.5662 17.1586 71.3742 17.2653C71.1822 17.3719 71.0302 17.5266 70.9182 17.7293C70.8062 17.9266 70.7502 18.1639 70.7502 18.4413C70.7502 18.7133 70.8062 18.9506 70.9182 19.1533C71.0302 19.3559 71.1822 19.5106 71.3742 19.6173C71.5662 19.7239 71.7822 19.7773 72.0222 19.7773ZM75.4924 20.6333C75.3111 20.6333 75.1564 20.5719 75.0284 20.4493C74.9004 20.3213 74.8364 20.1613 74.8364 19.9693C74.8364 19.7666 74.9004 19.6066 75.0284 19.4893C75.1564 19.3666 75.3111 19.3053 75.4924 19.3053C75.6738 19.3053 75.8284 19.3666 75.9564 19.4893C76.0844 19.6066 76.1484 19.7666 76.1484 19.9693C76.1484 20.1613 76.0844 20.3213 75.9564 20.4493C75.8284 20.5719 75.6738 20.6333 75.4924 20.6333ZM79.0074 20.6333C78.5594 20.6333 78.1594 20.5399 77.8074 20.3533C77.4608 20.1613 77.1888 19.8999 76.9914 19.5693C76.7941 19.2386 76.6954 18.8626 76.6954 18.4413C76.6954 18.0146 76.7941 17.6386 76.9914 17.3133C77.1888 16.9826 77.4608 16.7239 77.8074 16.5373C78.1594 16.3506 78.5594 16.2573 79.0074 16.2573C79.4234 16.2573 79.7888 16.3426 80.1034 16.5133C80.4234 16.6786 80.6661 16.9239 80.8314 17.2493L80.0634 17.6973C79.9354 17.4946 79.7781 17.3453 79.5914 17.2493C79.4101 17.1533 79.2128 17.1053 78.9994 17.1053C78.7541 17.1053 78.5328 17.1586 78.3354 17.2653C78.1381 17.3719 77.9834 17.5266 77.8714 17.7293C77.7594 17.9266 77.7034 18.1639 77.7034 18.4413C77.7034 18.7186 77.7594 18.9586 77.8714 19.1613C77.9834 19.3586 78.1381 19.5106 78.3354 19.6173C78.5328 19.7239 78.7541 19.7773 78.9994 19.7773C79.2128 19.7773 79.4101 19.7293 79.5914 19.6333C79.7781 19.5373 79.9354 19.3879 80.0634 19.1853L80.8314 19.6333C80.6661 19.9533 80.4234 20.2013 80.1034 20.3773C79.7888 20.5479 79.4234 20.6333 79.0074 20.6333ZM83.5534 20.6333C83.1161 20.6333 82.7267 20.5399 82.3854 20.3533C82.0441 20.1613 81.7747 19.8999 81.5774 19.5693C81.3801 19.2386 81.2814 18.8626 81.2814 18.4413C81.2814 18.0146 81.3801 17.6386 81.5774 17.3133C81.7747 16.9826 82.0441 16.7239 82.3854 16.5373C82.7267 16.3506 83.1161 16.2573 83.5534 16.2573C83.9961 16.2573 84.3881 16.3506 84.7294 16.5373C85.0761 16.7239 85.3454 16.9799 85.5374 17.3053C85.7347 17.6306 85.8334 18.0093 85.8334 18.4413C85.8334 18.8626 85.7347 19.2386 85.5374 19.5693C85.3454 19.8999 85.0761 20.1613 84.7294 20.3533C84.3881 20.5399 83.9961 20.6333 83.5534 20.6333ZM83.5534 19.7773C83.7987 19.7773 84.0174 19.7239 84.2094 19.6173C84.4014 19.5106 84.5507 19.3559 84.6574 19.1533C84.7694 18.9506 84.8254 18.7133 84.8254 18.4413C84.8254 18.1639 84.7694 17.9266 84.6574 17.7293C84.5507 17.5266 84.4014 17.3719 84.2094 17.2653C84.0174 17.1586 83.8014 17.1053 83.5614 17.1053C83.3161 17.1053 83.0974 17.1586 82.9054 17.2653C82.7187 17.3719 82.5694 17.5266 82.4574 17.7293C82.3454 17.9266 82.2894 18.1639 82.2894 18.4413C82.2894 18.7133 82.3454 18.9506 82.4574 19.1533C82.5694 19.3559 82.7187 19.5106 82.9054 19.6173C83.0974 19.7239 83.3134 19.7773 83.5534 19.7773Z" fill="#1D1D1D"/>
</svg>
