<svg width="152" height="30" viewBox="0 0 152 30" fill="none" xmlns="http://www.w3.org/2000/svg">
<g clip-path="url(#clip0_31771_98333)">
<g clip-path="url(#clip1_31771_98333)">
<path d="M29.9998 13.6048V15.0069C29.9998 23.2948 23.253 30.0278 14.9651 30.0139C6.73283 29.9861 0.0276062 23.267 -0.000158753 15.0347C-0.0279237 6.74688 6.71895 0 15.0068 0C18.8522 0 22.5172 1.45766 25.3076 4.09533C25.6963 4.45627 26.0572 4.84498 26.4043 5.24757C26.4737 5.31698 26.5014 5.41416 26.5014 5.49746C26.5014 5.60851 26.4598 5.71957 26.3626 5.80287L24.0165 7.80194C23.8499 7.94077 23.6 7.92689 23.4612 7.7603C23.2113 7.46877 22.9337 7.17723 22.656 6.91347C20.5875 4.95604 17.8666 3.87321 15.0207 3.87321C8.88461 3.87321 3.88693 8.87089 3.88693 15.0069C3.88693 21.143 8.88461 26.1407 15.0207 26.1407C20.4209 26.1407 25.0577 22.2258 25.9739 16.9505H23.3501C23.489 16.3258 23.5723 15.6733 23.5723 15.0208C23.5723 14.3683 23.5028 13.702 23.3501 13.0773H29.4862C29.7638 13.0634 29.9998 13.2994 29.9998 13.6048Z" fill="white"/>
<path d="M18.3804 18.2416C17.5336 19.13 16.3258 19.6853 15.007 19.6853C13.4799 19.6853 12.1194 18.9496 11.2587 17.8112C11.0643 17.5474 10.8839 17.2559 10.745 16.9505H9.73162C8.70432 16.9505 7.88525 17.7834 7.88525 18.7969V19.7409C7.91302 19.7825 7.94078 19.838 7.98243 19.8797C9.52338 22.1148 12.1055 23.5724 15.0208 23.5724C17.1587 23.5724 19.1023 22.7811 20.6016 21.4901C22.4202 19.9213 23.5724 17.603 23.5724 15.0208C23.5724 10.3008 19.7409 6.46924 15.0208 6.46924C13.7853 6.46924 12.5775 6.73301 11.4669 7.23277C11.217 7.34383 11.1337 7.64925 11.2865 7.87137L13.0356 10.4119C13.1467 10.5646 13.3411 10.634 13.5215 10.5784C13.9935 10.4257 14.4933 10.3424 15.007 10.3424C17.5891 10.3424 19.6853 12.4387 19.6853 15.0208C19.6853 16.2564 19.1856 17.3947 18.3804 18.2416Z" fill="url(#paint0_linear_31771_98333)"/>
<path d="M8.38498 13.0635H13.9102C14.0768 13.0635 14.2295 13.1468 14.3128 13.2856L16.2702 16.1731C16.4923 16.5063 16.2563 16.9506 15.8676 16.9506H10.745H9.73158C8.70428 16.9506 7.88522 17.7835 7.88522 18.7969V19.7409C6.98286 18.3805 6.45532 16.7562 6.45532 15.007C6.45532 13.9242 7.31604 13.0635 8.38498 13.0635Z" fill="#FC9D74"/>
<path d="M39.6762 14.9931C39.6762 17.4364 41.6752 19.4354 44.1185 19.4354H48.5609V16.7978H44.1185V14.3267H51.032V21.9065H44.1185C40.3147 21.9065 37.2051 18.8107 37.2051 14.9931C37.2051 11.1754 40.3009 8.07959 44.1185 8.07959H51.032V10.5507H44.1185C41.6613 10.5507 39.6762 12.5497 39.6762 14.9931ZM64.3731 19.4493V21.9204H57.3624C56.6683 21.9204 56.0158 21.7677 55.4327 21.4623C54.5582 21.0319 53.8501 20.3239 53.4337 19.4493C53.1421 18.8524 52.9756 18.1999 52.9756 17.5197V8.10735H55.4466V17.7557C55.5716 18.6303 56.2518 19.3105 57.1264 19.4354L64.3731 19.4493ZM93.4846 17.5058C93.4846 19.9352 91.5133 21.9065 89.0838 21.9065H79.6715V8.07959H88.3758C90.4304 8.07959 92.1102 9.75937 92.1102 11.814C92.1102 12.5636 91.8881 13.2577 91.5133 13.8269C92.6933 14.6182 93.4846 15.9648 93.4846 17.5058ZM82.1426 13.0773H88.4036C89.0977 13.0773 89.6669 12.5081 89.6669 11.814C89.6669 11.1198 89.0977 10.5507 88.4036 10.5507H82.1426V13.0773ZM89.0838 19.4354C90.1528 19.4354 91.0135 18.547 91.0135 17.478C91.0135 16.4091 90.1389 15.5484 89.0838 15.5484H82.1426V19.4354H89.0838ZM108.269 21.9065H105.507L104.243 19.4354L101.217 13.5215L98.2046 19.4354L96.9413 21.9065H94.1787L95.442 19.4354L101.217 8.09347L107.006 19.4354L108.269 21.9065ZM120.319 19.4493V21.9204H113.309C112.615 21.9204 111.962 21.7677 111.379 21.4623C110.504 21.0319 109.796 20.3239 109.38 19.4493C109.088 18.8524 108.922 18.1999 108.922 17.5197V8.10735H111.393V17.7557C111.518 18.6303 112.198 19.3105 113.073 19.4354L120.319 19.4493Z" fill="white"/>
<path d="M71.2587 8.07959C67.441 8.07959 64.3452 11.1754 64.3452 14.9931C64.3452 18.8107 67.441 21.9065 71.2587 21.9065C75.0764 21.9065 78.1721 18.8107 78.1721 14.9931C78.1721 11.1754 75.0764 8.07959 71.2587 8.07959ZM71.2587 21.1152C67.8852 21.1152 65.1504 18.3804 65.1504 15.0069C65.1504 11.6335 67.8852 8.89865 71.2587 8.89865C74.6321 8.89865 77.367 11.6335 77.367 15.0069C77.367 18.3804 74.6321 21.1152 71.2587 21.1152Z" fill="white"/>
<path d="M71.2587 9.70361C68.3295 9.70361 65.9556 12.0775 65.9556 15.0067C65.9556 17.9359 68.3295 20.3098 71.2587 20.3098C74.1879 20.3098 76.5618 17.9359 76.5618 15.0067C76.5618 12.0775 74.1879 9.70361 71.2587 9.70361ZM71.2587 18.9216C69.093 18.9216 67.3438 17.1724 67.3438 15.0067C67.3438 12.841 69.093 11.0919 71.2587 11.0919C73.4243 11.0919 75.1735 12.841 75.1735 15.0067C75.1735 17.1724 73.4243 18.9216 71.2587 18.9216Z" fill="#FC9D74"/>
<path d="M101.203 21.9202C102.008 21.9202 102.661 21.2676 102.661 20.4625C102.661 19.6575 102.008 19.0049 101.203 19.0049C100.398 19.0049 99.7454 19.6575 99.7454 20.4625C99.7454 21.2676 100.398 21.9202 101.203 21.9202Z" fill="url(#paint1_linear_31771_98333)"/>
<path d="M137.2 8.78739C137.2 8.92621 137.159 9.05116 137.089 9.1761L135.215 12.0081C133.952 12.2997 132.869 13.0632 132.161 14.1044L135.909 8.39868C136.117 8.07938 136.562 7.98221 136.881 8.20433C137.089 8.34315 137.2 8.56527 137.2 8.78739Z" fill="#FC9D74"/>
<path d="M143.392 11.4389C143.003 11.6472 142.656 11.8971 142.323 12.1747V8.78738C142.323 8.45421 142.559 8.16267 142.878 8.10714C142.92 8.09326 142.975 8.09326 143.017 8.09326H150.389C150.777 8.09326 151.083 8.41256 151.083 8.78738C151.083 9.17609 150.764 9.48151 150.389 9.48151H143.725V11.2723C143.614 11.3279 143.503 11.3834 143.392 11.4389ZM146.196 11.8971C146.155 11.8971 146.113 11.8971 146.085 11.8971C145.252 11.8971 144.447 12.1053 143.739 12.4801C143.309 12.7161 142.906 13.0077 142.545 13.3686C142.406 13.5074 142.337 13.674 142.337 13.8545C142.337 13.9655 142.365 14.0766 142.42 14.1877C142.545 14.4098 142.781 14.5625 143.031 14.5625C143.211 14.5625 143.392 14.4931 143.531 14.3543C143.6 14.2848 143.67 14.2293 143.739 14.1599C144.391 13.5907 145.224 13.2853 146.099 13.2853C148.098 13.2853 149.722 14.9096 149.722 16.9086C149.722 18.9077 148.098 20.5319 146.099 20.5319C144.822 20.5319 143.614 19.8378 142.975 18.7411L140.851 14.7568C140.796 14.6458 140.491 14.1321 140.491 14.1183C139.546 12.73 138.006 11.8971 136.34 11.8971C133.577 11.8971 131.328 14.146 131.328 16.9086C131.328 16.9503 131.328 16.9919 131.328 17.0336C131.397 19.7129 133.535 21.8647 136.229 21.9202C136.27 21.9202 136.312 21.9202 136.34 21.9202C137.672 21.9202 138.936 21.3927 139.88 20.4487C140.102 20.2265 140.143 19.9072 140.005 19.6296C139.88 19.4075 139.644 19.2548 139.394 19.2548C139.213 19.2548 139.033 19.3242 138.894 19.463C138.547 19.8101 138.158 20.0738 137.714 20.2543C137.284 20.4348 136.812 20.5319 136.326 20.5319C135.354 20.5319 134.438 20.1571 133.758 19.4769C133.077 18.7966 132.702 17.8804 132.702 16.9086C132.702 14.9096 134.327 13.2853 136.326 13.2853C137.603 13.2853 138.811 13.9794 139.449 15.0761L141.573 19.0604C141.629 19.1715 141.934 19.6851 141.934 19.699C142.878 21.0872 144.419 21.9202 146.085 21.9202C148.848 21.9202 151.097 19.6712 151.097 16.9086C151.097 16.867 151.097 16.8253 151.097 16.7837C151.027 14.1044 148.889 11.9526 146.196 11.8971ZM126.594 12.4801L129.385 9.52316C129.537 9.37045 129.621 9.16221 129.621 8.94009C129.621 8.46809 129.232 8.09326 128.774 8.09326H123.11C122.749 8.09326 122.443 8.38479 122.443 8.75962C122.443 9.13445 122.735 9.42598 123.11 9.42598H123.554H123.596H127.677L124.956 12.2996C124.803 12.4662 124.72 12.6745 124.72 12.9105C124.72 13.3964 125.109 13.7851 125.595 13.7851H125.72C126.691 13.7851 127.51 14.0905 128.191 14.7291C128.871 15.3677 129.204 16.1451 129.204 17.1169C129.204 18.1025 128.871 18.9077 128.191 19.5879C127.524 20.2543 126.691 20.6014 125.72 20.6014C124.595 20.6014 123.526 20.0322 122.86 19.0882C122.721 18.8938 122.513 18.7828 122.291 18.7828C122.152 18.7828 122.013 18.8244 121.902 18.9077C121.749 19.0188 121.652 19.1715 121.61 19.3519C121.583 19.5324 121.61 19.7268 121.721 19.8795C122.624 21.1844 124.123 21.948 125.72 21.948C127.066 21.948 128.218 21.4621 129.162 20.5181C130.106 19.5879 130.592 18.4496 130.592 17.103C130.592 15.8536 130.162 14.7707 129.329 13.8961C128.579 13.1048 127.663 12.6467 126.594 12.4801Z" fill="white"/>
</g>
</g>
<defs>
<linearGradient id="paint0_linear_31771_98333" x1="8.71325" y1="13.8936" x2="23.4259" y2="16.4879" gradientUnits="userSpaceOnUse">
<stop stop-color="#DB5A00"/>
<stop offset="0.1201" stop-color="#FF9966"/>
</linearGradient>
<linearGradient id="paint1_linear_31771_98333" x1="101.18" y1="22.7614" x2="101.18" y2="20.0894" gradientUnits="userSpaceOnUse">
<stop stop-color="#DB6A42"/>
<stop offset="1" stop-color="#FF9966"/>
</linearGradient>
<clipPath id="clip0_31771_98333">
<rect width="151.097" height="30" fill="white"/>
</clipPath>
<clipPath id="clip1_31771_98333">
<rect width="151.097" height="30" fill="white"/>
</clipPath>
</defs>
</svg>
