<svg width="264" height="51" viewBox="0 0 264 51" fill="none" xmlns="http://www.w3.org/2000/svg">
<path d="M50.476 23.1589V25.5C50.476 39.3058 39.2317 50.5323 25.4233 50.4999C11.7258 50.4652 0.534763 39.2688 0.50008 25.5647C0.465397 11.7473 11.6888 0.5 25.488 0.5C31.8998 0.5 37.9924 2.92435 42.6515 7.3289C43.2896 7.9373 43.9024 8.57809 44.4712 9.23969C44.5752 9.3623 44.6261 9.51266 44.6261 9.66303C44.6261 9.84809 44.5498 10.0308 44.3972 10.1604L40.4896 13.5101C40.2167 13.7437 39.8029 13.7136 39.567 13.4407C39.1416 12.9456 38.6884 12.4668 38.2144 12.0203C34.7599 8.7539 30.2396 6.95645 25.4857 6.95645C15.2658 6.95645 6.95112 15.2751 6.95112 25.5C6.95112 35.7248 15.2658 44.0435 25.4857 44.0435C34.4732 44.0435 42.1937 37.5107 43.7405 28.727H39.3612C39.6017 27.6907 39.7289 26.6104 39.7289 25.5C39.7289 24.3896 39.6017 23.3069 39.3589 22.2706H49.5881C50.0783 22.2706 50.476 22.6685 50.476 23.1589Z" fill="#003A4D"/>
<path d="M31.1092 30.8923C29.6895 32.3705 27.6964 33.2958 25.4883 33.2958C22.9402 33.2958 20.6743 32.0651 19.25 30.1659C18.9147 29.7194 18.628 29.2383 18.3945 28.727H16.7065C15.0025 28.727 13.6221 30.1081 13.6221 31.813V33.3745C13.6729 33.4508 13.7238 33.5248 13.7747 33.6012C16.3505 37.314 20.6396 39.75 25.4883 39.75C29.0421 39.75 32.2954 38.4406 34.7949 36.28C37.8169 33.666 39.7314 29.8027 39.7314 25.5023C39.7314 17.644 33.3405 11.2523 25.4883 11.2523C23.4281 11.2523 21.4188 11.6918 19.576 12.5362C19.169 12.7235 19.028 13.2325 19.2823 13.6026L22.2073 17.8313C22.3876 18.0927 22.7183 18.2084 23.0189 18.1066C23.8073 17.8429 24.6397 17.7064 25.4883 17.7064C29.7843 17.7064 33.2804 21.2041 33.2804 25.5023C33.2804 27.5935 32.4526 29.4927 31.1069 30.8923" fill="url(#paint0_linear_52353_76575)"/>
<path d="M14.4706 22.2729H23.6663C23.9391 22.2729 24.1934 22.4071 24.346 22.6338L27.6132 27.4431C27.9831 27.9891 27.5924 28.727 26.9334 28.727H18.3968H16.7088C15.0048 28.727 13.6244 30.1081 13.6244 31.813V33.3745C12.1214 31.1167 11.2451 28.4055 11.2451 25.4953C11.2451 23.7164 12.6926 22.2752 14.4706 22.2752V22.2729Z" fill="#FC9D74"/>
<path d="M200.551 36.8246C201.893 36.8246 202.98 35.7373 202.98 34.3961C202.98 33.0548 201.893 31.9675 200.551 31.9675C199.21 31.9675 198.122 33.0548 198.122 34.3961C198.122 35.7373 199.21 36.8246 200.551 36.8246Z" fill="url(#paint1_linear_52353_76575)"/>
<path d="M84.3468 13.8333V36.8269H80.2397V22.1772L76.1997 25.2643L72.8484 27.8592L69.4971 25.2643L65.457 22.1772V36.8269H61.3477V13.8333L65.4547 16.9874L72.8461 22.6694L80.2374 16.9874L84.3468 13.8333ZM91.7381 20.0421V22.1772H106.523V26.2833H91.7381V30.6181C91.7381 31.7688 92.6903 32.7208 93.8413 32.7208H110.63V36.8269H93.8413C90.4253 36.8269 87.6657 34.0356 87.6657 30.6181V20.0421C87.6657 16.6269 90.4253 13.8333 93.8413 13.8333H110.63V17.9394H93.8413C92.6903 17.9394 91.7381 18.8914 91.7381 20.0421ZM132.478 32.7855L134.581 36.8916H129.982L127.879 32.7855L125.679 28.483L125.579 28.2866C124.856 27.1036 123.575 26.3156 122.096 26.3156H117.989V36.8916H113.882V13.898H128.404C130.112 13.898 131.655 14.5866 132.774 15.705C133.89 16.821 134.581 18.3646 134.581 20.0745C134.581 22.57 133.102 24.7397 130.967 25.7241C130.407 25.9875 129.816 26.1516 129.192 26.2163L132.476 32.7855H132.478ZM128.404 22.2095C128.699 22.2095 128.995 22.1448 129.259 22.0131C130.014 21.685 130.507 20.9294 130.507 20.1068C130.507 19.3512 130.112 18.8267 129.883 18.5956C129.619 18.3322 129.127 18.0041 128.404 18.0041H117.989V22.2419L128.404 22.2095ZM141.677 25.329C141.677 29.4027 144.996 32.7185 149.068 32.7185H160.567V36.8246H149.068C142.729 36.8246 137.57 31.6672 137.57 25.329C137.57 18.9908 142.726 13.8333 149.068 13.8333H160.567V17.9394H149.068C144.994 17.9394 141.677 21.2575 141.677 25.329ZM186.85 13.8333V36.8269H182.743V26.2833H167.958V36.8269H163.851V13.8333H167.958V22.1772H182.743V13.8333H186.85ZM212.278 36.8269H207.679L205.576 32.7208L200.549 22.8658L195.522 32.7208L193.419 36.8269H188.819L190.922 32.7208L200.551 13.8333L210.177 32.7208L212.281 36.8269H212.278ZM237.249 13.8657V36.8593L233.142 33.7052L218.357 22.3066V36.857H214.25V13.9327L218.357 17.0868L233.142 28.4854V13.8333L237.249 13.8657ZM263.5 13.8657V17.9717H254.07V36.8593H249.963V17.9717H240.533V13.8657H263.498H263.5Z" fill="#003A4D"/>
<defs>
<linearGradient id="paint0_linear_52353_76575" x1="15.0117" y1="23.6516" x2="39.5171" y2="27.9712" gradientUnits="userSpaceOnUse">
<stop stop-color="#DB5A00"/>
<stop offset="0.12" stop-color="#FF9966"/>
</linearGradient>
<linearGradient id="paint1_linear_52353_76575" x1="200.578" y1="38.2644" x2="200.579" y2="33.8153" gradientUnits="userSpaceOnUse">
<stop stop-color="#DB6A42"/>
<stop offset="1" stop-color="#FF9966"/>
</linearGradient>
</defs>
</svg>
