<svg width="38" height="11" viewBox="0 0 38 11" fill="none" xmlns="http://www.w3.org/2000/svg">
<path d="M0.211996 10V0.199999H1.71L7.856 7.746H7.114V0.199999H8.92V10H7.422L1.276 2.454H2.018V10H0.211996ZM14.738 10.098C13.9726 10.098 13.2913 9.93467 12.694 9.608C12.0966 9.272 11.6253 8.81467 11.28 8.236C10.9346 7.65733 10.762 6.99933 10.762 6.262C10.762 5.51533 10.9346 4.85733 11.28 4.288C11.6253 3.70933 12.0966 3.25667 12.694 2.93C13.2913 2.60333 13.9726 2.44 14.738 2.44C15.5126 2.44 16.1986 2.60333 16.796 2.93C17.4026 3.25667 17.874 3.70467 18.21 4.274C18.5553 4.84333 18.728 5.506 18.728 6.262C18.728 6.99933 18.5553 7.65733 18.21 8.236C17.874 8.81467 17.4026 9.272 16.796 9.608C16.1986 9.93467 15.5126 10.098 14.738 10.098ZM14.738 8.6C15.1673 8.6 15.55 8.50667 15.886 8.32C16.222 8.13333 16.4833 7.86267 16.67 7.508C16.866 7.15333 16.964 6.738 16.964 6.262C16.964 5.77667 16.866 5.36133 16.67 5.016C16.4833 4.66133 16.222 4.39067 15.886 4.204C15.55 4.01733 15.172 3.924 14.752 3.924C14.3226 3.924 13.94 4.01733 13.604 4.204C13.2773 4.39067 13.016 4.66133 12.82 5.016C12.624 5.36133 12.526 5.77667 12.526 6.262C12.526 6.738 12.624 7.15333 12.82 7.508C13.016 7.86267 13.2773 8.13333 13.604 8.32C13.94 8.50667 14.318 8.6 14.738 8.6ZM24.6434 2.44C25.2408 2.44 25.7728 2.55667 26.2394 2.79C26.7154 3.02333 27.0888 3.38267 27.3594 3.868C27.6301 4.344 27.7654 4.96 27.7654 5.716V10H26.0154V5.94C26.0154 5.27733 25.8568 4.78267 25.5394 4.456C25.2314 4.12933 24.7974 3.966 24.2374 3.966C23.8268 3.966 23.4628 4.05 23.1454 4.218C22.8281 4.386 22.5808 4.638 22.4034 4.974C22.2354 5.30067 22.1514 5.716 22.1514 6.22V10H20.4014V2.524H22.0674V4.54L21.7734 3.924C22.0348 3.448 22.4128 3.084 22.9074 2.832C23.4114 2.57067 23.9901 2.44 24.6434 2.44ZM33.5131 10.098C32.6824 10.098 31.9544 9.93467 31.3291 9.608C30.7131 9.272 30.2324 8.81467 29.8871 8.236C29.5511 7.65733 29.3831 6.99933 29.3831 6.262C29.3831 5.51533 29.5464 4.85733 29.8731 4.288C30.2091 3.70933 30.6664 3.25667 31.2451 2.93C31.8331 2.60333 32.5004 2.44 33.2471 2.44C33.9751 2.44 34.6237 2.59867 35.1931 2.916C35.7624 3.23333 36.2104 3.68133 36.5371 4.26C36.8637 4.83867 37.0271 5.52 37.0271 6.304C37.0271 6.37867 37.0224 6.46267 37.0131 6.556C37.0131 6.64933 37.0084 6.738 36.9991 6.822H30.7691V5.66H36.0751L35.3891 6.024C35.3984 5.59467 35.3097 5.21667 35.1231 4.89C34.9364 4.56333 34.6797 4.30667 34.3531 4.12C34.0357 3.93333 33.6671 3.84 33.2471 3.84C32.8177 3.84 32.4397 3.93333 32.1131 4.12C31.7957 4.30667 31.5437 4.568 31.3571 4.904C31.1797 5.23067 31.0911 5.618 31.0911 6.066V6.346C31.0911 6.794 31.1937 7.19067 31.3991 7.536C31.6044 7.88133 31.8937 8.14733 32.2671 8.334C32.6404 8.52067 33.0697 8.614 33.5551 8.614C33.9751 8.614 34.3531 8.54867 34.6891 8.418C35.0251 8.28733 35.3237 8.082 35.5851 7.802L36.5231 8.88C36.1871 9.272 35.7624 9.57533 35.2491 9.79C34.7451 9.99533 34.1664 10.098 33.5131 10.098Z" fill="#BBBBBB"/>
</svg>
