<svg width="260" height="60" viewBox="0 0 260 60" fill="none" xmlns="http://www.w3.org/2000/svg">
<g clip-path="url(#clip0_55555_66018)">
<path d="M109.828 43.8408C111.44 43.8408 112.747 42.5355 112.747 40.9254C112.747 39.3154 111.44 38.0101 109.828 38.0101C108.215 38.0101 106.908 39.3154 106.908 40.9254C106.908 42.5355 108.215 43.8408 109.828 43.8408Z" fill="url(#paint0_linear_55555_66018)"/>
<path d="M97.288 18.4637C98.6226 19.7964 99.4568 21.6566 99.4568 23.7112C99.4568 26.7099 97.6773 29.3198 95.1193 30.5136C94.452 30.8191 93.7291 31.0134 92.9783 31.0967C92.8949 31.0967 92.8115 31.0967 92.7281 31.0967V31.1245H79.4931V43.8408H74.5439V16.2147H91.9774C94.0349 16.2147 95.8978 17.0477 97.2324 18.3804L97.288 18.4637ZM93.0618 25.988C93.9793 25.5993 94.5632 24.683 94.5632 23.7112C94.5632 22.795 94.0905 22.1842 93.8125 21.9065C93.5066 21.6011 92.8949 21.1846 92.033 21.1846H79.4931V26.2656H92.033C92.3944 26.2656 92.7559 26.1823 93.0618 26.0157V25.988ZM123.925 43.8408H118.392L115.861 38.8987L109.828 27.0708L103.794 38.8987L101.264 43.8408H95.731L98.2612 38.8987L109.828 16.2147L121.395 38.8987L123.925 43.8408ZM120.199 43.8408H120.282L120.199 43.9241V43.8408ZM147.864 16.1592L137.16 30.0139L136.576 30.7635V43.7853H131.627V30.8468L130.959 30.0139L120.255 16.1592H126.511L134.101 25.988L141.692 16.1592H147.864ZM147.837 43.8408H147.864V43.9241L147.837 43.8408ZM174.195 38.9819L176.726 43.9241H171.192L168.662 38.9819L166.021 33.8177L165.91 33.5678C165.048 32.1518 163.491 31.2078 161.711 31.2078H156.762V43.9241H151.813V16.298H169.274C171.331 16.298 173.194 17.131 174.529 18.4637C175.864 19.7964 176.698 21.6566 176.698 23.7112C176.698 26.7099 174.918 29.3198 172.36 30.5136C171.693 30.8191 170.97 31.0134 170.219 31.0967L174.195 38.9819ZM169.302 26.2656C169.663 26.2656 170.025 26.1823 170.33 26.0157C171.248 25.627 171.832 24.7108 171.832 23.739C171.832 22.8228 171.359 22.2119 171.081 21.9343C170.775 21.6289 170.164 21.2124 169.302 21.2124H156.762V26.2934L169.302 26.2656ZM207.45 30.0139C207.45 37.6215 201.249 43.8408 193.603 43.8408C185.984 43.8408 179.756 37.6492 179.756 30.0139C179.756 22.4063 185.957 16.1869 193.603 16.1869C201.221 16.2147 207.45 22.4063 207.45 30.0139ZM202.5 30.0139C202.5 25.1272 198.496 21.1291 193.603 21.1291C188.709 21.1291 184.705 25.1272 184.705 30.0139C184.705 34.9005 188.709 38.8987 193.603 38.8987C198.496 38.8987 202.5 34.9283 202.5 30.0139ZM233.252 38.9542V43.8686H219.211C217.821 43.8686 216.514 43.5632 215.346 42.9523C213.594 42.0916 212.176 40.6756 211.342 38.9264C210.758 37.7325 210.425 36.4276 210.425 35.0671V16.2425H215.374V35.5391C215.624 37.2883 216.986 38.6488 218.738 38.8987L233.252 38.9542ZM260 38.9542V43.8686H245.959C244.569 43.8686 243.262 43.5632 242.094 42.9523C240.342 42.0916 238.924 40.6756 238.09 38.9264C237.506 37.7325 237.173 36.4276 237.173 35.0671V16.2425H242.122V35.5391C242.372 37.2883 243.734 38.6488 245.486 38.8987L260 38.9542Z" fill="#003A4D"/>
<path d="M59 54.0409C50.6 56.0574 42.4 58.0136 34 60C35 59.0971 35.8 58.3447 36.65 57.5923C38.15 56.238 39.6 54.8836 41.1 53.5594C41.3 53.3788 41.8 53.1982 42.2 53.1681C44.9 53.108 47.6 53.1381 50.3 53.0177C53.25 52.8973 56 53.4089 59 54.0409Z" fill="#CEDFE4"/>
<path d="M59.8915 27.2096V30.0139C59.8915 46.5895 46.4221 60.0555 29.8764 60.0278C13.4416 59.9722 0.0553558 46.534 -7.3673e-05 30.0694C-0.0555032 13.4938 13.4139 0 29.9596 0C37.6366 0 44.9532 2.91532 50.5239 8.19065C51.2999 8.91254 52.0205 9.68996 52.7134 10.4951C52.8519 10.634 52.9074 10.8283 52.9074 10.9949C52.9074 11.217 52.8242 11.4391 52.6302 11.6057L47.9464 15.6039C47.6139 15.8815 47.115 15.8538 46.8378 15.5206C46.339 14.9375 45.7847 14.3545 45.2304 13.8269C41.1009 9.91208 35.6688 7.74641 29.9873 7.74641C17.7374 7.74641 7.76006 17.7418 7.76006 30.0139C7.76006 42.286 17.7374 52.2813 29.9873 52.2813C40.7683 52.2813 50.025 44.4516 51.8542 33.901H46.6161C46.8933 32.6515 47.0596 31.3466 47.0596 30.0416C47.0596 28.7367 46.921 27.404 46.6161 26.1546H58.866C59.4203 26.1268 59.8915 26.5988 59.8915 27.2096Z" fill="#003A4D"/>
<path d="M36.6943 36.4831C35.0037 38.2601 32.5925 39.3707 29.9596 39.3707C26.911 39.3707 24.1949 37.8991 22.4766 35.6224C22.0886 35.0949 21.7283 34.5118 21.4512 33.901H19.428C17.3771 33.901 15.7419 35.5669 15.7419 37.5937V39.4817C15.7974 39.565 15.8528 39.6761 15.9359 39.7594C19.0123 44.2295 24.1672 47.1449 29.9873 47.1449C34.2554 47.1449 38.1355 45.5623 41.1287 42.9801C44.7593 39.8427 47.0596 35.2059 47.0596 30.0417C47.0596 20.6016 39.4103 12.9385 29.9873 12.9385C27.5207 12.9385 25.1095 13.466 22.8923 14.4655C22.3935 14.6877 22.2272 15.2985 22.5321 15.7427L26.0241 20.8237C26.2458 21.1291 26.6338 21.268 26.9941 21.1569C27.9364 20.8515 28.9342 20.6849 29.9596 20.6849C35.1146 20.6849 39.2995 24.8774 39.2995 30.0417C39.2995 32.5127 38.3017 34.7895 36.6943 36.4831Z" fill="url(#paint1_linear_55555_66018)"/>
<path d="M16.7397 26.1267H27.7701C28.1027 26.1267 28.4076 26.2933 28.5739 26.5709L32.4817 32.3461C32.9251 33.0124 32.4539 33.9009 31.6779 33.9009H21.4512H19.428C17.3771 33.9009 15.7419 35.5668 15.7419 37.5936V39.4816C13.9405 36.7607 12.8873 33.5122 12.8873 30.0138C12.8873 27.8481 14.6056 26.1267 16.7397 26.1267Z" fill="#FC9D74"/>
<path d="M59.3372 35.7858H14.3372V53.7858H59.3372V35.7858Z" fill="#99B0B8"/>
<path d="M20.3372 39.7858H24.2312C25.0021 39.7858 25.5758 39.8199 25.9523 39.8881C26.3333 39.9518 26.6722 40.0882 26.969 40.2974C27.2703 40.5065 27.5206 40.7862 27.7199 41.1364C27.9193 41.482 28.019 41.8708 28.019 42.3028C28.019 42.7712 27.8949 43.201 27.6468 43.592C27.4032 43.9831 27.0709 44.2764 26.65 44.472C27.2437 44.6493 27.7 44.9518 28.019 45.3792C28.3379 45.8067 28.4974 46.3092 28.4974 46.8867C28.4974 47.3415 28.3933 47.7849 28.1851 48.2169C27.9813 48.6443 27.7 48.9877 27.3411 49.2469C26.9867 49.5015 26.5482 49.6584 26.0254 49.7176C25.6976 49.7539 24.9068 49.7767 23.6531 49.7858H20.3372V39.7858ZM22.3041 41.4502V43.7626H23.5933C24.3597 43.7626 24.8359 43.7512 25.022 43.7285C25.3587 43.6875 25.6223 43.5693 25.8128 43.3738C26.0077 43.1737 26.1051 42.9122 26.1051 42.5893C26.1051 42.2801 26.021 42.03 25.8526 41.839C25.6887 41.6434 25.4428 41.5252 25.115 41.4843C24.9201 41.4615 24.3597 41.4502 23.4338 41.4502H22.3041ZM22.3041 45.427V48.1009H24.1249C24.8337 48.1009 25.2834 48.0804 25.4739 48.0395C25.7662 47.9849 26.0033 47.8531 26.1849 47.6439C26.371 47.4302 26.464 47.1459 26.464 46.7912C26.464 46.4911 26.3931 46.2364 26.2513 46.0272C26.1096 45.8181 25.9036 45.6657 25.6333 45.5702C25.3675 45.4747 24.7872 45.427 23.8923 45.427H22.3041Z" fill="#003A4D"/>
<path d="M30.1653 49.7858V39.7858H37.3886V41.4774H32.1323V43.6944H37.0231V45.3792H32.1323V48.1009H37.5747V49.7858H30.1653Z" fill="#003A4D"/>
<path d="M41.4355 49.7858V41.4774H38.5449V39.7858H46.2865V41.4774H43.4025V49.7858H41.4355Z" fill="#003A4D"/>
<path d="M55.3372 49.7858H53.1974L52.3468 47.5143H48.4528L47.6487 49.7858H45.5621L49.3565 39.7858H51.4365L55.3372 49.7858ZM51.7156 45.8294L50.3732 42.1186L49.0575 45.8294H51.7156Z" fill="#003A4D"/>
</g>
<defs>
<linearGradient id="paint0_linear_55555_66018" x1="109.774" y1="45.518" x2="109.774" y2="40.174" gradientUnits="userSpaceOnUse">
<stop stop-color="#DB6A42"/>
<stop offset="1" stop-color="#FF9966"/>
</linearGradient>
<linearGradient id="paint1_linear_55555_66018" x1="17.3949" y1="27.7873" x2="46.7703" y2="32.9576" gradientUnits="userSpaceOnUse">
<stop stop-color="#DB5A00"/>
<stop offset="0.1201" stop-color="#FF9966"/>
</linearGradient>
<clipPath id="clip0_55555_66018">
<rect width="260" height="60" fill="white"/>
</clipPath>
</defs>
</svg>
