<svg width="184" height="22" viewBox="0 0 184 22" fill="none" xmlns="http://www.w3.org/2000/svg">
<path d="M96.2 9.90002V10.9C96.2 16.9 91.3 21.7 85.4 21.7C79.5 21.7 74.6 16.8 74.6 10.9C74.6 4.90002 79.4 0.0999756 85.4 0.0999756C88.2 0.0999756 90.8 1.09998 92.8 3.09998C93.1 3.39998 93.3 3.60002 93.6 3.90002C93.6 4.00002 93.7 3.99998 93.7 4.09998C93.7 4.19998 93.7 4.29999 93.6 4.29999L91.9 5.70001C91.8 5.80001 91.6 5.80001 91.5 5.70001C91.3 5.50001 91.1 5.29998 90.9 5.09998C89.4 3.69998 87.5 2.90002 85.4 2.90002C81 2.90002 77.4 6.50002 77.4 10.9C77.4 15.3 81 18.9 85.4 18.9C89.3 18.9 92.6 16.1 93.3 12.3H91.4C91.5 11.9 91.6 11.4 91.6 10.9C91.6 10.4 91.5 10 91.4 9.5H95.8C96 9.5 96.2 9.70002 96.2 9.90002Z" fill="#003A4D"/>
<path d="M87.8 13.2C87.2 13.8 86.3 14.2 85.4 14.2C84.3 14.2 83.3 13.7 82.7 12.8C82.6 12.6 82.4 12.4 82.3 12.2H81.6C80.9 12.2 80.3 12.8 80.3 13.5V14.2C80.3 14.2 80.3 14.3 80.4 14.3C81.5 15.9 83.4 17 85.5 17C87 17 88.4 16.4 89.5 15.5C90.8 14.4 91.6 12.7 91.6 10.8C91.6 7.39999 88.8 4.59998 85.4 4.59998C84.5 4.59998 83.6 4.80001 82.8 5.20001C82.6 5.30001 82.6 5.50001 82.7 5.70001L84 7.5C84.1 7.6 84.2 7.69998 84.4 7.59998C84.7 7.49998 85.1 7.40002 85.5 7.40002C87.4 7.40002 88.9 8.89999 88.9 10.8C88.8 11.8 88.4 12.6 87.8 13.2Z" fill="url(#paint0_linear_30208_108108)"/>
<path d="M80.6 9.5H84.6C84.7 9.5 84.8 9.60001 84.9 9.70001L86.3 11.8C86.5 12 86.3 12.4 86 12.4H82.3H81.6C80.9 12.4 80.3 13 80.3 13.7V14.4C79.7 13.4 79.3 12.3 79.3 11C79.2 10.1 79.9 9.5 80.6 9.5Z" fill="#FC9D74"/>
<path d="M103.2 10.9C103.2 12.7 104.6 14.1 106.4 14.1H109.6V12.2H106.4V10.4H111.4V15.9H106.4C103.7 15.9 101.4 13.7 101.4 10.9C101.4 8.10002 103.6 5.90002 106.4 5.90002H111.4V7.70001H106.4C104.6 7.70001 103.2 9.10002 103.2 10.9ZM120.9 14.1V15.9H115.9C115.4 15.9 114.9 15.8 114.5 15.6C113.9 15.3 113.4 14.8 113.1 14.2C112.9 13.8 112.8 13.3 112.8 12.8V6H114.6V12.9C114.7 13.5 115.2 14 115.8 14.1H120.9ZM141.9 12.7C141.9 14.4 140.5 15.9 138.7 15.9H132V6H138.3C139.8 6 141 7.20001 141 8.70001C141 9.20001 140.8 9.69998 140.6 10.1C141.3 10.6 141.9 11.6 141.9 12.7ZM133.7 9.5H138.2C138.7 9.5 139.1 9.09998 139.1 8.59998C139.1 8.09998 138.7 7.70001 138.2 7.70001H133.7V9.5ZM138.7 14.1C139.5 14.1 140.1 13.5 140.1 12.7C140.1 11.9 139.5 11.3 138.7 11.3H133.7V14.1H138.7ZM152.5 15.9H150.5L149.6 14.1L147.4 9.79999L145.2 14.1L144.3 15.9H142.3L143.2 14.1L147.4 5.90002L151.6 14.1L152.5 15.9ZM161.2 14.1V15.9H156.2C155.7 15.9 155.2 15.8 154.8 15.6C154.2 15.3 153.7 14.8 153.4 14.2C153.2 13.8 153.1 13.3 153.1 12.8V6H154.9V12.9C155 13.5 155.5 14 156.1 14.1H161.2Z" fill="#003A4D"/>
<path d="M125.9 5.90002C123.2 5.90002 120.9 8.10002 120.9 10.9C120.9 13.6 123.1 15.9 125.9 15.9C128.7 15.9 130.9 13.7 130.9 10.9C130.9 8.10002 128.6 5.90002 125.9 5.90002ZM125.9 15.3C123.5 15.3 121.5 13.3 121.5 10.9C121.5 8.50002 123.5 6.5 125.9 6.5C128.3 6.5 130.3 8.50002 130.3 10.9C130.3 13.3 128.3 15.3 125.9 15.3Z" fill="#003A4D"/>
<path d="M125.9 7.09998C123.8 7.09998 122.1 8.80002 122.1 10.9C122.1 13 123.8 14.7 125.9 14.7C128 14.7 129.7 13 129.7 10.9C129.7 8.80002 128 7.09998 125.9 7.09998ZM125.9 13.7C124.3 13.7 123.1 12.4 123.1 10.9C123.1 9.30002 124.4 8.09998 125.9 8.09998C127.4 8.09998 128.7 9.40002 128.7 10.9C128.7 12.5 127.5 13.7 125.9 13.7Z" fill="#FC9D74"/>
<path d="M147.5 15.9C148.108 15.9 148.6 15.4074 148.6 14.7999C148.6 14.1924 148.108 13.7 147.5 13.7C146.892 13.7 146.4 14.1924 146.4 14.7999C146.4 15.4074 146.892 15.9 147.5 15.9Z" fill="url(#paint1_linear_30208_108108)"/>
<path d="M173.4 6.40004C173.4 6.50004 173.4 6.60003 173.3 6.70003L172 8.70003C171.1 8.90003 170.3 9.50003 169.8 10.2L172.5 6.09999C172.7 5.89999 173 5.80002 173.2 6.00002C173.3 6.10002 173.4 6.30004 173.4 6.40004Z" fill="#FC9D74"/>
<path d="M177.8 8.29999C177.5 8.39999 177.3 8.59999 177 8.79999V6.40002C177 6.20002 177.2 6.00002 177.4 5.90002H177.5H182.8C183.1 5.90002 183.3 6.10002 183.3 6.40002C183.3 6.70002 183.1 6.90002 182.8 6.90002H178V8.20001C178 8.30001 177.9 8.29999 177.8 8.29999ZM179.8 8.70001C179.1 8.70001 178.5 8.79998 178 9.09998C177.7 9.29998 177.4 9.50001 177.1 9.70001C177 9.80001 177 9.89998 177 10.1C177 10.2 177 10.3 177.1 10.3C177.2 10.5 177.4 10.6 177.5 10.6C177.6 10.6 177.8 10.5 177.9 10.5L178 10.4C178.5 10 179.1 9.79999 179.7 9.79999C181.1 9.79999 182.3 11 182.3 12.4C182.3 13.8 181.1 15 179.7 15C178.8 15 177.9 14.5 177.4 13.7L175.9 10.8C175.9 10.7 175.6 10.3 175.6 10.3C174.9 9.29999 173.8 8.70001 172.6 8.70001C170.6 8.70001 169 10.3 169 12.3V12.4C169 14.3 170.6 15.9 172.5 15.9H172.6C173.6 15.9 174.5 15.5 175.2 14.8C175.4 14.6 175.4 14.4 175.3 14.2C175.2 14 175 13.9 174.9 13.9C174.8 13.9 174.6 14 174.5 14C174.3 14.2 174 14.4 173.7 14.6C173.4 14.7 173 14.8 172.7 14.8C172 14.8 171.3 14.5 170.9 14C170.4 13.5 170.1 12.9 170.1 12.2C170.1 10.8 171.3 9.59998 172.7 9.59998C173.6 9.59998 174.5 10.1 175 10.9L176.5 13.8C176.5 13.9 176.8 14.3 176.8 14.3C177.5 15.3 178.6 15.9 179.8 15.9C181.8 15.9 183.4 14.3 183.4 12.3V12.2C183.3 10.3 181.8 8.70001 179.8 8.70001ZM165.7 9.09998L167.7 7C167.8 6.9 167.9 6.69998 167.9 6.59998C167.9 6.29998 167.6 6 167.3 6H163.2C162.9 6 162.7 6.2 162.7 6.5C162.7 6.8 162.9 7 163.2 7H163.5H166.4L164.4 9.09998C164.3 9.19998 164.2 9.4 164.2 9.5C164.2 9.8 164.5 10.1 164.8 10.1H164.9C165.6 10.1 166.2 10.3 166.7 10.8C167.2 11.3 167.4 11.8 167.4 12.5C167.4 13.2 167.2 13.8 166.7 14.3C166.2 14.8 165.6 15 164.9 15C164.1 15 163.3 14.6 162.8 13.9C162.7 13.8 162.5 13.7 162.4 13.7C162.3 13.7 162.2 13.7 162.1 13.8C162 13.9 161.9 14 161.9 14.1C161.9 14.2 161.9 14.4 162 14.5C162.7 15.4 163.7 16 164.9 16C165.9 16 166.7 15.7 167.4 15C168.1 14.3 168.4 13.5 168.4 12.5C168.4 11.6 168.1 10.8 167.5 10.2C167.2 9.50001 166.5 9.19998 165.7 9.09998Z" fill="#003A4D"/>
<path d="M1.10024 15.6692V7.83262H4.32443C5.01852 7.83262 5.61186 7.94457 6.10445 8.16847C6.60449 8.39237 6.98886 8.7133 7.25754 9.13125C7.52622 9.5492 7.66057 10.0455 7.66057 10.6202C7.66057 11.1949 7.52622 11.6912 7.25754 12.1091C6.98886 12.5271 6.60449 12.848 6.10445 13.0719C5.61186 13.2958 5.01852 13.4078 4.32443 13.4078H1.90628L2.5556 12.7249V15.6692H1.10024ZM2.5556 12.8816L1.90628 12.1763H4.25726C4.89911 12.1763 5.3805 12.042 5.70142 11.7733C6.02981 11.4971 6.19401 11.1128 6.19401 10.6202C6.19401 10.1202 6.02981 9.73579 5.70142 9.4671C5.3805 9.19842 4.89911 9.06408 4.25726 9.06408H1.90628L2.5556 8.34759V12.8816ZM11.6445 15.7476C11.0325 15.7476 10.4877 15.6169 10.01 15.3557C9.53239 15.087 9.15549 14.7213 8.87934 14.2586C8.6032 13.7959 8.46513 13.2697 8.46513 12.6801C8.46513 12.083 8.6032 11.5569 8.87934 11.1016C9.15549 10.6389 9.53239 10.2769 10.01 10.0157C10.4877 9.75444 11.0325 9.62384 11.6445 9.62384C12.264 9.62384 12.8126 9.75444 13.2902 10.0157C13.7753 10.2769 14.1522 10.6351 14.4209 11.0904C14.6971 11.5457 14.8351 12.0756 14.8351 12.6801C14.8351 13.2697 14.6971 13.7959 14.4209 14.2586C14.1522 14.7213 13.7753 15.087 13.2902 15.3557C12.8126 15.6169 12.264 15.7476 11.6445 15.7476ZM11.6445 14.5497C11.9879 14.5497 12.2939 14.475 12.5625 14.3258C12.8312 14.1765 13.0402 13.9601 13.1895 13.6765C13.3462 13.3929 13.4246 13.0607 13.4246 12.6801C13.4246 12.292 13.3462 11.9599 13.1895 11.6837C13.0402 11.4001 12.8312 11.1837 12.5625 11.0344C12.2939 10.8851 11.9916 10.8105 11.6557 10.8105C11.3124 10.8105 11.0064 10.8851 10.7377 11.0344C10.4765 11.1837 10.2675 11.4001 10.1108 11.6837C9.95407 11.9599 9.87571 12.292 9.87571 12.6801C9.87571 13.0607 9.95407 13.3929 10.1108 13.6765C10.2675 13.9601 10.4765 14.1765 10.7377 14.3258C11.0064 14.475 11.3087 14.5497 11.6445 14.5497ZM17.3303 15.6692L15.1361 9.69101H16.4571L18.3379 14.9639H17.711L19.6813 9.69101H20.8568L22.7712 14.9639H22.1554L24.0922 9.69101H25.3348L23.1294 15.6692H21.786L20.0395 11.0008H20.4538L18.6737 15.6692H17.3303ZM28.943 15.7476C28.2787 15.7476 27.6966 15.6169 27.1965 15.3557C26.704 15.087 26.3196 14.7213 26.0434 14.2586C25.7748 13.7959 25.6404 13.2697 25.6404 12.6801C25.6404 12.083 25.771 11.5569 26.0322 11.1016C26.3009 10.6389 26.6666 10.2769 27.1294 10.0157C27.5996 9.75444 28.1332 9.62384 28.7303 9.62384C29.3124 9.62384 29.8311 9.75071 30.2864 10.0045C30.7417 10.2582 31.0999 10.6165 31.3611 11.0792C31.6223 11.5419 31.7529 12.0868 31.7529 12.7137C31.7529 12.7734 31.7492 12.8406 31.7417 12.9152C31.7417 12.9898 31.738 13.0607 31.7306 13.1279H26.7487V12.1987H30.9917L30.4431 12.4898C30.4506 12.1465 30.3797 11.8442 30.2304 11.583C30.0811 11.3218 29.8759 11.1165 29.6147 10.9672C29.3609 10.818 29.0661 10.7433 28.7303 10.7433C28.387 10.7433 28.0847 10.818 27.8235 10.9672C27.5697 11.1165 27.3682 11.3255 27.2189 11.5942C27.0771 11.8554 27.0062 12.1651 27.0062 12.5234V12.7473C27.0062 13.1055 27.0883 13.4227 27.2525 13.6989C27.4167 13.975 27.6481 14.1877 27.9466 14.337C28.2451 14.4862 28.5885 14.5609 28.9766 14.5609C29.3124 14.5609 29.6147 14.5086 29.8834 14.4041C30.152 14.2997 30.3909 14.1355 30.5998 13.9116L31.3499 14.7736C31.0812 15.087 30.7417 15.3296 30.3312 15.5013C29.9281 15.6655 29.4654 15.7476 28.943 15.7476ZM33.0971 15.6692V9.69101H34.4294V11.3367L34.2726 10.8553C34.4518 10.4523 34.7316 10.1463 35.1123 9.9373C35.5004 9.72832 35.9817 9.62384 36.5564 9.62384V10.9561C36.4967 10.9411 36.4407 10.9337 36.3885 10.9337C36.3363 10.9262 36.284 10.9225 36.2318 10.9225C35.7019 10.9225 35.2802 11.0792 34.9667 11.3927C34.6533 11.6987 34.4965 12.1577 34.4965 12.7697V15.6692H33.0971ZM40.4989 15.7476C39.8346 15.7476 39.2525 15.6169 38.7524 15.3557C38.2598 15.087 37.8755 14.7213 37.5993 14.2586C37.3306 13.7959 37.1963 13.2697 37.1963 12.6801C37.1963 12.083 37.3269 11.5569 37.5881 11.1016C37.8568 10.6389 38.2225 10.2769 38.6852 10.0157C39.1554 9.75444 39.6891 9.62384 40.2861 9.62384C40.8683 9.62384 41.387 9.75071 41.8423 10.0045C42.2975 10.2582 42.6558 10.6165 42.917 11.0792C43.1782 11.5419 43.3088 12.0868 43.3088 12.7137C43.3088 12.7734 43.3051 12.8406 43.2976 12.9152C43.2976 12.9898 43.2939 13.0607 43.2864 13.1279H38.3046V12.1987H42.5476L41.999 12.4898C42.0065 12.1465 41.9356 11.8442 41.7863 11.583C41.637 11.3218 41.4318 11.1165 41.1706 10.9672C40.9168 10.818 40.622 10.7433 40.2861 10.7433C39.9428 10.7433 39.6406 10.818 39.3793 10.9672C39.1256 11.1165 38.9241 11.3255 38.7748 11.5942C38.633 11.8554 38.5621 12.1651 38.5621 12.5234V12.7473C38.5621 13.1055 38.6442 13.4227 38.8084 13.6989C38.9726 13.975 39.204 14.1877 39.5025 14.337C39.801 14.4862 40.1443 14.5609 40.5324 14.5609C40.8683 14.5609 41.1706 14.5086 41.4392 14.4041C41.7079 14.2997 41.9468 14.1355 42.1557 13.9116L42.9058 14.7736C42.6371 15.087 42.2975 15.3296 41.887 15.5013C41.484 15.6655 41.0213 15.7476 40.4989 15.7476ZM47.1831 15.7476C46.6084 15.7476 46.0897 15.6207 45.627 15.3669C45.1717 15.1057 44.8135 14.7475 44.5523 14.2922C44.291 13.8369 44.1604 13.2996 44.1604 12.6801C44.1604 12.0606 44.291 11.5233 44.5523 11.068C44.8135 10.6127 45.1717 10.2582 45.627 10.0045C46.0897 9.75071 46.6084 9.62384 47.1831 9.62384C47.6832 9.62384 48.131 9.73579 48.5265 9.95969C48.9221 10.1761 49.2355 10.5082 49.4669 10.9561C49.6983 11.4039 49.814 11.9785 49.814 12.6801C49.814 13.3742 49.702 13.9489 49.4781 14.4041C49.2542 14.8519 48.9445 15.1878 48.5489 15.4117C48.1534 15.6356 47.6981 15.7476 47.1831 15.7476ZM47.351 14.5497C47.6869 14.5497 47.9854 14.475 48.2466 14.3258C48.5153 14.1765 48.728 13.9601 48.8848 13.6765C49.049 13.3929 49.1311 13.0607 49.1311 12.6801C49.1311 12.292 49.049 11.9599 48.8848 11.6837C48.728 11.4001 48.5153 11.1837 48.2466 11.0344C47.9854 10.8851 47.6869 10.8105 47.351 10.8105C47.0152 10.8105 46.7129 10.8851 46.4442 11.0344C46.183 11.1837 45.9703 11.4001 45.8061 11.6837C45.6494 11.9599 45.571 12.292 45.571 12.6801C45.571 13.0607 45.6494 13.3929 45.8061 13.6765C45.9703 13.9601 46.183 14.1765 46.4442 14.3258C46.7129 14.475 47.0152 14.5497 47.351 14.5497ZM49.1646 15.6692V14.2586L49.2206 12.6689L49.1087 11.0792V7.36242H50.4969V15.6692H49.1646ZM55.567 15.6692V7.83262H59.239C60.1794 7.83262 60.8959 8.0192 61.3885 8.39237C61.8811 8.75808 62.1274 9.25067 62.1274 9.87013C62.1274 10.2881 62.0303 10.6463 61.8363 10.9449C61.6422 11.2359 61.381 11.4636 61.0526 11.6278C60.7317 11.7845 60.3809 11.8629 60.0003 11.8629L60.2018 11.4598C60.6421 11.4598 61.0377 11.5419 61.3885 11.7061C61.7393 11.8629 62.0154 12.0942 62.2169 12.4002C62.4259 12.7062 62.5304 13.0869 62.5304 13.5421C62.5304 14.2138 62.2729 14.7363 61.7579 15.1094C61.2429 15.4826 60.4779 15.6692 59.4629 15.6692H55.567ZM57.0224 14.5273H59.3734C59.9182 14.5273 60.3361 14.4377 60.6272 14.2586C60.9183 14.0795 61.0638 13.7921 61.0638 13.3966C61.0638 13.0085 60.9183 12.7249 60.6272 12.5458C60.3361 12.3592 59.9182 12.2659 59.3734 12.2659H56.9104V11.1352H59.0823C59.5898 11.1352 59.9779 11.0456 60.2466 10.8665C60.5227 10.6874 60.6608 10.4187 60.6608 10.0604C60.6608 9.69474 60.5227 9.42232 60.2466 9.2432C59.9779 9.06408 59.5898 8.97452 59.0823 8.97452H57.0224V14.5273ZM64.4418 17.9194C64.1508 17.9194 63.8597 17.8709 63.5686 17.7739C63.2776 17.6768 63.035 17.5425 62.8409 17.3708L63.4007 16.3409C63.5425 16.4678 63.703 16.5685 63.8821 16.6432C64.0612 16.7178 64.2441 16.7551 64.4307 16.7551C64.6844 16.7551 64.8897 16.6917 65.0464 16.5648C65.2031 16.4379 65.3487 16.2252 65.483 15.9267L65.83 15.143L65.942 14.9751L68.2034 9.69101H69.5468L66.748 16.1506C66.5615 16.5984 66.3525 16.9529 66.1211 17.2141C65.8972 17.4753 65.6435 17.6582 65.3598 17.7627C65.0837 17.8672 64.7777 17.9194 64.4418 17.9194ZM65.6733 15.8819L62.9753 9.69101H64.4307L66.6249 14.8519L65.6733 15.8819Z" fill="#1D1D1D"/>
<defs>
<linearGradient id="paint0_linear_30208_108108" x1="80.8739" y1="10.1004" x2="91.4649" y2="11.9679" gradientUnits="userSpaceOnUse">
<stop stop-color="#DB5A00"/>
<stop offset="0.1201" stop-color="#FF9966"/>
</linearGradient>
<linearGradient id="paint1_linear_30208_108108" x1="147.29" y1="16.3232" x2="147.29" y2="14.3997" gradientUnits="userSpaceOnUse">
<stop stop-color="#DB6A42"/>
<stop offset="1" stop-color="#FF9966"/>
</linearGradient>
</defs>
</svg>
