<?xml version="1.0" encoding="utf-8"?>
<!-- Generator: Adobe Illustrator 27.0.0, SVG Export Plug-In . SVG Version: 6.00 Build 0)  -->
<svg version="1.1" id="Layer_1" xmlns="http://www.w3.org/2000/svg" xmlns:xlink="http://www.w3.org/1999/xlink" x="0px" y="0px"
	 viewBox="0 0 166 18" style="enable-background:new 0 0 166 18;" xml:space="preserve">
<style type="text/css">
	.st0{fill:#1D1D1D;}
	.st1{fill:#2B2B2B;}
	.st2{fill:url(#SVGID_1_);}
	.st3{fill:#B5B5B5;}
	.st4{fill:url(#SVGID_00000139992709649835232030000015562696651208169362_);}
</style>
<path class="st0" d="M4,4.8c0.7,0,1.2,0.1,1.7,0.3c0.5,0.2,0.9,0.5,1.1,0.9C7.1,6.5,7.3,7,7.3,7.5c0,0.6-0.1,1-0.4,1.5
	C6.6,9.4,6.2,9.7,5.7,9.9c-0.5,0.2-1.1,0.3-1.7,0.3H2.2v2.2H0.8V4.8H4z M3.9,9.1c0.6,0,1.1-0.1,1.4-0.4S5.8,8,5.8,7.5
	S5.7,6.7,5.3,6.4S4.5,6,3.9,6H2.2v3.1H3.9z M11.2,12.6c-0.6,0-1.1-0.1-1.6-0.4c-0.5-0.3-0.9-0.6-1.1-1.1C8.2,10.7,8,10.1,8,9.6
	C8,9,8.2,8.5,8.4,8c0.3-0.5,0.6-0.8,1.1-1.1c0.5-0.3,1-0.4,1.6-0.4c0.6,0,1.1,0.1,1.6,0.4c0.5,0.3,0.8,0.6,1.1,1.1
	c0.3,0.5,0.4,1,0.4,1.6c0,0.6-0.1,1.1-0.4,1.6c-0.3,0.5-0.6,0.8-1.1,1.1C12.3,12.4,11.8,12.6,11.2,12.6z M11.2,11.4
	c0.5,0,0.9-0.2,1.3-0.5s0.5-0.8,0.5-1.3s-0.2-1-0.5-1.3c-0.3-0.3-0.7-0.5-1.3-0.5c-0.5,0-0.9,0.2-1.3,0.5C9.6,8.6,9.4,9,9.4,9.6
	s0.2,1,0.5,1.3C10.2,11.2,10.7,11.4,11.2,11.4z M24.6,6.6l-2.2,5.9h-1.3l-1.5-4l-1.5,4h-1.3l-2.2-5.9h1.3l1.6,4.3l1.6-4.3h1.2
	l1.6,4.4l1.6-4.4H24.6z M30.9,9.6c0,0.1,0,0.2,0,0.4h-4.6c0.1,0.4,0.3,0.8,0.6,1c0.3,0.2,0.8,0.4,1.3,0.4c0.6,0,1.2-0.2,1.6-0.6
	l0.7,0.8c-0.3,0.3-0.6,0.6-1,0.7c-0.4,0.2-0.9,0.2-1.4,0.2c-0.6,0-1.2-0.1-1.7-0.4c-0.5-0.3-0.9-0.6-1.1-1.1c-0.3-0.5-0.4-1-0.4-1.6
	c0-0.6,0.1-1.1,0.4-1.5c0.3-0.5,0.6-0.8,1.1-1.1s1-0.4,1.6-0.4c0.6,0,1.1,0.1,1.5,0.4c0.5,0.2,0.8,0.6,1.1,1.1
	C30.8,8.5,30.9,9,30.9,9.6z M28,7.7c-0.4,0-0.8,0.1-1.1,0.4c-0.3,0.3-0.5,0.6-0.5,1h3.3c-0.1-0.4-0.2-0.8-0.5-1
	C28.8,7.8,28.4,7.7,28,7.7z M33.6,7.5c0.4-0.6,1.1-0.9,2.1-0.9v1.3c-0.1,0-0.2,0-0.3,0c-0.5,0-1,0.2-1.3,0.5
	c-0.3,0.3-0.5,0.8-0.5,1.3v2.8h-1.4V6.6h1.3V7.5z M42.3,9.6c0,0.1,0,0.2,0,0.4h-4.6c0.1,0.4,0.3,0.8,0.6,1c0.3,0.2,0.8,0.4,1.3,0.4
	c0.6,0,1.2-0.2,1.6-0.6l0.7,0.8c-0.3,0.3-0.6,0.6-1,0.7c-0.4,0.2-0.9,0.2-1.4,0.2c-0.6,0-1.2-0.1-1.7-0.4c-0.5-0.3-0.9-0.6-1.1-1.1
	c-0.3-0.5-0.4-1-0.4-1.6c0-0.6,0.1-1.1,0.4-1.5c0.3-0.5,0.6-0.8,1.1-1.1c0.5-0.3,1-0.4,1.6-0.4c0.6,0,1.1,0.1,1.5,0.4
	c0.5,0.2,0.8,0.6,1.1,1.1C42.2,8.5,42.3,9,42.3,9.6z M39.3,7.7c-0.4,0-0.8,0.1-1.1,0.4c-0.3,0.3-0.5,0.6-0.5,1H41
	c-0.1-0.4-0.2-0.8-0.5-1C40.1,7.8,39.8,7.7,39.3,7.7z M49.4,4.3v8.2H48v-0.8c-0.2,0.3-0.5,0.5-0.8,0.6c-0.3,0.1-0.7,0.2-1.1,0.2
	c-0.6,0-1.1-0.1-1.5-0.4c-0.4-0.2-0.8-0.6-1.1-1.1c-0.3-0.5-0.4-1-0.4-1.6s0.1-1.1,0.4-1.6c0.3-0.5,0.6-0.8,1.1-1.1
	c0.5-0.2,1-0.4,1.5-0.4c0.4,0,0.7,0.1,1.1,0.2c0.3,0.1,0.6,0.3,0.8,0.6v-3H49.4z M46.3,11.4c0.3,0,0.6-0.1,0.9-0.2
	c0.3-0.2,0.5-0.4,0.6-0.6c0.2-0.3,0.2-0.6,0.2-1c0-0.4-0.1-0.7-0.2-1c-0.2-0.3-0.4-0.5-0.6-0.6c-0.3-0.2-0.6-0.2-0.9-0.2
	c-0.3,0-0.6,0.1-0.9,0.2c-0.3,0.1-0.5,0.4-0.6,0.6c-0.2,0.3-0.2,0.6-0.2,1c0,0.4,0.1,0.7,0.2,1c0.2,0.3,0.4,0.5,0.6,0.6
	C45.6,11.3,45.9,11.4,46.3,11.4z M59.8,8.5c0.4,0.1,0.8,0.4,1,0.7c0.2,0.3,0.4,0.7,0.4,1.2c0,0.7-0.3,1.2-0.8,1.6
	c-0.5,0.4-1.3,0.5-2.2,0.5h-3.8V4.8h3.6c0.9,0,1.6,0.2,2.1,0.5c0.5,0.4,0.7,0.8,0.7,1.5c0,0.4-0.1,0.7-0.3,1
	C60.3,8.1,60.1,8.3,59.8,8.5z M55.8,5.9V8h2c0.5,0,0.9-0.1,1.1-0.3c0.3-0.2,0.4-0.4,0.4-0.8c0-0.4-0.1-0.6-0.4-0.8
	c-0.3-0.2-0.6-0.3-1.1-0.3H55.8z M58.1,11.4c1.1,0,1.7-0.4,1.7-1.1c0-0.7-0.6-1.1-1.7-1.1h-2.3v2.2H58.1z M68.1,6.6L65.3,13
	c-0.3,0.6-0.6,1.1-0.9,1.3c-0.4,0.3-0.8,0.4-1.3,0.4c-0.3,0-0.6,0-0.9-0.1s-0.5-0.2-0.7-0.4l0.5-1c0.1,0.1,0.3,0.2,0.5,0.3
	c0.2,0.1,0.4,0.1,0.5,0.1c0.2,0,0.4-0.1,0.6-0.2c0.2-0.1,0.3-0.3,0.4-0.6l0.1-0.2l-2.6-5.9H63l1.8,4.3l1.9-4.3H68.1z"/>
<g>
	<path class="st1" d="M92.8,8.2V9c0,5-4.1,9-9,9c-4.9,0-9-4.1-9-9c0-5,4-9,9-9c2.3,0,4.5,0.8,6.2,2.5c0.2,0.2,0.4,0.4,0.7,0.7
		c0,0.1,0.1,0.1,0.1,0.2c0,0.1,0,0.2-0.1,0.2l-1.4,1.2c-0.1,0.1-0.2,0.1-0.3,0c-0.2-0.2-0.3-0.3-0.5-0.5c-1.2-1.2-2.8-1.8-4.6-1.8
		c-3.7,0-6.7,3-6.7,6.7s3,6.7,6.7,6.7c3.2,0,6-2.3,6.6-5.5h-1.6c0.1-0.3,0.2-0.8,0.2-1.2c0-0.4-0.1-0.8-0.2-1.2h3.7
		C92.6,7.8,92.8,8,92.8,8.2z"/>
	
		<linearGradient id="SVGID_1_" gradientUnits="userSpaceOnUse" x1="80.0249" y1="11.7529" x2="88.8508" y2="10.1967" gradientTransform="matrix(1 0 0 -1 0 20)">
		<stop  offset="0" style="stop-color:#777777"/>
		<stop  offset="0.1201" style="stop-color:#B2B2B2"/>
	</linearGradient>
	<path class="st2" d="M85.8,10.9c-0.5,0.5-1.2,0.8-2,0.8c-0.9,0-1.8-0.4-2.2-1.2c-0.1-0.2-0.2-0.3-0.3-0.5h-0.6
		c-0.6,0-1.1,0.5-1.1,1.1v0.6c0,0,0,0.1,0.1,0.1c0.9,1.3,2.5,2.2,4.2,2.2c1.2,0,2.4-0.5,3.3-1.2c1.1-0.9,1.8-2.3,1.8-3.9
		c0-2.8-2.3-5.2-5.2-5.2c-0.8,0-1.5,0.2-2.2,0.5c-0.2,0.1-0.2,0.2-0.1,0.4l1.1,1.5c0.1,0.1,0.2,0.2,0.3,0.1c0.2-0.1,0.6-0.2,0.9-0.2
		c1.6,0,2.8,1.2,2.8,2.8C86.6,9.8,86.3,10.4,85.8,10.9z"/>
	<path class="st3" d="M79.8,7.8h3.3c0.1,0,0.2,0.1,0.2,0.2l1.2,1.7c0.2,0.2,0,0.5-0.2,0.5h-3.1h-0.6c-0.6,0-1.1,0.5-1.1,1.1v0.6
		c-0.5-0.8-0.8-1.8-0.8-2.8C78.6,8.3,79.2,7.8,79.8,7.8z"/>
	<path class="st1" d="M98.6,9c0,1.5,1.2,2.7,2.7,2.7h2.7v-1.6h-2.7V8.6h4.2v4.6h-4.2c-2.3,0-4.2-1.8-4.2-4.2c0-2.3,1.8-4.2,4.2-4.2
		h4.2v1.5h-4.2C99.8,6.3,98.6,7.5,98.6,9z M113.4,11.7v1.5h-4.2c-0.4,0-0.8-0.1-1.2-0.2c-0.5-0.2-0.9-0.7-1.2-1.2
		c-0.2-0.3-0.2-0.8-0.2-1.2V4.9h1.5v5.7c0.1,0.5,0.5,0.9,1,1H113.4z M130.9,10.5c0,1.4-1.2,2.7-2.7,2.7h-5.6V4.9h5.2
		c1.2,0,2.2,1,2.2,2.3c0,0.4-0.2,0.8-0.3,1.2C130.4,8.8,130.9,9.6,130.9,10.5z M124,7.8h3.8c0.4,0,0.8-0.3,0.8-0.8
		c0-0.4-0.3-0.7-0.8-0.7H124V7.8z M128.2,11.7c0.7,0,1.2-0.5,1.2-1.2c0-0.7-0.5-1.2-1.2-1.2H124v2.3H128.2z M139.7,13.2H138
		l-0.7-1.5l-1.8-3.6l-1.8,3.6l-0.8,1.5h-1.7l0.8-1.5l3.5-6.8l3.5,6.8L139.7,13.2z M146.9,11.7v1.5h-4.2c-0.4,0-0.8-0.1-1.2-0.2
		c-0.5-0.2-0.9-0.7-1.2-1.2c-0.2-0.3-0.2-0.8-0.2-1.2V4.9h1.5v5.7c0.1,0.5,0.5,0.9,1,1H146.9z"/>
	<path class="st1" d="M117.5,4.8c-2.2,0-4.2,1.8-4.2,4.2c0,2.3,1.8,4.2,4.2,4.2c2.3,0,4.2-1.8,4.2-4.2
		C121.7,6.7,119.8,4.8,117.5,4.8z M117.5,12.7c-2,0-3.7-1.7-3.7-3.7c0-2,1.7-3.7,3.7-3.7s3.7,1.7,3.7,3.7
		C121.2,11,119.5,12.7,117.5,12.7z"/>
	<path class="st3" d="M117.5,5.8c-1.8,0-3.2,1.4-3.2,3.2s1.4,3.2,3.2,3.2s3.2-1.4,3.2-3.2S119.3,5.8,117.5,5.8z M117.5,11.3
		c-1.3,0-2.3-1.1-2.3-2.3c0-1.3,1.1-2.3,2.3-2.3s2.3,1.1,2.3,2.3C119.9,10.3,118.9,11.3,117.5,11.3z"/>
	
		<linearGradient id="SVGID_00000048466069362444371380000002272583237862460802_" gradientUnits="userSpaceOnUse" x1="135.5255" y1="6.4804" x2="135.5255" y2="8.0833" gradientTransform="matrix(1 0 0 -1 0 20)">
		<stop  offset="0" style="stop-color:#878787"/>
		<stop  offset="1" style="stop-color:#B2B2B2"/>
	</linearGradient>
	<path style="fill:url(#SVGID_00000048466069362444371380000002272583237862460802_);" d="M135.5,13.2c0.5,0,0.9-0.4,0.9-0.9
		c0-0.5-0.4-0.9-0.9-0.9c-0.5,0-0.9,0.4-0.9,0.9C134.6,12.8,135,13.2,135.5,13.2z"/>
	<path class="st3" d="M157.1,5.2c0,0.1,0,0.2-0.1,0.2l-1.1,1.7c-0.8,0.2-1.4,0.7-1.8,1.2l2.2-3.4c0.2-0.2,0.4-0.2,0.6-0.1
		C157,5,157.1,5.2,157.1,5.2z"/>
	<path class="st1" d="M160.8,6.8c-0.2,0.1-0.4,0.2-0.7,0.4v-2c0-0.2,0.2-0.3,0.3-0.4h0.1h4.4c0.2,0,0.4,0.2,0.4,0.4
		s-0.2,0.4-0.4,0.4h-4v1.1C160.9,6.8,160.9,6.8,160.8,6.8z M162.4,7.2c-0.6,0-1.1,0.1-1.5,0.3c-0.2,0.2-0.5,0.3-0.8,0.5
		c-0.1,0.1-0.1,0.2-0.1,0.3c0,0.1,0,0.2,0.1,0.2c0.1,0.2,0.2,0.2,0.3,0.2c0.1,0,0.2-0.1,0.3-0.1l0.1-0.1c0.4-0.3,0.9-0.5,1.4-0.5
		c1.2,0,2.2,1,2.2,2.2c0,1.2-1,2.2-2.2,2.2c-0.8,0-1.5-0.4-1.9-1.1l-1.2-2.4c0-0.1-0.2-0.4-0.2-0.4c-0.6-0.8-1.5-1.3-2.5-1.3
		c-1.7,0-3,1.3-3,3v0.1c0,1.6,1.3,2.9,2.9,2.9h0.1c0.8,0,1.6-0.3,2.2-0.9c0.2-0.2,0.2-0.3,0.1-0.5c-0.1-0.2-0.2-0.2-0.3-0.2
		c-0.1,0-0.2,0.1-0.3,0.1c-0.2,0.2-0.4,0.3-0.7,0.5c-0.2,0.1-0.6,0.2-0.8,0.2c-0.6,0-1.2-0.2-1.5-0.7c-0.4-0.4-0.7-0.9-0.7-1.5
		c0-1.2,1-2.2,2.2-2.2c0.8,0,1.5,0.4,1.9,1.1l1.2,2.4c0,0.1,0.2,0.4,0.2,0.4c0.6,0.8,1.5,1.3,2.5,1.3c1.7,0,3-1.3,3-3v-0.1
		C165.4,8.5,164.1,7.2,162.4,7.2z M150.7,7.5l1.7-1.7c0.1-0.1,0.2-0.3,0.2-0.3c0-0.2-0.2-0.5-0.5-0.5h-3.4c-0.2,0-0.4,0.2-0.4,0.4
		c0,0.2,0.2,0.4,0.4,0.4h0.2h2.4l-1.7,1.7c-0.1,0.1-0.2,0.3-0.2,0.3c0,0.3,0.2,0.5,0.5,0.5h0.1c0.6,0,1.1,0.2,1.5,0.6
		c0.4,0.4,0.6,0.8,0.6,1.4c0,0.6-0.2,1.1-0.6,1.5c-0.4,0.4-0.9,0.6-1.5,0.6c-0.7,0-1.3-0.3-1.8-0.9c-0.1-0.1-0.2-0.2-0.3-0.2
		c-0.1,0-0.2,0-0.2,0.1c-0.1,0.1-0.2,0.2-0.2,0.2c0,0.1,0,0.2,0.1,0.3c0.6,0.8,1.4,1.2,2.4,1.2c0.8,0,1.5-0.2,2.1-0.8
		c0.6-0.6,0.8-1.2,0.8-2.1c0-0.8-0.2-1.4-0.8-1.9C151.9,7.8,151.4,7.6,150.7,7.5z"/>
</g>
</svg>
