<svg width="12" height="12" viewBox="0 0 12 12" fill="none" xmlns="http://www.w3.org/2000/svg">
<g clip-path="url(#clip0_21381_104589)">
<path d="M1 6V3H3.25V2.5C3.25 2.10218 3.40804 1.72064 3.68934 1.43934C3.97064 1.15804 4.35218 1 4.75 1C5.14782 1 5.52936 1.15804 5.81066 1.43934C6.09196 1.72064 6.25 2.10218 6.25 2.5V3H8.5V6H9.5C9.89782 6 10.2794 6.15804 10.5607 6.43934C10.842 6.72064 11 7.10218 11 7.5C11 7.89782 10.842 8.27936 10.5607 8.56066C10.2794 8.84196 9.89782 9 9.5 9H8.5V11H1V9H2C2.39782 9 2.77936 8.84196 3.06066 8.56066C3.34196 8.27936 3.5 7.89782 3.5 7.5C3.5 7.10218 3.34196 6.72064 3.06066 6.43934C2.77936 6.15804 2.39782 6 2 6H1Z" fill="#003A4D" stroke="#003A4D" stroke-linejoin="round"/>
</g>
<defs>
<clipPath id="clip0_21381_104589">
<rect width="12" height="12" fill="white"/>
</clipPath>
</defs>
</svg>
