<svg width="15" height="15" viewBox="0 0 15 15" fill="none" xmlns="http://www.w3.org/2000/svg">
<path d="M14.3347 3.39795C14.0171 4.7402 13.1674 6.5707 11.1497 8.8387L10.9397 10.9457C10.8837 11.4505 10.6579 11.9214 10.2992 12.281L8.21494 14.3687C8.14875 14.4356 8.06311 14.4799 7.97025 14.4952C7.87739 14.5105 7.78207 14.4961 7.69791 14.4539C7.61375 14.4118 7.54506 14.3442 7.50167 14.2606C7.45828 14.1771 7.4424 14.082 7.45631 13.989L7.69256 12.3273C7.72756 12.0823 7.68118 11.8085 7.57793 11.4908C7.51282 11.2964 7.44014 11.1047 7.36006 10.916L7.28831 10.7392C6.57519 10.5668 5.90756 10.16 5.37119 9.62183C4.83394 9.0837 4.42706 8.4152 4.25556 7.7012L4.07794 7.62858C3.88949 7.54957 3.69833 7.4772 3.50481 7.41158C3.18719 7.30745 2.91419 7.26108 2.66919 7.29608L1.01019 7.53233C0.917179 7.546 0.822229 7.52995 0.738882 7.48648C0.655534 7.443 0.588046 7.37431 0.546044 7.29021C0.504042 7.20611 0.489671 7.11089 0.504983 7.01814C0.520295 6.92539 0.564506 6.83984 0.63131 6.7737L2.71556 4.68595C3.07431 4.3272 3.54419 4.0997 4.04906 4.0437H4.05431L6.15431 3.83545C8.37944 1.8562 10.2012 1.0092 11.5452 0.681951C12.3239 0.492076 12.9364 0.478951 13.3652 0.517451C13.5787 0.537576 13.7458 0.569951 13.8639 0.598826C13.9223 0.613993 13.9689 0.627118 14.0039 0.638201C14.1649 0.690701 14.2481 0.751951 14.3111 0.896326L14.3364 0.960202C14.4043 1.16507 14.4504 1.37653 14.4738 1.59108C14.5219 2.01545 14.5184 2.62183 14.3347 3.39795ZM10.1102 9.93858L10.1452 9.90358L10.0516 10.8495C10.017 11.1516 9.88135 11.4331 9.66656 11.6483L8.53081 12.7858L8.57806 12.4533C8.64106 12.0106 8.54831 11.5845 8.42756 11.2126C8.38323 11.0801 8.33538 10.9488 8.28406 10.8188C8.92981 10.762 9.56331 10.4863 10.1102 9.93858ZM5.05444 4.87495C4.50756 5.4227 4.23194 6.05708 4.17594 6.7037C4.04598 6.65238 3.91469 6.60453 3.78219 6.5602C3.41119 6.43945 2.98594 6.3467 2.54319 6.4097L2.21069 6.45695L3.34819 5.31945C3.56256 5.1042 3.84344 4.96858 4.14444 4.93445L5.08944 4.84083L5.05444 4.87495ZM13.2847 1.40908C12.9522 1.37933 12.4386 1.38545 11.7569 1.5517C10.3937 1.8842 8.32956 2.8607 5.68706 5.50758C5.14456 6.05008 4.98794 6.68008 5.08594 7.3022C5.17956 7.8937 5.50856 8.49395 6.00294 8.9892C6.49644 9.48358 7.09668 9.81258 7.68644 9.90708C8.30768 10.0051 8.93681 9.84845 9.47843 9.30508C12.1726 6.60745 13.1464 4.54158 13.4649 3.19145C13.6251 2.51683 13.6224 2.01458 13.5857 1.69258C13.5765 1.60945 13.5634 1.52682 13.5463 1.44495C13.4595 1.42858 13.3719 1.41661 13.2838 1.40908H13.2847Z" fill="white"/>
</svg>
