<svg width="400" height="210" viewBox="0 0 400 210" fill="none" xmlns="http://www.w3.org/2000/svg">
<g clip-path="url(#clip0_40064_130118)">
<rect width="400" height="210" fill="white"/>
<g opacity="0.8">
<path opacity="0.5" d="M318.36 21.4015C316.716 19.1687 313.319 21.5909 314.855 23.8981C315.254 24.5071 315.694 25.0889 316.114 25.6505C321.169 32.4774 323.788 40.7656 326.041 48.9524C326.596 50.9822 327.131 53.1135 326.501 55.0959C327.408 49.7779 326.82 44.2704 325.453 39.0539C324.086 33.8373 322.001 28.844 319.775 23.8846C319.391 23.0099 318.917 22.1777 318.36 21.4015Z" fill="#D9E2E4"/>
<path d="M285.554 35.7385C282.17 35.6302 281.71 40.8062 285.107 41.0768C286 41.1445 286.894 41.1648 287.753 41.1918C298.195 41.476 308.055 45.2514 317.563 49.311C319.891 50.3123 322.3 51.4355 323.701 53.5735C319.424 48.6141 313.787 44.9808 307.798 42.3082C301.809 39.6357 295.421 37.8833 289.039 36.2189C287.899 35.9306 286.73 35.7695 285.554 35.7385Z" fill="#D9E2E4"/>
<path opacity="0.2" d="M286.494 48.4654C284.342 48.5398 284.829 51.6048 286.995 51.6184C287.563 51.6184 288.132 51.6184 288.673 51.5778C295.258 51.3071 302.005 53.1272 308.549 55.1231C310.159 55.617 311.851 56.1718 313.022 57.3762C309.547 54.6939 305.608 52.6733 301.403 51.4154C297.262 50.1836 293.037 49.2542 288.761 48.6346C288.013 48.5005 287.254 48.4438 286.494 48.4654Z" fill="#D9E2E4"/>
<path opacity="0.5" d="M330.578 105.34C331.187 107.41 334.029 106.179 333.508 104.075C333.373 103.527 333.21 102.985 333.055 102.464C331.16 96.1517 331.248 89.1625 331.559 82.3289C331.64 80.6509 331.755 78.8715 332.628 77.4438C330.894 81.4734 329.914 85.7872 329.739 90.1706C329.57 94.49 329.717 98.8159 330.179 103.114C330.237 103.867 330.371 104.613 330.578 105.34Z" fill="#D9E2E4"/>
<path opacity="0.2" d="M290.42 18.5129C289.128 18.2897 289.026 20.1774 290.319 20.4615C290.657 20.536 290.995 20.5968 291.327 20.651C295.293 21.3276 299.089 23.2694 302.743 25.2924C303.685 25.7239 304.506 26.3817 305.132 27.2072C303.396 25.1631 301.3 23.4546 298.947 22.1665C296.63 20.9073 294.226 19.8152 291.753 18.8986C291.322 18.7293 290.875 18.6002 290.42 18.5129Z" fill="#D9E2E4"/>
<path d="M270.402 68.56C267.113 70.2515 269.894 74.8997 273.271 73.357C274.158 72.9511 275.017 72.4978 275.843 72.0715C285.899 66.855 297.573 64.9402 309.063 63.4585C311.879 63.0999 314.883 62.7819 317.496 63.8982C310.383 61.8685 302.817 61.7264 295.502 62.545C288.186 63.3637 281.074 65.2514 274.029 67.1662C272.776 67.5063 271.56 67.9733 270.402 68.56Z" fill="#D9E2E4"/>
<path opacity="0.5" d="M279.801 86.6454C277.432 88.8511 281.154 91.456 283.604 89.3518C284.281 88.797 284.869 88.2084 285.465 87.6536C292.665 80.8876 302.187 76.0838 311.668 71.6453C313.996 70.556 323.571 69.4464 326.13 69.5073C319.45 70.1027 305.828 72.2137 299.737 74.92C293.791 77.7453 288.044 80.9711 282.535 84.575C281.56 85.1777 280.645 85.8709 279.801 86.6454Z" fill="#D9E2E4"/>
<path d="M296.666 115.523C295.989 118.675 300.489 118.723 301.328 115.57C301.545 114.744 301.721 113.912 301.89 113.121C303.974 103.466 309.07 94.088 314.349 85.0555C315.648 82.8362 322.896 76.4762 325.034 75.0757C319.878 79.3653 309.842 88.8309 306.417 94.5481C303.132 100.253 300.236 106.173 297.748 112.268C297.285 113.316 296.922 114.406 296.666 115.523Z" fill="#D9E2E4"/>
<path d="M330.614 4.66949C329.003 1.388 324.401 4.08762 325.876 7.45706C326.262 8.33664 326.689 9.19591 327.101 10.0214C332.055 20.0485 333.76 31.6724 335.039 43.046C335.351 45.8471 335.615 48.8241 334.478 51.3952C336.555 44.3789 336.833 36.8822 336.115 29.6223C335.398 22.3625 333.686 15.3123 331.899 8.28251C331.595 7.03759 331.164 5.82698 330.614 4.66949Z" fill="#D9E2E4"/>
<path d="M304.962 10.2583C305.046 10.3078 305.141 10.3357 305.239 10.3395C305.415 10.3395 305.543 10.1568 305.618 9.99447C306.017 9.12166 305.787 7.96468 306.41 7.28809C307.039 8.04341 307.546 8.8927 307.912 9.80502L310.274 9.0743C310.384 9.53236 310.401 10.0079 310.325 10.4727C310.248 10.9375 310.079 11.3823 309.827 11.7807C310.24 11.9637 310.616 12.2205 310.937 12.5385C311.097 12.6997 311.209 12.9021 311.26 13.1231C311.311 13.3441 311.3 13.5751 311.228 13.7902C310.683 13.9218 310.123 13.9765 309.563 13.9525C309.651 14.9911 309.59 16.037 309.381 17.0581C309.375 17.1339 309.354 17.2077 309.319 17.2751C309.284 17.3426 309.236 17.4023 309.178 17.4505C309.008 17.5656 308.778 17.4505 308.602 17.3558C307.79 16.8587 307.121 16.1593 306.66 15.326L305.76 17.3423C305.696 17.5575 305.557 17.7424 305.368 17.8633C305.234 17.9104 305.089 17.9113 304.955 17.8659C304.822 17.8205 304.707 17.7314 304.63 17.6129C304.486 17.3691 304.398 17.0964 304.373 16.8145L304.041 14.7848C304.037 14.6807 303.999 14.5808 303.933 14.5006C303.834 14.4258 303.711 14.3897 303.588 14.3991C302.749 14.3991 301.916 14.3991 301.084 14.3991C300.942 13.9525 301.382 13.5398 301.808 13.3571C302.234 13.1745 302.742 13.0256 302.958 12.6129C303.391 11.7671 302.282 10.5831 302.742 9.86591C303.324 9.054 304.231 9.89974 304.962 10.2583Z" fill="#D9E2E4"/>
<path opacity="0.5" d="M350.568 21.4015C352.213 19.1687 355.603 21.5909 354.074 23.8981C353.668 24.5071 353.235 25.0889 352.815 25.6505C347.76 32.4774 345.141 40.7656 342.881 48.9524C342.326 50.9822 341.791 53.1135 342.427 55.0959C341.52 49.7779 342.109 44.2704 343.476 39.0539C344.843 33.8373 346.954 28.844 349.147 23.9049C349.534 23.0243 350.011 22.1855 350.568 21.4015Z" fill="#D9E2E4"/>
<path d="M383.369 35.7385C386.753 35.6302 387.213 40.8062 383.816 41.0768C382.929 41.1445 382.029 41.1648 381.176 41.1918C370.728 41.476 360.875 45.2514 351.366 49.311C349.039 50.3123 346.589 51.4355 345.229 53.5735C349.505 48.6141 355.136 44.9808 361.132 42.3082C367.127 39.6357 373.502 37.8833 379.891 36.2189C381.029 35.9311 382.195 35.77 383.369 35.7385Z" fill="#D9E2E4"/>
<path opacity="0.5" d="M382.428 48.4655C384.587 48.5399 384.1 51.6049 381.934 51.6184C381.366 51.6184 380.797 51.6184 380.256 51.5778C373.665 51.3072 366.924 53.1272 360.38 55.1232C358.77 55.6171 357.071 56.1719 355.907 57.3762C359.382 54.6939 363.321 52.6734 367.527 51.4154C371.678 50.1774 375.915 49.2435 380.202 48.6211C380.937 48.494 381.683 48.4419 382.428 48.4655Z" fill="#D9E2E4"/>
<path opacity="0.2" d="M378.509 18.5129C379.802 18.2897 379.903 20.1774 378.611 20.4615C378.272 20.536 377.934 20.5968 377.602 20.651C373.637 21.3276 369.833 23.2694 366.179 25.2924C365.239 25.7241 364.42 26.3819 363.797 27.2072C365.531 25.1633 367.625 23.4548 369.975 22.1665C372.295 20.9085 374.702 19.8165 377.176 18.8986C377.607 18.7293 378.054 18.6002 378.509 18.5129Z" fill="#D9E2E4"/>
<path opacity="0.2" d="M344.749 109.257C344.458 110.543 342.678 109.934 342.915 108.581C342.976 108.243 343.057 107.904 343.131 107.579C344.031 103.662 343.706 99.4062 343.246 95.2587C343.213 94.2248 342.922 93.2156 342.4 92.3223C343.618 94.7082 344.386 97.2974 344.667 99.961C344.939 102.586 345.018 105.227 344.904 107.864C344.901 108.332 344.849 108.799 344.749 109.257Z" fill="#D9E2E4"/>
<path opacity="0.5" d="M377.676 100.726C378.691 102.444 376.2 102.329 375.104 100.611C374.82 100.164 374.556 99.7106 374.305 99.2573C371.22 94.0137 366.53 88.8242 361.8 83.8106C360.679 82.5109 359.373 81.3846 357.922 80.4683C361.61 82.9853 365.014 85.896 368.073 89.149C371.105 92.3222 373.784 95.6308 376.41 98.9325C376.873 99.5004 377.295 100.1 377.676 100.726Z" fill="#D9E2E4"/>
<path opacity="0.2" d="M287.583 100.726C286.568 102.444 289.058 102.329 290.148 100.611C290.439 100.164 290.703 99.7106 290.953 99.2573C294.039 94.0137 298.729 88.8242 303.459 83.8106C304.578 82.5094 305.885 81.3828 307.337 80.4683C303.647 82.9835 300.243 85.8943 297.186 89.149C294.154 92.3222 291.467 95.6308 288.848 98.9325C288.386 99.5004 287.963 100.1 287.583 100.726Z" fill="#D9E2E4"/>
<path opacity="0.2" d="M320.532 109.257C320.823 110.543 322.603 109.934 322.366 108.581C322.305 108.243 322.224 107.904 322.15 107.579C321.25 103.662 321.575 99.4062 322.035 95.2587C322.068 94.2248 322.359 93.2156 322.881 92.3223C321.673 94.7168 320.916 97.313 320.647 99.9813C320.376 102.606 320.297 105.247 320.411 107.884C320.404 108.345 320.445 108.805 320.532 109.257Z" fill="#D9E2E4"/>
<path opacity="0.2" d="M368.127 31.4017C369.42 31.1717 369.521 33.0594 368.229 33.3503C367.89 33.4247 367.552 33.4789 367.22 33.533C363.255 34.2096 359.458 36.1582 355.797 38.1812C354.857 38.6097 354.038 39.2654 353.415 40.0892C355.15 38.0452 357.246 36.3387 359.6 35.0553C361.915 33.7906 364.319 32.6983 366.794 31.7874C367.223 31.6119 367.67 31.4826 368.127 31.4017Z" fill="#D9E2E4"/>
<path opacity="0.2" d="M356.022 6.09739C357.138 5.4208 357.937 7.11905 356.84 7.87007C356.556 8.06628 356.258 8.2422 355.981 8.41811C352.55 10.5291 349.755 13.7497 347.123 16.9973C346.406 17.7424 345.892 18.6575 345.627 19.6564C346.471 17.1125 347.777 14.7456 349.478 12.6739C351.155 10.6387 352.978 8.72793 354.932 6.95667C355.266 6.63529 355.631 6.34748 356.022 6.09739Z" fill="#D9E2E4"/>
<path d="M398.526 68.56C401.815 70.2515 399.034 74.8997 395.657 73.357C394.77 72.9511 393.904 72.4978 393.085 72.0715C383.029 66.855 371.349 64.9402 359.865 63.4585C357.049 63.0999 354.045 62.7819 351.433 63.8982C358.538 61.8685 366.111 61.7264 373.426 62.545C380.742 63.3637 387.854 65.2514 394.899 67.1662C396.152 67.5074 397.367 67.9744 398.526 68.56Z" fill="#D9E2E4"/>
<path opacity="0.5" d="M389.128 86.6454C391.49 88.8511 387.774 91.456 385.318 89.3518C384.675 88.797 384.052 88.2084 383.464 87.6536C376.256 80.8876 366.735 76.0838 357.261 71.6453C354.933 70.556 345.35 69.4464 342.799 69.5073C349.478 70.1027 363.101 72.2137 369.191 74.92C375.14 77.7453 380.889 80.971 386.401 84.575C387.373 85.1781 388.286 85.8713 389.128 86.6454Z" fill="#D9E2E4"/>
<path d="M361.251 119.122C361.542 122.336 357.049 121.829 356.616 118.588C356.501 117.742 356.433 116.896 356.365 116.085C355.506 106.247 351.628 96.3077 347.52 86.6797C346.512 84.3184 340.117 77.1059 338.168 75.4482C342.749 80.3468 351.52 91.0099 354.2 97.0993C356.744 103.168 358.873 109.403 360.574 115.76C360.903 116.857 361.13 117.983 361.251 119.122Z" fill="#D9E2E4"/>
<path d="M363.959 10.2583C363.875 10.3078 363.779 10.3357 363.681 10.3395C363.499 10.3395 363.377 10.1568 363.303 9.99447C362.896 9.12166 363.133 7.96468 362.511 7.28809C361.881 8.04341 361.375 8.8927 361.008 9.80502L358.647 9.0743C358.535 9.53222 358.517 10.008 358.594 10.4731C358.67 10.9382 358.84 11.3829 359.093 11.7807C358.678 11.9637 358.3 12.2204 357.977 12.5385C357.819 12.7008 357.709 12.9035 357.658 13.1244C357.608 13.3452 357.62 13.5756 357.692 13.7902C358.237 13.9221 358.797 13.9767 359.357 13.9525C359.27 14.9909 359.329 16.0363 359.533 17.0581C359.547 17.2103 359.62 17.3511 359.736 17.4505C359.912 17.5656 360.142 17.4505 360.318 17.3558C361.13 16.8587 361.8 16.1593 362.26 15.326L363.14 17.4235C363.202 17.6398 363.342 17.8255 363.533 17.9445C363.665 17.9924 363.809 17.9937 363.942 17.9481C364.075 17.9026 364.188 17.813 364.263 17.6941C364.412 17.452 364.502 17.1787 364.527 16.8957L364.852 14.8659C364.862 14.7619 364.902 14.663 364.967 14.5818C365.066 14.507 365.189 14.4709 365.312 14.4803C366.145 14.4803 366.984 14.4803 367.816 14.4803C367.958 14.0337 367.512 13.621 367.085 13.4383C366.659 13.2557 366.158 13.1068 365.942 12.6941C365.509 11.8483 366.618 10.6643 366.152 9.94711C365.603 9.054 364.697 9.89974 363.959 10.2583Z" fill="#D9E2E4"/>
<path opacity="0.2" d="M371.094 107.539C371.009 107.588 370.914 107.616 370.816 107.62C370.634 107.62 370.512 107.444 370.437 107.282C370.038 106.402 370.268 105.252 369.646 104.535C369.018 105.291 368.511 106.14 368.143 107.052L365.782 106.321C365.671 106.779 365.654 107.254 365.731 107.719C365.808 108.184 365.977 108.629 366.228 109.027C365.815 109.21 365.439 109.467 365.118 109.785C364.959 109.946 364.847 110.149 364.795 110.37C364.744 110.591 364.755 110.822 364.827 111.037C365.372 111.171 365.932 111.228 366.492 111.206C366.404 112.242 366.465 113.286 366.675 114.305C366.68 114.381 366.701 114.456 366.736 114.525C366.771 114.593 366.819 114.654 366.878 114.704C367.047 114.812 367.277 114.704 367.453 114.602C368.265 114.105 368.935 113.406 369.395 112.573L370.275 114.67C370.341 114.886 370.479 115.073 370.668 115.198C370.802 115.236 370.945 115.232 371.077 115.186C371.209 115.14 371.324 115.055 371.405 114.941C371.549 114.697 371.637 114.424 371.662 114.142L371.994 112.146C371.99 112.089 372 112.031 372.023 111.978C372.045 111.925 372.08 111.878 372.124 111.842C372.168 111.805 372.221 111.779 372.277 111.766C372.333 111.753 372.391 111.753 372.447 111.767C373.28 111.767 374.119 111.734 374.951 111.767C375.093 111.321 374.653 110.915 374.227 110.726C373.801 110.536 373.293 110.401 373.077 109.981C372.644 109.142 373.753 107.951 373.293 107.241C372.759 106.334 371.825 107.18 371.094 107.539Z" fill="#D9E2E4"/>
<path d="M391.117 42.3288C391.032 42.382 390.934 42.4102 390.833 42.41C390.657 42.41 390.535 42.2341 390.461 42.0717C390.055 41.1989 390.285 40.0419 389.669 39.3247C389.04 40.0827 388.533 40.9342 388.167 41.8484L385.805 41.1109C385.693 41.5688 385.675 42.0447 385.751 42.5098C385.828 42.9749 385.998 43.4197 386.252 43.8173C385.836 43.9985 385.457 44.2555 385.135 44.5751C384.979 44.7383 384.869 44.9407 384.818 45.161C384.767 45.3813 384.776 45.6113 384.844 45.8268C385.391 45.9606 385.953 46.0176 386.516 45.9959C386.429 47.032 386.488 48.0752 386.692 49.0947C386.706 49.249 386.778 49.3919 386.895 49.4939C387.071 49.6022 387.294 49.4939 387.47 49.3992C388.284 48.9018 388.955 48.2026 389.419 47.3694L390.292 49.4669C390.355 49.684 390.495 49.8712 390.684 49.9946C390.818 50.0399 390.964 50.0392 391.097 49.9926C391.231 49.946 391.345 49.8563 391.422 49.7375C391.572 49.4959 391.662 49.2224 391.686 48.9391L392.011 46.9093C392.02 46.8085 392.057 46.7123 392.119 46.6319C392.219 46.5543 392.345 46.5179 392.471 46.5304C393.303 46.5304 394.136 46.5304 394.968 46.5304C395.117 46.0907 394.67 45.6779 394.244 45.4885C393.818 45.299 393.31 45.1637 393.1 44.751C392.667 43.9053 393.777 42.7212 393.31 42.004C392.755 41.1244 391.842 41.9702 391.117 42.3288Z" fill="#D9E2E4"/>
<path d="M311.067 117.296C310.951 117.366 310.818 117.406 310.682 117.411C310.431 117.411 310.255 117.16 310.154 116.93C309.592 115.719 309.917 114.136 309.051 113.114C308.176 114.167 307.47 115.349 306.96 116.619L303.664 115.604C303.511 116.242 303.487 116.904 303.594 117.551C303.701 118.199 303.937 118.818 304.287 119.373C303.708 119.624 303.182 119.982 302.737 120.428C302.517 120.653 302.363 120.935 302.291 121.241C302.22 121.548 302.233 121.868 302.331 122.167C303.092 122.353 303.876 122.433 304.659 122.404C304.535 123.85 304.62 125.306 304.909 126.727C304.926 126.939 305.026 127.136 305.187 127.275C305.32 127.33 305.466 127.346 305.608 127.322C305.751 127.298 305.883 127.235 305.992 127.14C307.131 126.439 308.065 125.449 308.699 124.271L309.924 127.194C310.011 127.497 310.206 127.757 310.472 127.925C310.658 127.99 310.86 127.991 311.047 127.927C311.234 127.863 311.393 127.738 311.5 127.573C311.702 127.235 311.825 126.856 311.859 126.463L312.319 123.683C312.325 123.537 312.377 123.397 312.468 123.283C312.608 123.18 312.782 123.132 312.955 123.148C314.119 123.148 315.283 123.101 316.441 123.148C316.644 122.526 316.021 121.957 315.432 121.693C314.843 121.43 314.133 121.24 313.835 120.665C313.226 119.488 314.796 117.85 314.126 116.836C313.348 115.618 312.082 116.802 311.067 117.296Z" fill="#D9E2E4"/>
<path d="M277.766 44.2775C277.647 44.3481 277.512 44.3877 277.374 44.3925C277.13 44.3925 276.954 44.1422 276.846 43.9121C276.291 42.6942 276.609 41.1178 275.75 40.0894C274.873 41.1439 274.165 42.3286 273.652 43.6009L270.363 42.5792C270.207 43.218 270.182 43.8817 270.289 44.5305C270.396 45.1793 270.633 45.7998 270.986 46.3546C270.406 46.6039 269.88 46.9622 269.436 47.4101C269.214 47.6341 269.059 47.9152 268.987 48.2221C268.915 48.5291 268.93 48.8499 269.03 49.149C269.791 49.3338 270.575 49.4112 271.358 49.379C271.235 50.8244 271.317 52.2799 271.601 53.7024C271.609 53.8093 271.638 53.9136 271.687 54.009C271.736 54.1044 271.803 54.1888 271.886 54.2573C272.129 54.4129 272.441 54.2573 272.691 54.1219C273.829 53.4186 274.762 52.4295 275.398 51.2532L276.623 54.1761C276.714 54.4748 276.905 54.7329 277.164 54.9068C277.35 54.9719 277.553 54.9725 277.739 54.9087C277.926 54.8449 278.086 54.7203 278.193 54.555C278.396 54.2172 278.521 53.838 278.558 53.4453L279.012 50.6578C279.023 50.5144 279.078 50.3778 279.167 50.2653C279.306 50.159 279.481 50.1105 279.655 50.13C280.812 50.13 281.976 50.0827 283.14 50.0894C283.336 49.4737 282.72 48.8986 282.125 48.6415C281.529 48.3844 280.825 48.1814 280.528 47.6063C279.925 46.4291 281.489 44.7985 280.825 43.7836C280.047 42.5995 278.782 43.77 277.766 44.2775Z" fill="#D9E2E4"/>
<path opacity="0.2" d="M378.849 89.4941C378.789 89.5337 378.719 89.5548 378.646 89.555C378.511 89.555 378.423 89.4197 378.362 89.3047C378.064 88.6281 378.24 87.8162 377.78 87.2749C377.313 87.832 376.939 88.4602 376.67 89.1355L374.918 88.5943C374.83 88.9372 374.814 89.2945 374.872 89.6437C374.929 89.993 375.057 90.3267 375.249 90.624C374.942 90.76 374.663 90.9503 374.424 91.1856C374.308 91.3068 374.228 91.457 374.191 91.6202C374.154 91.7834 374.162 91.9535 374.214 92.1126C374.617 92.2068 375.031 92.2478 375.445 92.2343C375.379 93.0014 375.424 93.7741 375.581 94.528C375.584 94.5851 375.599 94.6408 375.625 94.692C375.651 94.7431 375.686 94.7886 375.73 94.8257C375.858 94.9069 376.027 94.8257 376.156 94.7513C376.759 94.3778 377.254 93.853 377.591 93.2289L378.267 94.7783C378.316 94.9389 378.419 95.0776 378.558 95.1708C378.658 95.2044 378.766 95.204 378.865 95.1697C378.964 95.1354 379.049 95.0692 379.107 94.9813C379.214 94.8024 379.279 94.6009 379.296 94.3927L379.54 92.9109C379.537 92.8684 379.545 92.8258 379.562 92.7867C379.579 92.7477 379.605 92.7132 379.638 92.6862C379.671 92.6591 379.71 92.6403 379.752 92.6311C379.794 92.622 379.837 92.6228 379.878 92.6335C380.501 92.6335 381.116 92.6335 381.732 92.6335C381.841 92.302 381.509 91.9975 381.198 91.8622C380.886 91.7269 380.521 91.6186 380.345 91.3142C380.027 90.6849 380.859 89.8189 380.501 89.2844C380.142 88.7499 379.364 89.2303 378.849 89.4941Z" fill="#D9E2E4"/>
<path opacity="0.2" d="M333.582 115.611C333.519 115.65 333.446 115.671 333.372 115.672C333.244 115.672 333.149 115.536 333.095 115.415C332.797 114.772 332.966 113.933 332.513 113.385C332.045 113.945 331.668 114.575 331.396 115.252L329.65 114.711C329.563 115.054 329.548 115.411 329.605 115.76C329.662 116.109 329.79 116.443 329.982 116.741C329.674 116.874 329.393 117.065 329.156 117.302C329.038 117.422 328.956 117.572 328.917 117.735C328.879 117.899 328.887 118.07 328.94 118.229C329.345 118.324 329.762 118.365 330.178 118.351C330.112 119.118 330.155 119.89 330.307 120.645C330.311 120.701 330.326 120.755 330.351 120.805C330.377 120.855 330.412 120.9 330.455 120.936C330.584 121.024 330.753 120.936 330.882 120.868C331.487 120.495 331.984 119.97 332.323 119.346L333 120.895C333.049 121.056 333.151 121.194 333.291 121.287C333.39 121.321 333.498 121.321 333.597 121.286C333.697 121.252 333.782 121.186 333.839 121.098C333.947 120.919 334.012 120.718 334.029 120.509L334.272 119.028C334.277 118.951 334.306 118.878 334.353 118.818C334.429 118.766 334.519 118.74 334.611 118.743C335.226 118.743 335.842 118.743 336.465 118.743C336.566 118.412 336.241 118.107 335.923 117.972C335.605 117.837 335.247 117.729 335.077 117.424C334.753 116.795 335.585 115.929 335.233 115.394C334.881 114.86 334.123 115.34 333.582 115.611Z" fill="#D9E2E4"/>
<path opacity="0.5" d="M289.799 24.2026C289.738 24.2412 289.668 24.2622 289.596 24.2635C289.53 24.2517 289.469 24.2222 289.419 24.178C289.369 24.1339 289.331 24.0769 289.311 24.0132C289.014 23.3366 289.183 22.5247 288.73 21.9834C288.262 22.5413 287.885 23.1691 287.613 23.844L285.867 23.3028C285.781 23.6458 285.766 24.0028 285.823 24.3519C285.88 24.7009 286.008 25.0346 286.199 25.3325C285.891 25.4636 285.611 25.6519 285.373 25.8873C285.256 26.0074 285.174 26.1573 285.135 26.3206C285.097 26.484 285.105 26.6547 285.156 26.8143C285.561 26.9153 285.978 26.9564 286.395 26.9361C286.329 27.7051 286.372 28.4796 286.523 29.2365C286.529 29.2929 286.545 29.3477 286.572 29.3976C286.599 29.4476 286.635 29.4917 286.679 29.5274C286.808 29.6086 286.97 29.5274 287.105 29.4598C287.709 29.0845 288.204 28.5572 288.54 27.9307L289.217 29.4868C289.263 29.6468 289.367 29.7841 289.508 29.8725C289.607 29.9061 289.715 29.9057 289.814 29.8714C289.913 29.8372 289.998 29.7709 290.056 29.683C290.164 29.5041 290.229 29.3026 290.245 29.0944L290.489 27.6194C290.494 27.5429 290.523 27.4698 290.57 27.4097C290.643 27.352 290.735 27.3252 290.827 27.3353C291.443 27.3353 292.066 27.3353 292.682 27.3353C292.783 27.0105 292.458 26.706 292.14 26.5639C291.822 26.4219 291.463 26.3204 291.294 26.0159C290.969 25.3934 291.809 24.5206 291.45 23.9861C291.091 23.4516 290.34 23.9388 289.799 24.2026Z" fill="#D9E2E4"/>
<path opacity="0.5" d="M313.1 75.7119C313.04 75.7522 312.969 75.7734 312.897 75.7728C312.761 75.7728 312.673 75.6442 312.619 75.5225C312.321 74.8459 312.49 74.034 312.03 73.4927C311.567 74.0525 311.193 74.68 310.92 75.3533L309.168 74.812C309.084 75.1553 309.07 75.5119 309.127 75.8606C309.184 76.2094 309.311 76.5431 309.499 76.8418C309.194 76.9769 308.916 77.1673 308.68 77.4034C308.563 77.5231 308.48 77.6729 308.442 77.8364C308.404 78 308.411 78.1708 308.464 78.3303C308.867 78.428 309.281 78.469 309.696 78.4521C309.632 79.2215 309.678 79.9959 309.831 80.7525C309.835 80.8085 309.85 80.8631 309.876 80.9131C309.901 80.9631 309.937 81.0074 309.98 81.0435C310.108 81.1247 310.278 81.0435 310.406 80.969C311.012 80.5965 311.509 80.0716 311.848 79.4467L312.524 80.9961C312.569 81.1586 312.673 81.2985 312.815 81.3885C312.914 81.4229 313.021 81.4229 313.119 81.3885C313.217 81.3541 313.301 81.2873 313.357 81.1991C313.467 81.0207 313.534 80.8192 313.553 80.6104L313.797 79.1355C313.796 79.0526 313.828 78.9727 313.885 78.9122C313.92 78.8826 313.961 78.8607 314.005 78.8479C314.05 78.8351 314.096 78.8316 314.142 78.8378C314.755 78.8378 315.371 78.8378 315.989 78.8378C316.097 78.513 315.773 78.2018 315.455 78.0665C315.137 77.9311 314.778 77.8229 314.609 77.5184C314.284 76.8959 315.116 76.0231 314.764 75.4886C314.412 74.9541 313.641 75.448 313.1 75.7119Z" fill="#D9E2E4"/>
<path opacity="0.5" d="M296.186 55.6371C296.124 55.6715 296.054 55.6922 295.983 55.698C295.919 55.6832 295.859 55.6517 295.81 55.6066C295.761 55.5614 295.726 55.5043 295.706 55.4409C295.408 54.7982 295.577 53.9592 295.117 53.4111C294.652 53.9716 294.277 54.6018 294.007 55.2785L292.254 54.7373C292.171 55.0806 292.158 55.4371 292.215 55.7857C292.272 56.1343 292.398 56.468 292.586 56.767C292.278 56.8981 291.998 57.0864 291.76 57.3219C291.645 57.443 291.565 57.5932 291.528 57.7564C291.491 57.9196 291.499 58.0897 291.551 58.2488C291.953 58.3501 292.368 58.3912 292.782 58.3706C292.719 59.1399 292.765 59.9144 292.918 60.671C292.922 60.727 292.937 60.7816 292.963 60.8316C292.988 60.8815 293.024 60.9259 293.067 60.9619C293.195 61.0431 293.364 60.9619 293.493 60.8943C294.098 60.5179 294.594 59.991 294.934 59.3652L295.611 60.9213C295.656 61.0802 295.757 61.2174 295.895 61.307C295.995 61.3406 296.103 61.3402 296.202 61.306C296.301 61.2717 296.386 61.2054 296.443 61.1176C296.554 60.9392 296.621 60.7377 296.64 60.5289L296.877 59.0539C296.882 58.9774 296.91 58.9043 296.958 58.8442C297.032 58.7854 297.127 58.7586 297.222 58.7698C297.835 58.7698 298.451 58.7698 299.069 58.7698C299.177 58.445 298.846 58.1405 298.535 57.9984C298.223 57.8564 297.858 57.7549 297.682 57.4504C297.364 56.8279 298.196 55.9551 297.844 55.4206C297.492 54.8861 296.728 55.3665 296.186 55.6371Z" fill="#D9E2E4"/>
<path opacity="0.5" d="M368.828 60.3603C368.768 60.4006 368.697 60.4218 368.625 60.4212C368.49 60.4212 368.402 60.2927 368.347 60.1709C368.05 59.4943 368.219 58.6824 367.759 58.1411C367.293 58.6992 366.919 59.3271 366.649 60.0017L364.896 59.4605C364.812 59.8037 364.798 60.1604 364.855 60.5091C364.912 60.8578 365.039 61.1915 365.228 61.4903C364.921 61.6262 364.641 61.8165 364.402 62.0518C364.287 62.173 364.206 62.3232 364.169 62.4864C364.132 62.6496 364.14 62.8197 364.192 62.9788C364.595 63.0767 365.01 63.1177 365.424 63.1006C365.361 63.8699 365.406 64.6444 365.559 65.401C365.563 65.457 365.579 65.5116 365.604 65.5615C365.63 65.6115 365.665 65.6558 365.708 65.6919C365.837 65.7731 366.006 65.6919 366.135 65.6175C366.74 65.245 367.237 64.72 367.576 64.0952L368.253 65.6446C368.297 65.807 368.401 65.947 368.544 66.037C368.642 66.0701 368.749 66.0695 368.847 66.0352C368.945 66.0008 369.029 65.9348 369.085 65.8475C369.195 65.6692 369.262 65.4677 369.281 65.2589L369.525 63.7839C369.521 63.7408 369.528 63.6974 369.545 63.6575C369.561 63.6175 369.587 63.5822 369.621 63.5543C369.654 63.5265 369.693 63.507 369.735 63.4975C369.778 63.488 369.821 63.4888 369.863 63.4997C370.481 63.4997 371.097 63.4997 371.711 63.4997C371.819 63.175 371.487 62.8637 371.176 62.7284C370.865 62.5931 370.499 62.4849 370.323 62.1804C370.005 61.5579 370.838 60.6851 370.486 60.1506C370.134 59.6161 369.376 60.0965 368.828 60.3603Z" fill="#D9E2E4"/>
<path opacity="0.2" d="M333.581 56.4087C333.518 56.4481 333.445 56.4692 333.371 56.4696C333.243 56.4696 333.148 56.341 333.094 56.2192C332.796 55.5426 332.965 54.7307 332.512 54.1895C332.044 54.7473 331.667 55.3752 331.395 56.0501L329.649 55.5088C329.563 55.8519 329.549 56.2089 329.606 56.5579C329.663 56.9069 329.79 57.2406 329.981 57.5386C329.673 57.6697 329.393 57.8579 329.155 58.0934C329.038 58.2135 328.956 58.3633 328.918 58.5267C328.88 58.6901 328.887 58.8608 328.939 59.0203C329.343 59.1217 329.76 59.1627 330.177 59.1421C330.111 59.9112 330.155 60.6856 330.306 61.4425C330.317 61.5547 330.37 61.6584 330.454 61.7335C330.583 61.8147 330.752 61.7335 330.881 61.6658C331.487 61.2914 331.984 60.7641 332.322 60.1367L332.999 61.6929C333.045 61.8529 333.149 61.9902 333.29 62.0785C333.389 62.1122 333.497 62.1118 333.596 62.0775C333.696 62.0432 333.781 61.9769 333.838 61.8891C333.946 61.7101 334.011 61.5087 334.028 61.3005L334.271 59.8255C334.276 59.749 334.305 59.6758 334.352 59.6157C334.425 59.558 334.517 59.5313 334.61 59.5413C335.225 59.5413 335.841 59.5413 336.464 59.5413C336.565 59.2165 336.241 58.9121 335.922 58.77C335.604 58.6279 335.246 58.5264 335.077 58.222C334.752 57.5995 335.584 56.7267 335.232 56.1922C334.88 55.6577 334.122 56.1448 333.581 56.4087Z" fill="#D9E2E4"/>
<path opacity="0.3" d="M322.517 61.226C322.455 61.2603 322.386 61.2811 322.314 61.2869C322.25 61.2721 322.19 61.2405 322.141 61.1954C322.093 61.1503 322.057 61.0932 322.037 61.0298C321.739 60.3532 321.908 59.548 321.448 59C320.981 59.5595 320.607 60.1899 320.338 60.8674L318.586 60.3194C318.503 60.6627 318.49 61.0191 318.547 61.3677C318.604 61.7162 318.73 62.0499 318.917 62.3491C318.609 62.4802 318.329 62.6685 318.092 62.9039C317.976 63.0251 317.896 63.1753 317.859 63.3385C317.822 63.5017 317.83 63.6718 317.882 63.8309C318.284 63.9322 318.699 63.9733 319.113 63.9527C319.05 64.722 319.096 65.4965 319.249 66.2531C319.253 66.3091 319.268 66.3637 319.294 66.4136C319.319 66.4636 319.355 66.508 319.398 66.544C319.526 66.6252 319.695 66.544 319.824 66.4764C320.429 66.1 320.925 65.5731 321.265 64.9473L321.942 66.5034C321.988 66.6634 322.092 66.8007 322.233 66.8891C322.332 66.9222 322.438 66.9216 322.536 66.8873C322.634 66.853 322.718 66.7869 322.775 66.6996C322.885 66.5213 322.952 66.3198 322.971 66.111L323.214 64.636C323.217 64.5602 323.243 64.487 323.289 64.4263C323.364 64.3675 323.458 64.3407 323.553 64.3519C324.171 64.3519 324.787 64.3519 325.4 64.3519C325.509 64.0271 325.177 63.7226 324.866 63.5805C324.554 63.4385 324.189 63.337 324.013 63.0325C323.695 62.41 324.527 61.5372 324.175 61.0027C323.823 60.4682 323.059 60.9554 322.517 61.226Z" fill="#D9E2E4"/>
<path opacity="0.2" d="M312.212 32.1055C312.149 32.1449 312.076 32.166 312.002 32.1664C311.873 32.1664 311.779 32.0378 311.725 31.916C311.427 31.2394 311.596 30.4275 311.143 29.8862C310.675 30.4441 310.298 31.072 310.026 31.7469L308.28 31.2056C308.193 31.5485 308.177 31.9058 308.234 32.2551C308.291 32.6043 308.42 32.9381 308.612 33.2354C308.305 33.3714 308.025 33.5616 307.786 33.7969C307.668 33.9166 307.586 34.0665 307.547 34.23C307.509 34.3935 307.517 34.5644 307.569 34.7239C307.975 34.8215 308.391 34.8625 308.808 34.8457C308.742 35.6147 308.786 36.3891 308.936 37.1461C308.948 37.2582 309.001 37.3619 309.085 37.437C309.214 37.5182 309.383 37.437 309.512 37.3626C310.119 36.9926 310.617 36.467 310.953 35.8403L311.63 37.3897C311.678 37.5502 311.781 37.6889 311.921 37.7821C312.02 37.8157 312.128 37.8153 312.227 37.781C312.326 37.7468 312.411 37.6805 312.469 37.5926C312.577 37.4137 312.642 37.2122 312.658 37.004L312.902 35.529C312.906 35.4523 312.935 35.3789 312.983 35.3193C313.056 35.2616 313.148 35.2348 313.24 35.2449C313.856 35.2449 314.479 35.2449 315.095 35.2449C315.196 34.9133 314.871 34.6089 314.553 34.4735C314.235 34.3382 313.877 34.23 313.707 33.9255C313.383 33.2963 314.215 32.4302 313.863 31.8957C313.511 31.3612 312.753 31.8416 312.212 32.1055Z" fill="#D9E2E4"/>
<path opacity="0.3" d="M332.519 70.1166C332.454 70.1501 332.383 70.1708 332.31 70.1775C332.181 70.1775 332.086 70.0422 332.032 69.9204C331.734 69.2776 331.904 68.4387 331.45 67.8906C330.983 68.4509 330.606 69.081 330.334 69.758L328.588 69.2167C328.501 69.5598 328.486 69.9169 328.543 70.266C328.6 70.6152 328.728 70.9489 328.919 71.2465C328.611 71.3776 328.331 71.5659 328.094 71.8013C327.976 71.9214 327.894 72.0713 327.856 72.2346C327.818 72.398 327.825 72.5687 327.877 72.7283C328.282 72.8293 328.699 72.8703 329.115 72.8501C329.05 73.6191 329.093 74.3936 329.244 75.1505C329.256 75.2626 329.309 75.3663 329.393 75.4414C329.522 75.5226 329.691 75.4414 329.826 75.3738C330.429 74.9972 330.923 74.4702 331.261 73.8447L331.937 75.4008C331.984 75.5608 332.087 75.6981 332.228 75.7865C332.328 75.8201 332.436 75.8197 332.535 75.7854C332.634 75.7511 332.719 75.6849 332.777 75.597C332.884 75.4181 332.949 75.2166 332.966 75.0084L333.21 73.5334C333.215 73.4569 333.243 73.3838 333.291 73.3237C333.363 73.266 333.456 73.2392 333.548 73.2493C334.164 73.2493 334.786 73.2493 335.402 73.2493C335.504 72.9245 335.179 72.62 334.861 72.4779C334.543 72.3359 334.184 72.2344 334.015 71.9299C333.69 71.3074 334.523 70.4346 334.171 69.9001C333.819 69.3656 333.061 69.8324 332.519 70.1166Z" fill="#D9E2E4"/>
</g>
<g opacity="0.8">
<path opacity="0.5" d="M51.0111 73.1861C49.3142 70.882 45.8085 73.3816 47.3937 75.7625C47.8058 76.3909 48.2597 76.9913 48.6926 77.5708C53.9092 84.6157 56.6118 93.1687 58.9373 101.617C59.5099 103.712 60.0617 105.911 59.4122 107.957C60.348 102.469 59.7404 96.7854 58.3297 91.4022C56.9191 86.0191 54.7682 80.8663 52.4707 75.7485C52.0748 74.8459 51.5856 73.9871 51.0111 73.1861Z" fill="#D9E2E4"/>
<path d="M17.1572 87.9812C13.6655 87.8695 13.1906 93.2108 16.6963 93.49C17.6181 93.5599 18.5399 93.5808 19.4268 93.6087C30.2022 93.902 40.3771 97.798 50.1888 101.987C52.5911 103.021 55.0772 104.18 56.5227 106.386C52.1092 101.268 46.292 97.5187 40.1117 94.7608C33.9314 92.0029 27.339 90.1945 20.7536 88.4769C19.5768 88.1795 18.3706 88.0133 17.1572 87.9812Z" fill="#D9E2E4"/>
<path opacity="0.2" d="M18.1275 101.114C15.9067 101.191 16.4095 104.354 18.6442 104.368C19.2308 104.368 19.8174 104.368 20.3761 104.326C27.171 104.047 34.1334 105.925 40.8864 107.985C42.5484 108.494 44.2943 109.067 45.5024 110.31C41.9165 107.542 37.8521 105.457 33.5119 104.159C29.2388 102.888 24.879 101.928 20.4669 101.289C19.6951 101.151 18.9112 101.092 18.1275 101.114Z" fill="#D9E2E4"/>
<path opacity="0.5" d="M63.6146 159.805C64.2431 161.942 67.1762 160.671 66.6385 158.5C66.4988 157.934 66.3312 157.376 66.1706 156.838C64.2152 150.324 64.306 143.111 64.6272 136.06C64.711 134.328 64.8298 132.492 65.7306 131.019C63.9407 135.177 62.9299 139.628 62.7487 144.152C62.5743 148.609 62.726 153.073 63.2026 157.508C63.2634 158.286 63.4014 159.055 63.6146 159.805Z" fill="#D9E2E4"/>
<path opacity="0.2" d="M22.1764 70.2049C20.8425 69.9745 20.7378 71.9225 22.0716 72.2157C22.4208 72.2925 22.7699 72.3554 23.1121 72.4112C27.2044 73.1094 31.1221 75.1133 34.8932 77.2009C35.8653 77.6461 36.7122 78.3249 37.3583 79.1768C35.5666 77.0674 33.4032 75.3044 30.9755 73.9752C28.5845 72.6758 26.1037 71.5488 23.5521 70.6029C23.1067 70.4282 22.6462 70.2949 22.1764 70.2049Z" fill="#D9E2E4"/>
<path d="M1.5192 121.851C-1.87475 123.596 0.995433 128.393 4.48016 126.801C5.39499 126.382 6.28187 125.915 7.13385 125.475C17.5112 120.092 29.5576 118.116 41.4155 116.587C44.3206 116.216 47.4212 115.888 50.1168 117.04C42.7773 114.946 34.9698 114.799 27.4207 115.644C19.8716 116.489 12.532 118.437 5.2623 120.413C3.96893 120.764 2.71474 121.246 1.5192 121.851Z" fill="#D9E2E4"/>
<path opacity="0.5" d="M11.2193 140.514C8.77514 142.79 12.616 145.478 15.144 143.306C15.8424 142.734 16.4499 142.126 17.0645 141.554C24.4948 134.572 34.3205 129.615 44.1042 125.034C46.5065 123.91 56.3881 122.765 59.0278 122.828C52.1352 123.443 38.0775 125.621 31.7925 128.414C25.6564 131.329 19.7255 134.658 14.0406 138.377C13.0351 138.999 12.0905 139.714 11.2193 140.514Z" fill="#D9E2E4"/>
<path d="M28.6211 170.313C27.9227 173.567 32.5667 173.616 33.4326 170.362C33.6561 169.51 33.8377 168.652 34.0123 167.835C36.1632 157.871 41.4217 148.194 46.8687 138.873C48.2096 136.583 55.6888 130.02 57.8955 128.575C52.5742 133.001 42.2178 142.769 38.6841 148.669C35.2941 154.556 32.3054 160.665 29.7384 166.955C29.2599 168.036 28.8858 169.161 28.6211 170.313Z" fill="#D9E2E4"/>
<path d="M63.6529 55.9196C61.9908 52.5333 57.2421 55.3192 58.7645 58.7962C59.1625 59.7039 59.6025 60.5906 60.0285 61.4424C65.1404 71.7898 66.9002 83.7849 68.2201 95.5217C68.5413 98.4122 68.8136 101.484 67.6404 104.138C69.7843 96.8971 70.0706 89.1611 69.3304 81.6693C68.5902 74.1776 66.8234 66.9023 64.9798 59.648C64.6654 58.3633 64.2208 57.1141 63.6529 55.9196Z" fill="#D9E2E4"/>
<path d="M37.1839 61.6867C37.271 61.7377 37.3693 61.7665 37.4702 61.7705C37.6518 61.7705 37.7844 61.582 37.8613 61.4144C38.2733 60.5137 38.0359 59.3198 38.6783 58.6216C39.3277 59.401 39.8508 60.2774 40.2286 61.2189L42.6658 60.4648C42.7796 60.9375 42.7974 61.4282 42.7182 61.9079C42.6391 62.3876 42.4646 62.8465 42.205 63.2576C42.6311 63.4465 43.0192 63.7115 43.3503 64.0396C43.5151 64.206 43.6304 64.4149 43.6834 64.6429C43.7365 64.871 43.7251 65.1093 43.6505 65.3313C43.0885 65.4671 42.5103 65.5235 41.9326 65.4989C42.0236 66.5706 41.9601 67.6499 41.744 68.7036C41.7383 68.7818 41.7168 68.858 41.6808 68.9276C41.6448 68.9972 41.595 69.0588 41.5345 69.1086C41.36 69.2273 41.1225 69.1086 40.941 69.0108C40.1028 68.4978 39.4122 67.7761 38.9367 66.9162L38.0079 68.9969C37.9419 69.2189 37.7981 69.4098 37.6029 69.5345C37.4654 69.5831 37.3156 69.5841 37.1775 69.5372C37.0394 69.4904 36.9212 69.3984 36.8417 69.2762C36.6934 69.0245 36.6028 68.7431 36.5763 68.4523L36.2341 66.3577C36.2302 66.2503 36.1909 66.1472 36.1224 66.0644C36.0204 65.9872 35.8938 65.95 35.7662 65.9597C34.9003 65.9597 34.0414 65.9597 33.1824 65.9597C33.0357 65.4989 33.4896 65.073 33.9296 64.8845C34.3695 64.6959 34.8933 64.5423 35.1168 64.1164C35.5637 63.2437 34.4184 62.0218 34.8933 61.2817C35.4939 60.4439 36.4297 61.3166 37.1839 61.6867Z" fill="#D9E2E4"/>
<path opacity="0.5" d="M84.2454 73.1861C85.9424 70.882 89.4411 73.3816 87.8628 75.7625C87.4438 76.3909 86.9969 76.9913 86.5639 77.5708C81.3473 84.6157 78.6447 93.1687 76.3122 101.617C75.7396 103.712 75.1879 105.911 75.8443 107.957C74.9085 102.469 75.5161 96.7854 76.9267 91.4022C78.3374 86.0191 80.5162 80.8663 82.7789 75.7695C83.1786 74.8608 83.67 73.9952 84.2454 73.1861Z" fill="#D9E2E4"/>
<path d="M118.093 87.9812C121.585 87.8695 122.06 93.2108 118.554 93.49C117.639 93.5599 116.71 93.5808 115.83 93.6087C105.048 93.902 94.88 97.798 85.0683 101.987C82.666 103.021 80.138 104.18 78.7344 106.386C83.1479 101.268 88.9581 97.5187 95.1454 94.7608C101.333 92.0029 107.911 90.1945 114.503 88.4769C115.678 88.18 116.882 88.0138 118.093 87.9812Z" fill="#D9E2E4"/>
<path opacity="0.5" d="M117.123 101.115C119.351 101.191 118.848 104.354 116.613 104.368C116.027 104.368 115.44 104.368 114.881 104.326C108.079 104.047 101.124 105.925 94.371 107.985C92.7089 108.495 90.956 109.067 89.7549 110.31C93.3408 107.542 97.4052 105.457 101.745 104.159C106.03 102.881 110.401 101.917 114.825 101.275C115.584 101.144 116.354 101.09 117.123 101.115Z" fill="#D9E2E4"/>
<path opacity="0.2" d="M113.078 70.2049C114.412 69.9745 114.517 71.9225 113.183 72.2157C112.834 72.2925 112.485 72.3554 112.143 72.4112C108.05 73.1094 104.126 75.1133 100.355 77.2009C99.3846 77.6464 98.54 78.3252 97.8965 79.1768C99.6857 77.0677 101.847 75.3046 104.272 73.9752C106.666 72.677 109.149 71.5501 111.703 70.6029C112.148 70.4282 112.609 70.2949 113.078 70.2049Z" fill="#D9E2E4"/>
<path opacity="0.2" d="M78.2387 163.848C77.9384 165.174 76.1018 164.546 76.3462 163.149C76.409 162.8 76.4928 162.451 76.5696 162.116C77.4984 158.073 77.1632 153.682 76.6884 149.402C76.6537 148.335 76.3537 147.293 75.8154 146.372C77.0715 148.834 77.8645 151.506 78.1549 154.254C78.4349 156.963 78.5166 159.689 78.3993 162.409C78.3957 162.893 78.3419 163.375 78.2387 163.848Z" fill="#D9E2E4"/>
<path opacity="0.5" d="M112.22 155.043C113.267 156.817 110.697 156.698 109.566 154.925C109.273 154.464 109 153.996 108.742 153.528C105.557 148.117 100.718 142.762 95.8364 137.588C94.6805 136.247 93.332 135.085 91.835 134.139C95.6412 136.737 99.1536 139.74 102.31 143.097C105.439 146.372 108.204 149.786 110.914 153.193C111.391 153.779 111.827 154.397 112.22 155.043Z" fill="#D9E2E4"/>
<path opacity="0.2" d="M19.2507 155.043C18.2032 156.817 20.7731 156.698 21.8974 154.925C22.1977 154.464 22.4701 153.996 22.7284 153.528C25.9129 148.117 30.7524 142.762 35.6338 137.588C36.7881 136.245 38.1369 135.083 39.6353 134.139C35.8277 136.735 32.3151 139.739 29.1602 143.097C26.0316 146.372 23.2592 149.786 20.5566 153.193C20.0793 153.779 19.643 154.397 19.2507 155.043Z" fill="#D9E2E4"/>
<path opacity="0.2" d="M53.2528 163.848C53.553 165.174 55.3897 164.546 55.1452 163.149C55.0824 162.8 54.9986 162.451 54.9218 162.116C53.993 158.073 54.3282 153.682 54.8031 149.402C54.8377 148.335 55.1377 147.293 55.676 146.372C54.4296 148.843 53.6484 151.522 53.3715 154.275C53.0915 156.984 53.0098 159.71 53.1271 162.43C53.1206 162.906 53.1627 163.381 53.2528 163.848Z" fill="#D9E2E4"/>
<path opacity="0.2" d="M102.367 83.5054C103.701 83.268 103.806 85.216 102.472 85.5162C102.123 85.593 101.774 85.6488 101.432 85.7047C97.3395 86.4029 93.4218 88.4137 89.6437 90.5013C88.6736 90.9436 87.8288 91.6202 87.1855 92.4703C88.9755 90.361 91.1394 88.6 93.5684 87.2757C95.9565 85.9705 98.4377 84.8433 100.992 83.9033C101.435 83.7222 101.896 83.5888 102.367 83.5054Z" fill="#D9E2E4"/>
<path opacity="0.2" d="M89.8711 57.3929C91.0234 56.6947 91.8474 58.4472 90.7161 59.2222C90.4228 59.4247 90.1155 59.6062 89.8292 59.7877C86.2886 61.9661 83.4044 65.2896 80.6879 68.6409C79.9489 69.4099 79.4178 70.3541 79.1445 71.3849C80.0159 68.7598 81.3628 66.3173 83.1181 64.1794C84.849 62.0792 86.7302 60.1074 88.7467 58.2796C89.0916 57.948 89.4682 57.651 89.8711 57.3929Z" fill="#D9E2E4"/>
<path d="M133.737 121.851C137.131 123.596 134.261 128.393 130.776 126.801C129.861 126.382 128.968 125.915 128.123 125.475C117.745 120.092 105.692 118.116 93.841 116.587C90.9359 116.216 87.8352 115.888 85.1396 117.04C92.4722 114.946 100.287 114.799 107.836 115.644C115.385 116.489 122.724 118.437 129.994 120.413C131.287 120.765 132.541 121.247 133.737 121.851Z" fill="#D9E2E4"/>
<path opacity="0.5" d="M124.034 140.514C126.471 142.79 122.637 145.478 120.102 143.306C119.439 142.734 118.797 142.126 118.189 141.554C110.752 134.572 100.926 129.615 91.1491 125.034C88.7469 123.91 78.8583 122.765 76.2256 122.828C83.1182 123.443 97.1758 125.621 103.461 128.414C109.599 131.329 115.532 134.658 121.22 138.377C122.223 138.999 123.165 139.715 124.034 140.514Z" fill="#D9E2E4"/>
<path d="M95.2716 174.027C95.5719 177.344 90.9349 176.82 90.488 173.476C90.3693 172.603 90.2994 171.73 90.2296 170.893C89.3427 160.741 85.3412 150.484 81.1023 140.549C80.0617 138.112 73.4624 130.669 71.4512 128.958C76.1789 134.013 85.2295 145.017 87.9949 151.301C90.6201 157.564 92.8179 163.997 94.5733 170.557C94.9124 171.69 95.1461 172.852 95.2716 174.027Z" fill="#D9E2E4"/>
<path d="M98.0644 61.6867C97.9773 61.7377 97.879 61.7665 97.7781 61.7705C97.5896 61.7705 97.4639 61.582 97.3871 61.4144C96.9681 60.5137 97.2124 59.3198 96.57 58.6216C95.9206 59.401 95.3975 60.2774 95.0197 61.2189L92.5825 60.4648C92.4671 60.9374 92.4485 61.4284 92.5277 61.9083C92.6069 62.3882 92.7823 62.8472 93.0434 63.2576C92.6151 63.4465 92.2247 63.7114 91.8911 64.0396C91.7281 64.2072 91.6145 64.4164 91.5628 64.6442C91.511 64.8721 91.5232 65.1099 91.5978 65.3313C92.1597 65.4674 92.7381 65.5238 93.3157 65.4989C93.2259 66.5704 93.287 67.6491 93.4973 68.7036C93.5119 68.8607 93.587 69.0059 93.7068 69.1086C93.8884 69.2273 94.1258 69.1086 94.3074 69.0108C95.1455 68.4978 95.8361 67.7761 96.3116 66.9162L97.2194 69.0807C97.2831 69.3039 97.4274 69.4955 97.6245 69.6183C97.7608 69.6677 97.9099 69.6691 98.0471 69.6221C98.1843 69.5751 98.3013 69.4826 98.3787 69.3599C98.5321 69.1101 98.6253 68.8281 98.6511 68.5361L98.9863 66.4415C98.9959 66.3341 99.0372 66.2321 99.105 66.1482C99.2069 66.071 99.3336 66.0337 99.4611 66.0435C100.32 66.0435 101.186 66.0435 102.045 66.0435C102.192 65.5827 101.731 65.1568 101.291 64.9682C100.851 64.7797 100.334 64.6261 100.111 64.2002C99.6636 63.3275 100.809 62.1056 100.327 61.3655C99.7614 60.4439 98.8256 61.3166 98.0644 61.6867Z" fill="#D9E2E4"/>
<path opacity="0.2" d="M105.425 162.074C105.338 162.125 105.24 162.154 105.139 162.158C104.95 162.158 104.824 161.976 104.748 161.809C104.336 160.901 104.573 159.714 103.931 158.974C103.283 159.755 102.76 160.631 102.38 161.571L99.943 160.817C99.8292 161.29 99.8114 161.781 99.8906 162.26C99.9698 162.74 100.144 163.199 100.404 163.61C99.9777 163.799 99.5897 164.064 99.2586 164.392C99.0938 164.559 98.9784 164.767 98.9254 164.995C98.8724 165.224 98.8838 165.462 98.9583 165.684C99.52 165.822 100.098 165.881 100.676 165.858C100.585 166.928 100.649 168.005 100.865 169.056C100.87 169.135 100.892 169.213 100.928 169.283C100.964 169.354 101.014 169.417 101.074 169.468C101.249 169.58 101.486 169.468 101.668 169.363C102.506 168.85 103.197 168.129 103.672 167.269L104.58 169.433C104.648 169.656 104.791 169.849 104.985 169.978C105.124 170.018 105.271 170.014 105.408 169.966C105.544 169.919 105.662 169.83 105.746 169.712C105.894 169.461 105.985 169.179 106.012 168.889L106.354 166.829C106.35 166.77 106.36 166.71 106.383 166.656C106.407 166.601 106.443 166.552 106.488 166.514C106.534 166.476 106.588 166.449 106.646 166.436C106.704 166.423 106.764 166.423 106.822 166.438C107.681 166.438 108.547 166.403 109.406 166.438C109.552 165.977 109.098 165.558 108.658 165.363C108.218 165.167 107.695 165.028 107.471 164.595C107.024 163.729 108.169 162.5 107.695 161.767C107.143 160.831 106.179 161.704 105.425 162.074Z" fill="#D9E2E4"/>
<path d="M126.091 94.7817C126.003 94.8366 125.902 94.8656 125.798 94.8654C125.616 94.8654 125.491 94.6839 125.414 94.5163C124.995 93.6157 125.232 92.4217 124.597 91.6816C123.948 92.4639 123.425 93.3425 123.046 94.2859L120.609 93.5249C120.493 93.9974 120.475 94.4885 120.554 94.9685C120.633 95.4484 120.809 95.9074 121.07 96.3177C120.641 96.5047 120.25 96.7699 119.918 97.0997C119.756 97.2682 119.643 97.477 119.59 97.7043C119.538 97.9316 119.547 98.169 119.618 98.3914C120.182 98.5295 120.762 98.5882 121.342 98.5659C121.252 99.6351 121.314 100.712 121.524 101.764C121.538 101.923 121.613 102.07 121.734 102.176C121.915 102.287 122.146 102.176 122.327 102.078C123.167 101.565 123.86 100.843 124.338 99.9833L125.239 102.148C125.305 102.372 125.449 102.565 125.644 102.692C125.783 102.739 125.933 102.738 126.07 102.69C126.208 102.642 126.326 102.55 126.405 102.427C126.56 102.178 126.653 101.895 126.678 101.603L127.013 99.5085C127.022 99.4044 127.061 99.3051 127.125 99.2222C127.228 99.1421 127.358 99.1046 127.488 99.1175C128.347 99.1175 129.206 99.1175 130.065 99.1175C130.218 98.6637 129.757 98.2378 129.318 98.0423C128.878 97.8468 128.354 97.7071 128.137 97.2812C127.69 96.4085 128.836 95.1866 128.354 94.4465C127.781 93.5389 126.838 94.4116 126.091 94.7817Z" fill="#D9E2E4"/>
<path d="M43.4819 172.143C43.3615 172.215 43.2245 172.256 43.0838 172.261C42.8255 172.261 42.6439 172.003 42.5391 171.766C41.9595 170.516 42.2947 168.882 41.4008 167.828C40.4977 168.914 39.7697 170.134 39.243 171.444L35.842 170.397C35.6843 171.055 35.6599 171.739 35.7703 172.406C35.8806 173.074 36.1235 173.713 36.4845 174.286C35.8875 174.545 35.3449 174.915 34.8853 175.375C34.6584 175.608 34.4994 175.898 34.4255 176.214C34.3517 176.53 34.3658 176.861 34.4663 177.17C35.2519 177.362 36.0604 177.444 36.8686 177.414C36.7414 178.906 36.8284 180.408 37.127 181.875C37.1446 182.094 37.2475 182.297 37.4133 182.441C37.5512 182.497 37.7018 182.514 37.8486 182.489C37.9953 182.464 38.1324 182.399 38.2443 182.301C39.4198 181.578 40.3834 180.556 41.0377 179.341L42.3017 182.357C42.3916 182.669 42.5928 182.938 42.8674 183.111C43.0594 183.178 43.2684 183.179 43.4609 183.113C43.6534 183.047 43.8181 182.919 43.9288 182.748C44.1367 182.399 44.2632 182.008 44.2989 181.603L44.7738 178.734C44.7793 178.583 44.8332 178.439 44.9274 178.322C45.0722 178.215 45.2512 178.165 45.4303 178.182C46.6314 178.182 47.8326 178.133 49.0267 178.182C49.2362 177.54 48.5937 176.953 47.9862 176.681C47.3786 176.409 46.6454 176.213 46.3381 175.62C45.7096 174.405 47.3297 172.715 46.6384 171.668C45.8353 170.411 44.5294 171.633 43.4819 172.143Z" fill="#D9E2E4"/>
<path d="M9.11959 96.7926C8.99667 96.8655 8.85737 96.9063 8.71454 96.9113C8.46313 96.9113 8.28159 96.6529 8.16985 96.4155C7.59721 95.1588 7.92543 93.532 7.03854 92.4707C6.13318 93.5589 5.40278 94.7815 4.87365 96.0944L1.47972 95.0401C1.31866 95.6993 1.29255 96.3842 1.40296 97.0537C1.51336 97.7232 1.758 98.3635 2.12218 98.9361C1.5242 99.1933 0.981293 99.563 0.522997 100.025C0.29408 100.256 0.133733 100.546 0.0597658 100.863C-0.0142014 101.18 0.00108154 101.511 0.103966 101.82C0.889749 102.01 1.69835 102.09 2.50626 102.057C2.37984 103.549 2.46451 105.051 2.7577 106.519C2.76529 106.629 2.79517 106.736 2.84559 106.835C2.89601 106.933 2.96589 107.02 3.05099 107.091C3.30239 107.252 3.62363 107.091 3.88202 106.951C5.05586 106.226 6.01897 105.205 6.67539 103.991L7.93939 107.007C8.03303 107.316 8.2304 107.582 8.49805 107.761C8.69009 107.828 8.8991 107.829 9.09158 107.763C9.28407 107.698 9.44889 107.569 9.55954 107.398C9.76967 107.05 9.89855 106.658 9.93663 106.253L10.4045 103.377C10.4166 103.229 10.4726 103.088 10.5652 102.972C10.7084 102.862 10.8886 102.812 11.0679 102.832C12.2621 102.832 13.4633 102.783 14.6644 102.79C14.8669 102.155 14.2315 101.561 13.6169 101.296C13.0024 101.031 12.2761 100.821 11.9688 100.228C11.3473 99.0129 12.9605 97.3302 12.2761 96.2829C11.473 95.061 10.1671 96.2689 9.11959 96.7926Z" fill="#D9E2E4"/>
<path opacity="0.2" d="M113.429 143.453C113.366 143.494 113.294 143.516 113.219 143.516C113.079 143.516 112.989 143.376 112.926 143.258C112.619 142.559 112.8 141.722 112.325 141.163C111.844 141.738 111.457 142.386 111.18 143.083L109.371 142.525C109.281 142.878 109.265 143.247 109.324 143.608C109.383 143.968 109.515 144.312 109.713 144.619C109.397 144.76 109.108 144.956 108.861 145.199C108.742 145.324 108.659 145.479 108.621 145.647C108.583 145.816 108.591 145.991 108.645 146.155C109.061 146.253 109.489 146.295 109.916 146.281C109.847 147.072 109.894 147.87 110.056 148.648C110.059 148.707 110.075 148.764 110.101 148.817C110.128 148.87 110.164 148.917 110.209 148.955C110.342 149.039 110.516 148.955 110.649 148.878C111.271 148.493 111.782 147.951 112.13 147.307L112.828 148.906C112.878 149.072 112.984 149.215 113.128 149.311C113.231 149.346 113.342 149.345 113.445 149.31C113.547 149.275 113.635 149.206 113.694 149.116C113.805 148.931 113.872 148.723 113.889 148.508L114.141 146.979C114.138 146.935 114.146 146.891 114.164 146.851C114.182 146.811 114.209 146.775 114.243 146.747C114.277 146.719 114.317 146.7 114.36 146.69C114.403 146.681 114.447 146.682 114.49 146.693C115.133 146.693 115.768 146.693 116.404 146.693C116.515 146.351 116.173 146.037 115.852 145.897C115.531 145.757 115.153 145.646 114.972 145.331C114.644 144.682 115.503 143.788 115.133 143.237C114.762 142.685 113.959 143.181 113.429 143.453Z" fill="#D9E2E4"/>
<path opacity="0.2" d="M66.717 170.404C66.6521 170.445 66.5771 170.466 66.5005 170.467C66.3678 170.467 66.2701 170.327 66.2142 170.202C65.9069 169.538 66.0815 168.672 65.6136 168.107C65.1312 168.685 64.7424 169.335 64.4614 170.034L62.6596 169.475C62.5698 169.829 62.5539 170.198 62.6127 170.558C62.6716 170.919 62.804 171.263 63.0018 171.57C62.6838 171.708 62.3948 171.904 62.1498 172.15C62.0282 172.273 61.943 172.428 61.9036 172.596C61.8642 172.765 61.8721 172.941 61.9264 173.106C62.345 173.204 62.7747 173.246 63.2043 173.232C63.1362 174.023 63.1808 174.82 63.337 175.599C63.3413 175.656 63.357 175.713 63.3834 175.764C63.4098 175.816 63.4463 175.862 63.4907 175.899C63.6233 175.99 63.7979 175.899 63.9306 175.829C64.5554 175.445 65.0684 174.903 65.4181 174.258L66.1164 175.857C66.1666 176.023 66.2727 176.166 66.4167 176.262C66.5193 176.297 66.6306 176.296 66.733 176.261C66.8354 176.225 66.9231 176.157 66.9824 176.066C67.0936 175.882 67.1605 175.674 67.1779 175.459L67.4293 173.93C67.4347 173.851 67.4639 173.776 67.5131 173.714C67.591 173.66 67.6841 173.633 67.7785 173.637C68.414 173.637 69.0495 173.637 69.6919 173.637C69.7967 173.295 69.4615 172.98 69.1333 172.841C68.805 172.701 68.4349 172.589 68.2603 172.275C67.9251 171.626 68.7841 170.732 68.4209 170.181C68.0578 169.629 67.2757 170.125 66.717 170.404Z" fill="#D9E2E4"/>
<path opacity="0.5" d="M21.5353 76.0767C21.4726 76.1165 21.4001 76.1382 21.3258 76.1396C21.258 76.1274 21.1948 76.0969 21.1431 76.0514C21.0914 76.0058 21.0532 75.947 21.0325 75.8812C20.7253 75.183 20.8999 74.3452 20.432 73.7866C19.9496 74.3623 19.5607 75.0102 19.2797 75.7067L17.478 75.1481C17.3894 75.5022 17.3741 75.8705 17.433 76.2307C17.4918 76.5909 17.6236 76.9353 17.8202 77.2427C17.5025 77.378 17.2134 77.5723 16.9682 77.8152C16.8473 77.9392 16.7625 78.0938 16.7231 78.2624C16.6838 78.431 16.6912 78.6071 16.7447 78.7718C17.1622 78.876 17.5928 78.9184 18.0227 78.8975C17.955 79.6911 17.9996 80.4902 18.1554 81.2714C18.1609 81.3296 18.1779 81.3861 18.2055 81.4376C18.233 81.4892 18.2706 81.5347 18.316 81.5716C18.4487 81.6554 18.6163 81.5716 18.7559 81.5018C19.3791 81.1145 19.8896 80.5703 20.2364 79.9238L20.9348 81.5297C20.9825 81.6948 21.0894 81.8365 21.235 81.9277C21.3377 81.9623 21.4489 81.962 21.5513 81.9266C21.6537 81.8912 21.7414 81.8228 21.8007 81.7322C21.9119 81.5475 21.9788 81.3396 21.9963 81.1247L22.2477 79.6027C22.253 79.5237 22.2822 79.4482 22.3314 79.3862C22.4063 79.3267 22.5017 79.299 22.5968 79.3094C23.2323 79.3094 23.8748 79.3094 24.5103 79.3094C24.615 78.9743 24.2798 78.6601 23.9516 78.5135C23.6234 78.3668 23.2533 78.2621 23.0787 77.9479C22.7435 77.3056 23.6094 76.4049 23.2393 75.8533C22.8692 75.3017 22.094 75.8044 21.5353 76.0767Z" fill="#D9E2E4"/>
<path opacity="0.5" d="M45.5752 129.231C45.5133 129.273 45.4403 129.294 45.3657 129.294C45.226 129.294 45.1353 129.161 45.0794 129.036C44.7721 128.337 44.9467 127.499 44.4719 126.941C43.9941 127.519 43.6078 128.166 43.3266 128.861L41.5179 128.302C41.4314 128.657 41.4171 129.025 41.4759 129.385C41.5346 129.744 41.6653 130.089 41.8601 130.397C41.5451 130.536 41.2586 130.733 41.0151 130.977C40.8935 131.1 40.8083 131.255 40.7689 131.423C40.7294 131.592 40.7373 131.768 40.7916 131.933C41.2073 132.034 41.6351 132.076 42.0626 132.059C41.9971 132.853 42.0442 133.652 42.2022 134.433C42.2065 134.49 42.2222 134.547 42.2486 134.598C42.275 134.65 42.3115 134.696 42.3559 134.733C42.4885 134.817 42.6631 134.733 42.7958 134.656C43.4207 134.272 43.9336 133.73 44.2833 133.085L44.9816 134.684C45.0278 134.852 45.1349 134.996 45.2819 135.089C45.3834 135.124 45.494 135.124 45.5955 135.089C45.6969 135.053 45.7833 134.984 45.8406 134.893C45.9542 134.709 46.0236 134.501 46.0431 134.286L46.2945 132.764C46.2942 132.678 46.3267 132.596 46.3853 132.534C46.4218 132.503 46.4642 132.48 46.5099 132.467C46.5556 132.454 46.6035 132.45 46.6507 132.457C47.2838 132.457 47.9193 132.457 48.5571 132.457C48.6689 132.122 48.3337 131.8 48.0055 131.661C47.6772 131.521 47.3071 131.409 47.1325 131.095C46.7973 130.453 47.6563 129.552 47.2931 129.001C46.93 128.449 46.1339 128.959 45.5752 129.231Z" fill="#D9E2E4"/>
<path opacity="0.5" d="M28.1258 108.515C28.0612 108.551 27.9898 108.572 27.9163 108.578C27.8496 108.563 27.788 108.53 27.7377 108.484C27.6875 108.437 27.6503 108.378 27.63 108.313C27.3228 107.65 27.4974 106.784 27.0225 106.218C26.5421 106.797 26.1557 107.447 25.8772 108.145L24.0685 107.587C23.9828 107.941 23.9689 108.309 24.0276 108.669C24.0864 109.028 24.2167 109.373 24.4107 109.681C24.0931 109.817 23.8039 110.011 23.5587 110.254C23.4396 110.379 23.3566 110.534 23.3185 110.702C23.2804 110.871 23.2886 111.046 23.3422 111.21C23.7573 111.315 24.1857 111.357 24.6132 111.336C24.5478 112.13 24.5948 112.929 24.7529 113.71C24.7571 113.768 24.7729 113.824 24.7993 113.876C24.8256 113.927 24.8621 113.973 24.9065 114.01C25.0392 114.094 25.2138 114.01 25.3464 113.94C25.9705 113.552 26.4831 113.008 26.8339 112.362L27.5323 113.968C27.5782 114.132 27.6825 114.274 27.8256 114.366C27.9282 114.401 28.0394 114.401 28.1418 114.365C28.2442 114.33 28.3319 114.261 28.3912 114.171C28.5049 113.987 28.5742 113.779 28.5938 113.563L28.8382 112.041C28.8435 111.962 28.8728 111.887 28.922 111.825C28.999 111.764 29.0969 111.737 29.1943 111.748C29.8275 111.748 30.463 111.748 31.1008 111.748C31.2125 111.413 30.8703 111.099 30.5491 110.952C30.2279 110.805 29.8508 110.701 29.6692 110.387C29.341 109.744 30.1999 108.844 29.8368 108.292C29.4736 107.74 28.6845 108.236 28.1258 108.515Z" fill="#D9E2E4"/>
<path opacity="0.5" d="M103.087 113.389C103.025 113.43 102.952 113.452 102.877 113.452C102.738 113.452 102.647 113.319 102.591 113.193C102.284 112.495 102.458 111.657 101.983 111.099C101.503 111.675 101.117 112.323 100.838 113.019L99.0294 112.46C98.9429 112.814 98.9286 113.182 98.9874 113.542C99.0462 113.902 99.1768 114.246 99.3716 114.555C99.055 114.695 98.7664 114.891 98.5196 115.134C98.4006 115.259 98.3176 115.414 98.2795 115.583C98.2413 115.751 98.2495 115.927 98.3031 116.091C98.7188 116.192 99.1466 116.234 99.5741 116.216C99.5087 117.01 99.5557 117.81 99.7138 118.59C99.718 118.648 99.7338 118.704 99.7601 118.756C99.7865 118.808 99.823 118.853 99.8674 118.891C100 118.974 100.175 118.891 100.307 118.814C100.932 118.429 101.445 117.888 101.795 117.243L102.493 118.842C102.539 119.009 102.646 119.154 102.793 119.247C102.895 119.281 103.005 119.28 103.106 119.245C103.208 119.209 103.294 119.141 103.352 119.051C103.466 118.867 103.535 118.659 103.555 118.444L103.806 116.922C103.802 116.877 103.809 116.832 103.827 116.791C103.844 116.75 103.871 116.713 103.905 116.685C103.939 116.656 103.98 116.636 104.023 116.626C104.067 116.616 104.112 116.617 104.155 116.628C104.793 116.628 105.429 116.628 106.062 116.628C106.173 116.293 105.831 115.972 105.51 115.832C105.189 115.693 104.812 115.581 104.63 115.267C104.302 114.625 105.161 113.724 104.798 113.172C104.435 112.621 103.652 113.116 103.087 113.389Z" fill="#D9E2E4"/>
<path opacity="0.2" d="M66.716 109.311C66.6511 109.352 66.5761 109.374 66.4995 109.374C66.3668 109.374 66.2691 109.241 66.2132 109.116C65.9059 108.417 66.0805 107.58 65.6126 107.021C65.1303 107.597 64.7414 108.245 64.4604 108.941L62.6586 108.382C62.5701 108.737 62.5548 109.105 62.6136 109.465C62.6725 109.825 62.8042 110.17 63.0008 110.477C62.6832 110.612 62.3941 110.807 62.1489 111.05C62.0279 111.174 61.9432 111.328 61.9038 111.497C61.8644 111.665 61.8719 111.842 61.9254 112.006C62.3429 112.111 62.7735 112.153 63.2034 112.132C63.1356 112.925 63.1803 113.725 63.336 114.506C63.3481 114.621 63.4029 114.728 63.4897 114.806C63.6223 114.89 63.7969 114.806 63.9296 114.736C64.5554 114.35 65.0684 113.806 65.4171 113.158L66.1154 114.764C66.1631 114.929 66.27 115.071 66.4157 115.162C66.5183 115.197 66.6296 115.196 66.732 115.161C66.8344 115.126 66.9221 115.057 66.9814 114.967C67.0926 114.782 67.1595 114.574 67.1769 114.359L67.4283 112.837C67.4337 112.758 67.4629 112.683 67.5121 112.621C67.587 112.561 67.6824 112.533 67.7775 112.544C68.413 112.544 69.0485 112.544 69.6909 112.544C69.7957 112.209 69.4605 111.894 69.1323 111.748C68.804 111.601 68.4339 111.496 68.2593 111.182C67.9241 110.54 68.7831 109.639 68.4199 109.088C68.0568 108.536 67.2747 109.039 66.716 109.311Z" fill="#D9E2E4"/>
<path opacity="0.3" d="M55.2987 114.282C55.2341 114.318 55.1627 114.339 55.0892 114.345C55.0224 114.33 54.9608 114.297 54.9106 114.251C54.8603 114.204 54.8232 114.145 54.8029 114.08C54.4956 113.382 54.6702 112.551 54.1953 111.985C53.7135 112.563 53.3269 113.213 53.05 113.912L51.2414 113.347C51.156 113.701 51.1424 114.069 51.2011 114.429C51.2599 114.788 51.3899 115.133 51.5835 115.441C51.2659 115.577 50.9768 115.771 50.7315 116.014C50.6125 116.139 50.5295 116.294 50.4914 116.462C50.4533 116.631 50.4614 116.806 50.5151 116.971C50.9302 117.075 51.3585 117.117 51.7861 117.096C51.7206 117.89 51.7676 118.689 51.9257 119.47C51.9299 119.528 51.9457 119.584 51.9721 119.636C51.9985 119.687 52.035 119.733 52.0794 119.77C52.2121 119.854 52.3867 119.77 52.5193 119.7C53.1434 119.312 53.6559 118.768 54.0068 118.123L54.7051 119.728C54.7528 119.894 54.8598 120.035 55.0054 120.126C55.107 120.161 55.2172 120.16 55.3183 120.125C55.4195 120.089 55.506 120.021 55.5641 119.931C55.6778 119.747 55.7471 119.539 55.7666 119.323L56.018 117.801C56.0209 117.723 56.0478 117.648 56.0949 117.585C56.1719 117.524 56.2698 117.497 56.3672 117.508C57.005 117.508 57.6405 117.508 58.2737 117.508C58.3854 117.173 58.0432 116.859 57.722 116.712C57.4007 116.566 57.0236 116.461 56.842 116.147C56.5138 115.504 57.3728 114.604 57.0097 114.052C56.6465 113.5 55.8574 114.003 55.2987 114.282Z" fill="#D9E2E4"/>
<path opacity="0.2" d="M44.6633 84.232C44.5984 84.2727 44.5234 84.2944 44.4468 84.2948C44.3141 84.2948 44.2163 84.1622 44.1605 84.0365C43.8532 83.3383 44.0278 82.5005 43.5599 81.9419C43.0775 82.5176 42.6887 83.1655 42.4076 83.862L40.6059 83.3034C40.5157 83.6573 40.4995 84.026 40.5584 84.3864C40.6173 84.7468 40.75 85.0912 40.9481 85.398C40.6315 85.5383 40.3429 85.7347 40.0961 85.9775C39.9745 86.101 39.8893 86.2556 39.8499 86.4244C39.8105 86.5931 39.8183 86.7695 39.8726 86.934C40.2908 87.0348 40.7209 87.0771 41.1506 87.0597C41.0831 87.8533 41.1277 88.6525 41.2833 89.4336C41.2954 89.5493 41.3501 89.6563 41.4369 89.7338C41.5696 89.8176 41.7442 89.7338 41.8769 89.657C42.5038 89.2752 43.0174 88.7329 43.3643 88.0861L44.0627 89.685C44.1128 89.8507 44.219 89.9938 44.363 90.0899C44.4656 90.1246 44.5768 90.1242 44.6792 90.0888C44.7816 90.0535 44.8693 89.9851 44.9286 89.8944C45.0398 89.7097 45.1068 89.5018 45.1242 89.287L45.3756 87.7649C45.38 87.6857 45.4094 87.61 45.4594 87.5485C45.5343 87.4889 45.6296 87.4613 45.7247 87.4717C46.3602 87.4717 47.0027 87.4717 47.6382 87.4717C47.7429 87.1295 47.4077 86.8153 47.0795 86.6757C46.7513 86.5361 46.3812 86.4244 46.2066 86.1102C45.8714 85.4608 46.7303 84.5671 46.3672 84.0156C46.0041 83.464 45.222 83.9597 44.6633 84.232Z" fill="#D9E2E4"/>
<path opacity="0.3" d="M65.6193 123.457C65.5518 123.491 65.4783 123.513 65.4028 123.52C65.2701 123.52 65.1724 123.38 65.1165 123.254C64.8093 122.591 64.9839 121.725 64.516 121.16C64.0335 121.738 63.6447 122.388 63.3637 123.087L61.5619 122.528C61.4726 122.882 61.4568 123.251 61.5157 123.611C61.5746 123.971 61.7067 124.316 61.9041 124.623C61.5865 124.758 61.2974 124.952 61.0522 125.195C60.9312 125.319 60.8465 125.474 60.8071 125.642C60.7677 125.811 60.7752 125.987 60.8287 126.152C61.2462 126.256 61.6768 126.298 62.1067 126.277C62.0389 127.071 62.0836 127.87 62.2394 128.651C62.2515 128.767 62.3062 128.874 62.393 128.952C62.5257 129.035 62.7003 128.952 62.8399 128.882C63.4621 128.493 63.9723 127.949 64.3204 127.304L65.0187 128.91C65.0665 129.075 65.1734 129.216 65.319 129.308C65.4217 129.342 65.5329 129.342 65.6353 129.307C65.7377 129.271 65.8254 129.203 65.8847 129.112C65.9959 128.928 66.0628 128.72 66.0802 128.505L66.3316 126.983C66.337 126.904 66.3662 126.828 66.4154 126.766C66.4903 126.707 66.5857 126.679 66.6808 126.689C67.3163 126.689 67.9588 126.689 68.5943 126.689C68.699 126.354 68.3638 126.04 68.0356 125.893C67.7074 125.747 67.3372 125.642 67.1627 125.328C66.8275 124.686 67.6864 123.785 67.3233 123.233C66.9601 122.682 66.178 123.164 65.6193 123.457Z" fill="#D9E2E4"/>
</g>
<g clip-path="url(#clip1_40064_130118)">
<path d="M67.8721 196.209C69.2435 196.69 70.716 196.811 72.1476 196.559C73.5793 196.307 74.9218 195.691 76.046 194.771C78.9089 192.37 79.8067 188.417 80.5368 184.756L82.697 173.925L78.1744 177.036C74.9218 179.273 71.5961 181.582 69.3443 184.822C67.0924 188.062 66.11 192.485 67.9188 195.991" fill="#E6E6E6"/>
<path d="M68.5702 210.075C68.0009 205.933 67.4152 201.736 67.8155 197.549C68.1702 193.831 69.306 190.2 71.6182 187.221C72.8456 185.643 74.339 184.291 76.0314 183.226C76.4726 182.948 76.8788 183.647 76.4395 183.924C73.5111 185.772 71.246 188.502 69.9709 191.719C68.5626 195.297 68.3365 199.197 68.5791 202.998C68.7257 205.296 69.0373 207.579 69.3502 209.86C69.3749 209.963 69.3595 210.072 69.307 210.164C69.2546 210.256 69.169 210.325 69.0677 210.357C68.9643 210.384 68.8541 210.37 68.7611 210.318C68.668 210.265 68.5995 210.177 68.5704 210.074L68.5702 210.075Z" fill="#F2F2F2"/>
<path d="M72.667 203.428C73.2551 204.321 74.0635 205.048 75.0145 205.538C75.9654 206.028 77.0268 206.266 78.0963 206.228C80.8454 206.097 83.1364 204.181 85.1985 202.362L91.2992 196.982L87.2617 196.789C84.3581 196.65 81.3796 196.519 78.614 197.415C75.8485 198.31 73.2979 200.462 72.7923 203.321" fill="#E6E6E6"/>
<path d="M66.9614 212.456C69.7019 207.613 72.8804 202.23 78.5604 200.509C80.1395 200.032 81.7954 199.861 83.4387 200.006C83.9568 200.05 83.8274 200.848 83.3105 200.803C80.5557 200.575 77.8062 201.302 75.525 202.861C73.3297 204.353 71.6204 206.429 70.1738 208.629C69.2877 209.977 68.4939 211.382 67.7002 212.785C67.4465 213.234 66.7048 212.91 66.9614 212.456Z" fill="#F2F2F2"/>
<path d="M286.244 152.663H135.156C134.69 152.662 134.244 152.477 133.914 152.148C133.585 151.819 133.4 151.373 133.399 150.908V10.7541C133.4 10.2891 133.585 9.84327 133.914 9.51444C134.244 9.18561 134.69 9.00061 135.156 9H286.244C286.71 9.00061 287.156 9.18561 287.485 9.51444C287.815 9.84327 288 10.2891 288 10.7541V150.908C288 151.373 287.815 151.819 287.486 152.148C287.156 152.477 286.71 152.662 286.244 152.663Z" fill="white"/>
<path d="M286.244 152.663H135.156C134.69 152.662 134.244 152.477 133.914 152.148C133.585 151.819 133.4 151.373 133.399 150.908V10.7541C133.4 10.2891 133.585 9.84327 133.914 9.51444C134.244 9.18561 134.69 9.00061 135.156 9H286.244C286.71 9.00061 287.156 9.18561 287.485 9.51444C287.815 9.84327 288 10.2891 288 10.7541V150.908C288 151.373 287.815 151.819 287.486 152.148C287.156 152.477 286.71 152.662 286.244 152.663ZM135.156 9.70027C134.876 9.70087 134.609 9.81186 134.412 10.0089C134.214 10.206 134.103 10.4731 134.103 10.7518V150.908C134.103 151.187 134.214 151.454 134.412 151.651C134.609 151.848 134.876 151.959 135.156 151.96H286.244C286.523 151.959 286.791 151.848 286.988 151.651C287.185 151.454 287.297 151.187 287.297 150.908V10.7541C287.296 10.4754 287.185 10.2083 286.988 10.0112C286.791 9.81416 286.523 9.70317 286.244 9.70257L135.156 9.70027Z" fill="#CACACA"/>
<path d="M206.548 45.4194C206.232 45.42 205.929 45.5457 205.706 45.769C205.483 45.9922 205.357 46.2948 205.357 46.6103C205.357 46.9258 205.483 47.2284 205.706 47.4517C205.929 47.6749 206.232 47.8006 206.548 47.8012H271.967C272.283 47.8006 272.585 47.6749 272.809 47.4517C273.032 47.2284 273.157 46.9258 273.157 46.6103C273.157 46.2948 273.032 45.9922 272.809 45.769C272.585 45.5457 272.283 45.42 271.967 45.4194H206.548Z" fill="#E4E4E4"/>
<path d="M206.548 52.5654C206.232 52.5662 205.93 52.692 205.707 52.9152C205.484 53.1385 205.358 53.441 205.358 53.7563C205.358 54.0717 205.484 54.3741 205.707 54.5974C205.93 54.8206 206.232 54.9464 206.548 54.9472H239.946C240.261 54.9464 240.564 54.8206 240.787 54.5974C241.01 54.3741 241.135 54.0717 241.135 53.7563C241.135 53.441 241.01 53.1385 240.787 52.9152C240.564 52.692 240.261 52.5662 239.946 52.5654H206.548Z" fill="#E4E4E4"/>
<path d="M149.369 90.9937C149.053 90.9944 148.751 91.1202 148.528 91.3435C148.305 91.5667 148.18 91.8692 148.18 92.1845C148.18 92.4999 148.305 92.8023 148.528 93.0256C148.751 93.2488 149.053 93.3746 149.369 93.3754H272.031C272.346 93.3746 272.649 93.2488 272.872 93.0256C273.095 92.8023 273.22 92.4999 273.22 92.1845C273.22 91.8692 273.095 91.5667 272.872 91.3435C272.649 91.1202 272.346 90.9944 272.031 90.9937H149.369Z" fill="#E4E4E4"/>
<path d="M149.369 98.1396C149.053 98.1404 148.751 98.2662 148.528 98.4895C148.305 98.7127 148.18 99.0152 148.18 99.3305C148.18 99.6459 148.305 99.9483 148.528 100.172C148.751 100.395 149.053 100.521 149.369 100.521H240.009C240.325 100.521 240.627 100.395 240.85 100.172C241.073 99.9483 241.198 99.6459 241.198 99.3305C241.198 99.0152 241.073 98.7127 240.85 98.4895C240.627 98.2662 240.325 98.1404 240.009 98.1396H149.369Z" fill="#E4E4E4"/>
<path d="M149.369 105.124C149.053 105.125 148.751 105.251 148.528 105.474C148.305 105.697 148.18 106 148.18 106.315C148.18 106.63 148.305 106.933 148.528 107.156C148.751 107.379 149.053 107.505 149.369 107.506H272.031C272.346 107.505 272.649 107.379 272.872 107.156C273.095 106.933 273.22 106.63 273.22 106.315C273.22 106 273.095 105.697 272.872 105.474C272.649 105.251 272.346 105.125 272.031 105.124H149.369Z" fill="#E4E4E4"/>
<path d="M149.369 112.27C149.053 112.271 148.751 112.397 148.528 112.62C148.305 112.843 148.18 113.146 148.18 113.461C148.18 113.776 148.305 114.079 148.528 114.302C148.751 114.525 149.053 114.651 149.369 114.652H240.009C240.325 114.651 240.627 114.525 240.85 114.302C241.073 114.079 241.198 113.776 241.198 113.461C241.198 113.146 241.073 112.843 240.85 112.62C240.627 112.397 240.325 112.271 240.009 112.27H149.369Z" fill="#E4E4E4"/>
<path d="M149.369 119.44C149.053 119.441 148.751 119.567 148.528 119.79C148.305 120.013 148.18 120.316 148.18 120.631C148.18 120.947 148.305 121.249 148.528 121.472C148.751 121.696 149.053 121.821 149.369 121.822H272.031C272.346 121.821 272.649 121.696 272.872 121.472C273.095 121.249 273.22 120.947 273.22 120.631C273.22 120.316 273.095 120.013 272.872 119.79C272.649 119.567 272.346 119.441 272.031 119.44H149.369Z" fill="#E4E4E4"/>
<path d="M149.369 126.586C149.053 126.587 148.751 126.713 148.528 126.936C148.305 127.159 148.18 127.461 148.18 127.777C148.18 128.092 148.305 128.395 148.528 128.618C148.751 128.841 149.053 128.967 149.369 128.968H240.009C240.325 128.967 240.627 128.841 240.85 128.618C241.073 128.395 241.198 128.092 241.198 127.777C241.198 127.461 241.073 127.159 240.85 126.936C240.627 126.713 240.325 126.587 240.009 126.586H149.369Z" fill="#E4E4E4"/>
<path d="M168.797 67.293C165.409 67.2931 162.098 66.2896 159.281 64.4096C156.464 62.5296 154.268 59.8574 152.972 56.7311C151.675 53.6047 151.336 50.1645 151.997 46.8456C152.658 43.5266 154.289 40.4779 156.685 38.0851C159.08 35.6922 162.132 34.0627 165.455 33.4025C168.778 32.7423 172.222 33.0811 175.352 34.3761C178.482 35.6711 181.157 37.8641 183.039 40.6778C184.921 43.4914 185.926 46.7994 185.926 50.1834C185.921 54.7195 184.114 59.0684 180.903 62.276C177.692 65.4835 173.338 67.2878 168.797 67.293Z" fill="#28A745"/>
<path d="M116.801 131.986C116.772 131.361 116.605 130.751 116.314 130.198C116.023 129.644 115.614 129.161 115.115 128.783C114.617 128.405 114.041 128.14 113.43 128.008C112.818 127.876 112.185 127.88 111.574 128.018L105.913 120.048L100.225 122.304L108.378 133.447C108.68 134.456 109.341 135.319 110.237 135.873C111.133 136.427 112.201 136.633 113.24 136.453C114.278 136.273 115.214 135.719 115.87 134.896C116.527 134.072 116.858 133.037 116.801 131.986Z" fill="#A0616A"/>
<path d="M105.767 131.395L88.6357 109.195L95.0548 89.0436C95.5252 83.9773 98.6991 82.5626 98.8341 82.5048L99.0401 82.4165L104.626 97.2956L100.525 108.22L110.591 125.131L105.767 131.395Z" fill="#003A4D"/>
<path d="M165.263 62.9603C164.642 63.0381 164.045 63.2509 163.515 63.5839C162.986 63.9168 162.535 64.3617 162.196 64.8873C161.857 65.4128 161.638 66.0062 161.553 66.6257C161.469 67.2452 161.521 67.8756 161.707 68.4727L154.189 74.7273L156.88 80.2175L167.372 71.2358C168.356 70.8576 169.166 70.1323 169.65 69.1972C170.134 68.262 170.257 67.1821 169.997 66.1621C169.737 65.142 169.112 64.2527 168.239 63.6626C167.366 63.0725 166.307 62.8226 165.263 62.9603Z" fill="#A0616A"/>
<path d="M165.526 73.9954L144.692 92.7729L124.082 87.9383C118.989 87.8616 117.331 84.8101 117.263 84.6801L117.159 84.4818L131.579 77.7686L142.8 81.0083L158.901 69.6758L165.526 73.9954Z" fill="#003A4D"/>
<path d="M129.439 207.485L135.036 207.484L137.699 185.918L129.438 185.918L129.439 207.485Z" fill="#A0616A"/>
<path d="M145.832 212.676L128.24 212.677L128.239 205.887L140.896 205.887C142.205 205.886 143.461 206.406 144.386 207.33C145.312 208.255 145.832 209.509 145.832 210.816L145.832 212.676Z" fill="#003A4D"/>
<path d="M107.066 207.485L112.664 207.484L115.327 185.918L107.065 185.918L107.066 207.485Z" fill="#A0616A"/>
<path d="M123.459 212.676L105.867 212.677L105.866 205.887L118.523 205.887C119.171 205.886 119.813 206.014 120.412 206.262C121.011 206.509 121.555 206.873 122.013 207.33C122.471 207.788 122.835 208.332 123.083 208.93C123.331 209.528 123.459 210.169 123.459 210.816L123.459 212.676Z" fill="#003A4D"/>
<path d="M105.075 128.764L105.532 160.689L105.989 202.647L116.033 201.735L121.056 143.815L127.448 201.735H137.818L138.862 143.359L135.21 130.589L105.075 128.764Z" fill="#003A4D"/>
<path d="M124.736 133.052C113.806 133.052 103.746 128.111 103.61 128.044L103.497 127.987L102.58 106.001C102.314 105.224 97.0769 89.893 96.1899 85.0202C95.2912 80.0832 108.316 75.7504 109.898 75.2437L110.256 71.2722L124.852 69.7012L126.702 74.7829L131.939 76.7442C132.532 76.9667 133.023 77.399 133.319 77.9592C133.615 78.5194 133.695 79.1685 133.544 79.7835L130.633 91.6053L137.741 130.717L136.211 130.784C132.543 132.438 128.584 133.051 124.736 133.052Z" fill="#003A4D"/>
<path d="M123.166 65.8992C128.259 63.1184 130.13 56.7403 127.346 51.6533C124.562 46.5663 118.177 44.6968 113.084 47.4776C107.992 50.2584 106.12 56.6365 108.904 61.7235C111.688 66.8105 118.073 68.68 123.166 65.8992Z" fill="#A0616A"/>
<path d="M109.614 66.8505C111.617 68.9815 115.336 67.8375 115.597 64.9263C115.617 64.7003 115.616 64.4728 115.592 64.2471C115.458 62.9575 114.712 61.7868 114.891 60.4252C114.931 60.0863 115.057 59.7634 115.258 59.487C116.854 57.3522 120.6 60.4418 122.106 58.5093C123.03 57.3243 121.944 55.4586 122.653 54.1342C123.588 52.3863 126.359 53.2485 128.096 52.2913C130.03 51.2262 129.914 48.2635 128.641 46.4614C127.09 44.2637 124.369 43.091 121.681 42.922C118.994 42.753 116.326 43.4785 113.817 44.4551C110.967 45.5647 108.14 47.0981 106.386 49.6016C104.253 52.6461 104.048 56.7392 105.114 60.2992C105.763 62.4648 107.978 65.1103 109.614 66.8505Z" fill="#003A4D"/>
<path d="M167.808 56.6458C167.499 56.6462 167.202 56.5294 166.976 56.3191L161.327 51.0789C161.09 50.8582 160.95 50.5525 160.938 50.2288C160.927 49.9051 161.044 49.59 161.265 49.3526C161.485 49.1153 161.791 48.9752 162.115 48.9631C162.439 48.951 162.755 49.0678 162.993 49.288L167.777 53.7267L177.242 44.2724C177.355 44.1582 177.49 44.0675 177.639 44.0055C177.788 43.9435 177.947 43.9114 178.108 43.9111C178.269 43.9108 178.429 43.9423 178.578 44.0037C178.726 44.0652 178.862 44.1554 178.976 44.2692C179.089 44.3829 179.18 44.5181 179.241 44.6668C179.303 44.8155 179.334 44.9749 179.334 45.1357C179.333 45.2966 179.301 45.4559 179.239 45.6043C179.177 45.7528 179.086 45.8875 178.972 46.0009L168.673 56.2879C168.56 56.4015 168.425 56.4916 168.276 56.553C168.128 56.6145 167.969 56.646 167.808 56.6458Z" fill="white"/>
</g>
</g>
<defs>
<clipPath id="clip0_40064_130118">
<rect width="400" height="210" fill="white"/>
</clipPath>
<clipPath id="clip1_40064_130118">
<rect width="238" height="204" fill="white" transform="translate(50 9)"/>
</clipPath>
</defs>
</svg>
